<svg width="55" height="55" viewBox="0 0 55 55" fill="none" xmlns="http://www.w3.org/2000/svg">
<path d="M47.7277 36.7123L47.3388 36.5601C45.9352 36.0021 44.7177 35.5286 44.3541 34.514C44.2723 34.0025 44.2467 33.4837 44.278 32.9667C44.7161 32.5364 45.0643 32.0232 45.3024 31.4571C45.5404 30.891 45.6636 30.2833 45.6646 29.6692V26.6338C45.6646 25.4071 45.1774 24.2308 44.31 23.3634C43.4427 22.4961 42.2663 22.0088 41.0397 22.0088H40.1942C39.047 22.0021 37.9382 22.4212 37.0823 23.185C36.2264 23.9488 35.6842 25.0029 35.5607 26.1434C35.2141 25.9827 34.859 25.8305 34.5208 25.6868L34.1318 25.5515C32.7198 25.0019 31.5023 24.52 31.1387 23.5054C31.0376 22.9962 30.9979 22.4767 31.0203 21.9581C31.4646 21.5306 31.819 21.0187 32.0629 20.4525C32.3069 19.8863 32.4353 19.2771 32.4408 18.6606V15.6252C32.4385 14.3978 31.9494 13.2214 31.0807 12.3543C30.212 11.4872 29.0348 11.0002 27.8074 11.0002H26.9618C26.3509 10.9946 25.745 11.1101 25.179 11.34C24.6129 11.57 24.0981 11.9098 23.6641 12.3398C23.2302 12.7698 22.8857 13.2815 22.6507 13.8454C22.4156 14.4093 22.2946 15.0142 22.2946 15.6252V18.6606C22.2976 19.3405 22.4507 20.0114 22.743 20.6252C23.0353 21.2391 23.4597 21.7809 23.9856 22.2117C23.9975 22.6625 23.9607 23.1132 23.8757 23.5561C23.5206 24.5369 22.2777 25.0188 20.8488 25.5769L20.5275 25.7037C20.0642 25.8812 19.6123 26.0873 19.1747 26.3209C19.0954 25.1522 18.5757 24.0571 17.7204 23.2568C16.8651 22.4564 15.738 22.0104 14.5666 22.0088H13.7211C12.4952 22.011 11.3201 22.499 10.4532 23.3659C9.58634 24.2328 9.09835 25.4078 9.09612 26.6338V29.6692C9.09719 30.2833 9.22033 30.891 9.45838 31.4571C9.69643 32.0232 10.0446 32.5364 10.4828 32.9667C10.513 33.5134 10.4732 34.0618 10.3644 34.5985C10.0177 35.5624 8.80019 36.0359 7.39663 36.5939L7.0077 36.7461C4.25132 37.8115 2.34891 39.3165 2.00225 43.1044C1.98808 43.2745 2.04129 43.4434 2.15041 43.5746C2.25952 43.7059 2.41583 43.789 2.58565 43.8062H2.64484C2.80348 43.8029 2.95546 43.7418 3.07223 43.6344C3.189 43.527 3.26252 43.3806 3.27897 43.2228C3.56645 40.0605 5.03765 38.8768 7.50655 37.9045L7.89549 37.7523C9.51888 37.1097 11.0493 36.5009 11.5735 35.0466C11.7165 34.6599 11.7853 34.2498 11.7764 33.8376C12.3962 34.1365 13.0752 34.2925 13.7634 34.2941H14.6089C15.1884 34.2931 15.7624 34.1812 16.2999 33.9644C16.3056 34.3146 16.3625 34.6622 16.469 34.9959C17.0186 36.5178 18.5659 37.1266 20.2146 37.7692L20.5528 37.9045C22.9964 38.8768 24.4676 40.0605 24.7804 43.2228C24.7932 43.382 24.8656 43.5306 24.9832 43.6387C25.1007 43.7469 25.2548 43.8067 25.4146 43.8062H25.4737C25.6429 43.7891 25.7984 43.7056 25.9062 43.5741C26.014 43.4425 26.0652 43.2736 26.0487 43.1044C25.702 39.3165 23.7996 37.8115 21.0517 36.7123L20.705 36.577C19.2761 36.019 18.0501 35.537 17.6865 34.5309C17.6042 34.0991 17.5701 33.6596 17.5851 33.2203C18.1111 32.7895 18.5354 32.2477 18.8277 31.6338C19.12 31.02 19.2732 30.3491 19.2761 29.6692V27.8344C19.8413 27.4674 20.4453 27.164 21.0771 26.9297L21.3984 26.8029C23.0471 26.1518 24.6113 25.5515 25.1524 24.0465C25.2576 23.7037 25.3145 23.348 25.3216 22.9896C25.8595 23.2047 26.4332 23.3165 27.0126 23.3193H27.8581C28.5463 23.3186 29.2255 23.1625 29.8451 22.8628C29.8391 23.2568 29.9021 23.6488 30.0311 24.0211C30.5807 25.5346 32.1871 26.1687 33.7429 26.7775L34.1149 26.9297C34.631 27.1315 35.1313 27.3718 35.6115 27.6484V29.703C35.6127 30.3832 35.765 31.0547 36.0574 31.6688C36.3499 32.283 36.7752 32.8245 37.3025 33.2541C37.2834 33.7088 37.2125 34.1599 37.0911 34.5985C36.736 35.5709 35.51 36.0528 34.0811 36.6193L33.7344 36.7461C30.9865 37.8453 29.0841 39.3503 28.7374 43.1382C28.7209 43.3075 28.7721 43.4764 28.8799 43.6079C28.9877 43.7394 29.1432 43.8229 29.3124 43.84H29.3716C29.5313 43.8405 29.6854 43.7807 29.8029 43.6725C29.9205 43.5644 29.9929 43.4158 30.0057 43.2566C30.3016 40.0944 31.7728 38.9106 34.2333 37.9383L34.5715 37.803C36.2118 37.1604 37.7675 36.5517 38.3087 35.0551C38.4175 34.713 38.4773 34.3571 38.4862 33.9982C39.0237 34.215 39.5977 34.327 40.1773 34.328H41.0228C41.7109 34.3263 42.3899 34.1703 43.0097 33.8714C42.9977 34.2658 43.0608 34.6589 43.1957 35.0297C43.7369 36.5347 45.2757 37.1435 46.8906 37.7861L47.2796 37.9383C49.7231 38.9106 51.1943 40.0944 51.5072 43.2566C51.5236 43.4144 51.5971 43.5608 51.7139 43.6682C51.8307 43.7756 51.9827 43.8367 52.1413 43.84H52.2005C52.285 43.8326 52.3672 43.8085 52.4424 43.7691C52.5175 43.7298 52.5842 43.6759 52.6384 43.6107C52.6926 43.5454 52.7334 43.4701 52.7584 43.389C52.7834 43.3079 52.792 43.2227 52.7839 43.1382C52.3865 39.3165 50.4841 37.8115 47.7277 36.7123ZM17.9233 29.6692C17.9233 30.5661 17.567 31.4264 16.9327 32.0606C16.2985 32.6949 15.4382 33.0512 14.5412 33.0512H13.6957C12.7987 33.0512 11.9385 32.6949 11.3042 32.0606C10.67 31.4264 10.3137 30.5661 10.3137 29.6692V26.6338C10.3137 25.7368 10.67 24.8765 11.3042 24.2423C11.9385 23.608 12.7987 23.2517 13.6957 23.2517H14.5412C15.4382 23.2517 16.2985 23.608 16.9327 24.2423C17.567 24.8765 17.9233 25.7368 17.9233 26.6338V29.6692ZM27.782 22.0088H26.9365C26.0395 22.0088 25.1793 21.6525 24.545 21.0182C23.9107 20.384 23.5544 19.5237 23.5544 18.6267V15.6252C23.5544 14.7282 23.9107 13.8679 24.545 13.2337C25.1793 12.5994 26.0395 12.2431 26.9365 12.2431H27.782C28.679 12.2431 29.5392 12.5994 30.1735 13.2337C30.8077 13.8679 31.1641 14.7282 31.1641 15.6252V18.6606C31.1552 19.5517 30.7949 20.4032 30.1616 21.0302C29.5283 21.6572 28.6731 22.0088 27.782 22.0088ZM40.9974 33.0005H40.1519C39.2549 33.0005 38.3947 32.6442 37.7604 32.0099C37.1261 31.3757 36.7698 30.5154 36.7698 29.6184V26.6338C36.7698 25.7368 37.1261 24.8765 37.7604 24.2423C38.3947 23.608 39.2549 23.2517 40.1519 23.2517H40.9974C41.8944 23.2517 42.7546 23.608 43.3889 24.2423C44.0231 24.8765 44.3795 25.7368 44.3795 26.6338V29.6692C44.3705 30.5603 44.0103 31.4118 43.377 32.0388C42.7437 32.6658 41.8885 33.0175 40.9974 33.0174V33.0005Z" fill="#008DD2"/>
</svg>
