<svg width="55" height="55" viewBox="0 0 55 55" fill="none" xmlns="http://www.w3.org/2000/svg">
<path d="M27.6914 38.6898C26.3957 38.691 25.1127 38.4354 23.9164 37.938C22.72 37.4405 21.6341 36.7109 20.7213 35.7914C19.3373 34.4079 18.3947 32.6451 18.0126 30.7259C17.6306 28.8066 17.8263 26.8172 18.575 25.0091C19.3237 23.2011 20.5918 21.6558 22.2188 20.5685C23.8459 19.4812 25.7589 18.9009 27.7158 18.9009C29.6727 18.9009 31.5856 19.4812 33.2127 20.5685C34.8397 21.6558 36.1078 23.2011 36.8565 25.0091C37.6052 26.8172 37.8009 28.8066 37.4189 30.7259C37.0368 32.6451 36.0942 34.4079 34.7102 35.7914C33.1808 37.3303 31.184 38.3183 29.0328 38.6005C28.5881 38.6599 28.14 38.6898 27.6914 38.6898ZM27.7226 20.9049C27.4605 20.9049 27.1978 20.9181 26.9344 20.9443C25.8913 21.0474 24.8792 21.3573 23.9571 21.8559C23.0351 22.3545 22.2217 23.0318 21.5642 23.8482C20.9068 24.6646 20.4187 25.6039 20.1283 26.611C19.8379 27.6182 19.751 28.6731 19.8728 29.7143C19.9945 30.7554 20.3225 31.7618 20.8375 32.6747C21.3525 33.5877 22.0443 34.3889 22.8724 35.0316C23.7004 35.6743 24.6482 36.1455 25.6604 36.4179C26.6727 36.6902 27.729 36.7582 28.7677 36.6178C30.4835 36.3926 32.076 35.6045 33.2957 34.3769C34.3988 33.2736 35.1501 31.8681 35.4547 30.338C35.7594 28.8079 35.6037 27.2218 35.0073 25.7802C34.4109 24.3385 33.4006 23.1059 32.104 22.2382C30.8075 21.3705 29.2828 20.9065 27.7226 20.9049Z" fill="#008DD2"/>
<path d="M44.4675 33.4885C44.4084 33.4885 44.3494 33.4833 44.2912 33.4729L36.1492 32.0246C35.888 31.9781 35.656 31.8298 35.5042 31.6122C35.3524 31.3946 35.2932 31.1257 35.3397 30.8645C35.3862 30.6033 35.5346 30.3713 35.7521 30.2195C35.9697 30.0677 36.2386 30.0085 36.4998 30.055L44.6406 31.5033C44.8872 31.5465 45.1086 31.6806 45.2611 31.879C45.4136 32.0775 45.4861 32.326 45.4644 32.5753C45.4426 32.8247 45.3282 33.0568 45.1436 33.2259C44.9591 33.3949 44.7178 33.4887 44.4675 33.4885Z" fill="#008DD2"/>
<path d="M26.8393 20.9497C26.5782 20.9498 26.3274 20.8478 26.1406 20.6654C25.9537 20.4831 25.8455 20.235 25.8392 19.974L25.5491 8.29592C25.5425 8.03068 25.6415 7.77367 25.8244 7.58142C26.0073 7.38918 26.259 7.27745 26.5242 7.27082C26.7895 7.26419 27.0465 7.3632 27.2387 7.54606C27.431 7.72893 27.5427 7.98068 27.5493 8.24592L27.8394 19.9246C27.8459 20.1897 27.7469 20.4466 27.564 20.6388C27.3811 20.8309 27.1294 20.9425 26.8643 20.9491L26.8393 20.9497Z" fill="#008DD2"/>
<path d="M10.3571 44.5026C10.1588 44.5025 9.96491 44.4435 9.80022 44.333C9.63553 44.2224 9.50742 44.0654 9.43218 43.8819C9.35694 43.6984 9.33796 43.4967 9.37766 43.3023C9.41737 43.108 9.51395 42.9299 9.65515 42.7906L19.5936 32.9896C19.6867 32.8954 19.7976 32.8206 19.9198 32.7696C20.042 32.7186 20.1731 32.6923 20.3055 32.6924C20.4379 32.6924 20.569 32.7188 20.6912 32.7699C20.8133 32.821 20.9241 32.8959 21.0171 32.9902C21.1101 33.0844 21.1834 33.1962 21.2329 33.3191C21.2823 33.4419 21.3069 33.5734 21.3051 33.7058C21.3033 33.8382 21.2753 33.9689 21.2226 34.0904C21.1699 34.2119 21.0936 34.3217 20.9982 34.4135L11.0597 44.2145C10.8728 44.3997 10.6202 44.5034 10.3571 44.5026Z" fill="#008DD2"/>
<path d="M31.5086 46.8637C31.2959 46.8637 31.0887 46.7958 30.9172 46.6701C30.7457 46.5443 30.6187 46.3671 30.5548 46.1642L27.9507 37.9134C27.8708 37.6604 27.8947 37.3861 28.0171 37.1507C28.1395 36.9153 28.3503 36.7382 28.6033 36.6583C28.8563 36.5784 29.1306 36.6022 29.366 36.7246C29.6014 36.847 29.7785 37.0579 29.8584 37.3108L32.4624 45.5617C32.5019 45.6869 32.5164 45.8187 32.5049 45.9496C32.4934 46.0804 32.4563 46.2077 32.3957 46.3242C32.335 46.4407 32.252 46.5441 32.1514 46.6285C32.0508 46.7129 31.9345 46.7767 31.8093 46.8162C31.7121 46.8474 31.6107 46.8634 31.5086 46.8637Z" fill="#008DD2"/>
<path d="M19.7006 25.9419C19.5388 25.942 19.3793 25.9025 19.2362 25.8269L10.8122 21.3983C10.5774 21.2749 10.4012 21.0633 10.3225 20.81C10.2437 20.5566 10.2688 20.2824 10.3922 20.0476C10.5156 19.8128 10.7273 19.6366 10.9806 19.5578C11.2339 19.479 11.5081 19.5041 11.743 19.6275L20.1669 24.0586C20.3648 24.1627 20.5221 24.3301 20.6136 24.5341C20.7052 24.738 20.7258 24.9668 20.6721 25.1838C20.6184 25.4009 20.4936 25.5937 20.3175 25.7314C20.1414 25.8692 19.9242 25.9439 19.7006 25.9438V25.9419Z" fill="#008DD2"/>
<path d="M33.6604 23.087C33.4631 23.087 33.2702 23.0287 33.1059 22.9193C32.9417 22.8099 32.8134 22.6544 32.7374 22.4723C32.6613 22.2902 32.6409 22.0897 32.6786 21.896C32.7162 21.7023 32.8104 21.524 32.9491 21.3837L39.321 14.9337C39.5082 14.749 39.7606 14.6455 40.0236 14.6455C40.2865 14.6455 40.5389 14.7492 40.726 14.9339C40.9132 15.1187 41.02 15.3697 41.0234 15.6326C41.0268 15.8956 40.9266 16.1493 40.7443 16.3388L34.3724 22.7895C34.2793 22.8837 34.1685 22.9586 34.0463 23.0097C33.924 23.0607 33.7929 23.087 33.6604 23.087Z" fill="#008DD2"/>
<path d="M32.4384 53.0004C31.4814 52.9997 30.5542 52.6672 29.8149 52.0596C29.0755 51.452 28.5697 50.6068 28.3836 49.668C28.1976 48.7293 28.3427 47.7551 28.7944 46.9114C29.2461 46.0677 29.9763 45.4067 30.8607 45.041C31.745 44.6753 32.7288 44.6275 33.6445 44.9059C34.5601 45.1842 35.3509 45.7714 35.8822 46.5674C36.4134 47.3634 36.6522 48.319 36.5579 49.2714C36.4636 50.2237 36.042 51.1139 35.3649 51.7903C34.9809 52.1748 34.5246 52.4797 34.0224 52.6873C33.5202 52.895 32.9819 53.0014 32.4384 53.0004ZM32.4384 46.726C31.9438 46.7263 31.4647 46.8982 31.0826 47.2122C30.7005 47.5262 30.4391 47.963 30.343 48.4481C30.2468 48.9333 30.3219 49.4367 30.5553 49.8727C30.7887 50.3088 31.1661 50.6503 31.6232 50.8393C32.0803 51.0282 32.5887 51.0528 33.0619 50.9089C33.535 50.765 33.9437 50.4615 34.2182 50.0501C34.4927 49.6387 34.616 49.1448 34.5672 48.6527C34.5183 48.1605 34.3004 47.7005 33.9504 47.3511C33.7521 47.1521 33.5165 46.9943 33.257 46.8867C32.9975 46.7791 32.7193 46.7239 32.4384 46.7241V46.726Z" fill="#008DD2"/>
<path d="M47.5446 37.2577C46.5387 37.259 45.5667 36.8936 44.8107 36.2301C44.0546 35.5665 43.5661 34.6503 43.4367 33.6527C43.3073 32.6551 43.5458 31.6445 44.1076 30.81C44.6693 29.9755 45.5159 29.3743 46.4889 29.1188C47.4618 28.8633 48.4946 28.9711 49.3938 29.4219C50.2931 29.8727 50.9973 30.6358 51.3747 31.5682C51.7521 32.5007 51.7769 33.5388 51.4443 34.4882C51.1118 35.4375 50.4447 36.2333 49.568 36.7264C48.9506 37.0751 48.2536 37.2581 47.5446 37.2577ZM47.5346 30.9796C47.2072 30.9793 46.8842 31.0542 46.5903 31.1985C46.2964 31.3428 46.0395 31.5526 45.8395 31.8118C45.6395 32.071 45.5017 32.3727 45.4366 32.6935C45.3716 33.0144 45.381 33.3459 45.4643 33.6626C45.5476 33.9792 45.7024 34.2725 45.9169 34.5198C46.1314 34.7672 46.3998 34.962 46.7014 35.0893C47.003 35.2166 47.3299 35.2729 47.6567 35.254C47.9836 35.235 48.3017 35.1413 48.5866 34.98C48.9971 34.747 49.3191 34.3849 49.5023 33.9499C49.6856 33.5149 49.7199 33.0315 49.5998 32.575C49.4798 32.1186 49.2121 31.7146 48.8386 31.426C48.4651 31.1375 48.0066 30.9805 47.5346 30.9796Z" fill="#008DD2"/>
<path d="M8.5009 23.1891C7.5439 23.1884 6.61674 22.8559 5.87738 22.2483C5.13803 21.6407 4.63222 20.7955 4.44614 19.8568C4.26007 18.918 4.40522 17.9438 4.85689 17.1001C5.30855 16.2564 6.03878 15.5954 6.92316 15.2297C7.80754 14.864 8.79135 14.8163 9.70698 15.0946C10.6226 15.3729 11.4134 15.9601 11.9446 16.7561C12.4759 17.5522 12.7147 18.5077 12.6204 19.4601C12.5261 20.4124 12.1045 21.3026 11.4274 21.979C11.0434 22.3635 10.5871 22.6684 10.0849 22.876C9.58268 23.0837 9.04437 23.1901 8.5009 23.1891ZM8.5009 16.9153C8.00633 16.9157 7.52718 17.0875 7.14509 17.4015C6.763 17.7156 6.50161 18.1523 6.40546 18.6375C6.30932 19.1226 6.38436 19.6261 6.6178 20.0621C6.85125 20.4981 7.22865 20.8397 7.68571 21.0286C8.14276 21.2176 8.6512 21.2422 9.12437 21.0983C9.59754 20.9544 10.0062 20.6509 10.2807 20.2395C10.5551 19.8281 10.6785 19.3342 10.6297 18.842C10.5808 18.3499 10.3629 17.8899 10.0129 17.5404C9.81449 17.3418 9.57876 17.1843 9.31928 17.077C9.05979 16.9698 8.78168 16.9148 8.5009 16.9153Z" fill="#008DD2"/>
<path d="M26.5203 9.26958C25.5638 9.26929 24.637 8.9374 23.8977 8.33045C23.1585 7.72349 22.6525 6.87901 22.4661 5.94087C22.2796 5.00272 22.4241 4.02895 22.8751 3.18542C23.326 2.3419 24.0555 1.68081 24.9392 1.31476C25.8228 0.948717 26.8061 0.900362 27.7214 1.17794C28.6368 1.45551 29.4275 2.04184 29.9591 2.83705C30.4906 3.63226 30.73 4.58715 30.6365 5.53906C30.543 6.49097 30.1223 7.38102 29.4462 8.05758C29.0624 8.44238 28.6063 8.74754 28.1042 8.95554C27.6021 9.16353 27.0638 9.27026 26.5203 9.26958ZM26.5203 2.99458C26.1687 2.99462 25.8226 3.08136 25.5126 3.24711C25.2026 3.41287 24.9382 3.65252 24.7429 3.94485C24.5477 4.23717 24.4275 4.57315 24.3931 4.92301C24.3587 5.27287 24.4111 5.62582 24.5456 5.95059C24.6802 6.27537 24.8928 6.56194 25.1646 6.78493C25.4364 7.00792 25.7589 7.16044 26.1037 7.22898C26.4485 7.29752 26.8049 7.27997 27.1413 7.17788C27.4777 7.07579 27.7838 6.89231 28.0323 6.64369C28.3315 6.34481 28.5354 5.96386 28.618 5.54907C28.7006 5.13429 28.6582 4.70432 28.4963 4.3136C28.3345 3.92288 28.0603 3.58898 27.7085 3.35418C27.3567 3.11938 26.9432 2.99423 26.5203 2.99458Z" fill="#008DD2"/>
<path d="M8.13824 49.8616C7.18077 49.8615 6.25295 49.5294 5.51286 48.922C4.77277 48.3145 4.2662 47.4692 4.07947 46.5301C3.89274 45.591 4.03741 44.6163 4.48881 43.7719C4.94021 42.9275 5.67043 42.2658 6.55504 41.8994C7.43965 41.533 8.42392 41.4848 9.34014 41.7628C10.2564 42.0407 11.0479 42.6278 11.5797 43.424C12.1116 44.2201 12.351 45.176 12.2571 46.1289C12.1632 47.0817 11.7419 47.9726 11.0648 48.6496C10.6813 49.035 10.2252 49.3406 9.72287 49.5486C9.22054 49.7566 8.68194 49.863 8.13824 49.8616ZM8.13824 43.5853C7.64367 43.5856 7.16452 43.7575 6.78243 44.0715C6.40034 44.3855 6.13895 44.8223 6.0428 45.3074C5.94666 45.7926 6.0217 46.296 6.25514 46.732C6.48859 47.1681 6.86599 47.5096 7.32305 47.6986C7.7801 47.8875 8.28854 47.9121 8.76171 47.7682C9.23489 47.6243 9.64353 47.3208 9.91801 46.9094C10.1925 46.498 10.3158 46.0041 10.267 45.512C10.2182 45.0198 10.0002 44.5598 9.65026 44.2104C9.45181 44.0117 9.21607 43.8543 8.9566 43.747C8.69712 43.6398 8.41901 43.5848 8.13824 43.5853Z" fill="#008DD2"/>
<path d="M42.1997 17.5051C41.2467 17.5043 40.3232 17.1747 39.5851 16.5719C38.847 15.969 38.3396 15.1299 38.1485 14.1963C37.9574 13.2627 38.0944 12.2917 38.5364 11.4474C38.9783 10.603 39.6981 9.93711 40.5742 9.56204C41.4503 9.18696 42.4289 9.12574 43.3449 9.38869C44.2609 9.65165 45.0581 10.2227 45.6018 11.0053C46.1456 11.788 46.4025 12.7343 46.3293 13.6845C46.2561 14.6347 45.8572 15.5305 45.2 16.2206C44.8262 16.6154 44.3777 16.9321 43.8806 17.1524C43.3835 17.3727 42.8477 17.4921 42.3041 17.5039C42.2691 17.5051 42.2341 17.5051 42.1997 17.5051ZM42.1997 11.2295C41.8459 11.2295 41.4977 11.3173 41.1862 11.485C40.8747 11.6527 40.6097 11.8951 40.4149 12.1905C40.2202 12.4858 40.1018 12.8249 40.0703 13.1773C40.0389 13.5297 40.0954 13.8843 40.2348 14.2095C40.3742 14.5346 40.5921 14.8201 40.869 15.0403C41.1459 15.2605 41.4731 15.4086 41.8213 15.4712C42.1695 15.5338 42.5278 15.509 42.8641 15.399C43.2003 15.289 43.5041 15.0973 43.748 14.8411C44.0367 14.5382 44.2301 14.1572 44.3043 13.7454C44.3785 13.3336 44.3301 12.9091 44.1653 12.5245C44.0004 12.1399 43.7263 11.8122 43.3768 11.582C43.0274 11.3518 42.6181 11.2292 42.1997 11.2295Z" fill="#008DD2"/>
</svg>
