<svg width="54" height="54" viewBox="0 0 54 54" fill="none" xmlns="http://www.w3.org/2000/svg">
<path d="M38.9345 9.11249H10.3702C9.22609 9.11249 8.29561 10.043 8.29561 11.1871V29.3875L6.17037 32.9528C6.11097 33.0527 6.0752 33.1823 6.0752 33.2984V36.2607C6.0752 37.3825 6.9878 38.2954 8.10965 38.2954H30.6428C31.0154 38.2954 31.3178 37.993 31.3178 37.6204C31.3178 37.2478 31.0154 36.9454 30.6428 36.9454H8.10965C7.73232 36.9454 7.4252 36.6383 7.4252 36.2607V33.9734H23.9772V35.3214C23.9772 35.694 24.2796 35.9964 24.6522 35.9964C25.0248 35.9964 25.3272 35.694 25.3272 35.3214V33.9734H30.6428C31.0154 33.9734 31.3178 33.671 31.3178 33.2984C31.3178 32.9258 31.0154 32.6234 30.6428 32.6234H7.93853L9.35434 30.2481H30.6432C31.0158 30.2481 31.3182 29.9457 31.3182 29.5731C31.3182 29.2005 31.0158 28.8981 30.6432 28.8981H9.64561V11.1871C9.64561 10.7875 9.97062 10.4625 10.3702 10.4625H38.9345C39.3341 10.4625 39.6588 10.7875 39.6588 11.1871V16.74C39.6588 17.1126 39.9612 17.415 40.3338 17.415C40.7064 17.415 41.0088 17.1126 41.0088 16.74V11.1871C41.0091 10.043 40.0787 9.11249 38.9345 9.11249Z" fill="#008DD2" stroke="#008DD2" stroke-width="0.3"/>
<path d="M46.2376 19.44H35.0303C34.0998 19.44 33.3428 20.197 33.3428 21.1275V43.2C33.3428 44.1305 34.0998 44.8875 35.0303 44.8875H46.2376C47.1681 44.8875 47.9251 44.1305 47.9251 43.2V21.1275C47.9251 20.197 47.1681 19.44 46.2376 19.44ZM34.6928 24.459H46.5751V38.7349H34.6928V24.459ZM35.0303 20.79H46.2376C46.4239 20.79 46.5751 20.9415 46.5751 21.1275V23.109H34.6928V21.1275C34.6928 20.9415 34.844 20.79 35.0303 20.79ZM46.2376 43.5375H35.0303C34.844 43.5375 34.6928 43.386 34.6928 43.2V40.0849H46.5751V43.2C46.5751 43.386 46.4239 43.5375 46.2376 43.5375Z" fill="#008DD2" stroke="#008DD2" stroke-width="0.3"/>
<path d="M42.6979 42.4892H39.1721C38.7995 42.4892 38.4971 42.1868 38.4971 41.8142C38.4971 41.4416 38.7995 41.1392 39.1721 41.1392H42.6979C43.0705 41.1392 43.3729 41.4416 43.3729 41.8142C43.3729 42.1868 43.0705 42.4892 42.6979 42.4892Z" fill="#008DD2"/>
</svg>
