<svg width="54" height="54" viewBox="0 0 54 54" fill="none" xmlns="http://www.w3.org/2000/svg">
<path d="M26.9409 25.6498C28.5429 25.6498 30.109 25.1747 31.441 24.2847C32.7731 23.3947 33.8113 22.1296 34.4243 20.6495C35.0374 19.1695 35.1978 17.5408 34.8853 15.9696C34.5727 14.3983 33.8013 12.955 32.6685 11.8222C31.5357 10.6894 30.0924 9.91798 28.5211 9.60544C26.9499 9.2929 25.3212 9.45331 23.8412 10.0664C22.3611 10.6794 21.096 11.7176 20.206 13.0497C19.316 14.3817 18.8409 15.9478 18.8409 17.5498C18.843 19.6974 19.6971 21.7564 21.2157 23.275C22.7343 24.7936 24.7933 25.6477 26.9409 25.6498ZM26.9409 12.1498C28.0089 12.1498 29.053 12.4665 29.941 13.0599C30.829 13.6532 31.5211 14.4966 31.9298 15.4833C32.3386 16.47 32.4455 17.5558 32.2371 18.6033C32.0288 19.6508 31.5145 20.613 30.7593 21.3682C30.0041 22.1234 29.0419 22.6377 27.9944 22.846C26.9469 23.0544 25.8611 22.9475 24.8744 22.5388C23.8877 22.13 23.0443 21.4379 22.451 20.5499C21.8576 19.6619 21.5409 18.6178 21.5409 17.5498C21.5409 16.1176 22.1098 14.7441 23.1225 13.7314C24.1352 12.7187 25.5087 12.1498 26.9409 12.1498ZM45.7761 43.0797C45.7926 43.2568 45.774 43.4354 45.7212 43.6053C45.6685 43.7751 45.5827 43.9329 45.4688 44.0695C45.3549 44.2061 45.2151 44.3189 45.0575 44.4013C44.8998 44.4837 44.7275 44.5342 44.5503 44.5498C44.5098 44.5498 44.4693 44.5498 44.4301 44.5498C44.092 44.5511 43.7656 44.4255 43.5156 44.1978C43.2657 43.97 43.1102 43.6568 43.0802 43.32C42.4038 35.683 35.3109 29.6998 26.9409 29.6998C18.5709 29.6998 11.478 35.683 10.7963 43.32C10.7644 43.6767 10.5921 44.0063 10.3173 44.236C10.0424 44.4658 9.68761 44.5769 9.33082 44.5451C8.97404 44.5132 8.64452 44.3409 8.41476 44.0661C8.18501 43.7913 8.07383 43.4364 8.1057 43.0797C8.913 34.0617 17.1858 26.9998 26.9409 26.9998C36.696 26.9998 44.9688 34.0617 45.7761 43.0797Z" fill="#008DD2" stroke="#FAFAFA" stroke-width="0.4"/>
</svg>
