<svg width="54" height="54" viewBox="0 0 54 54" fill="none" xmlns="http://www.w3.org/2000/svg">
<path d="M20.7027 36.8099V45.8999H13.5027C12.9627 45.8999 12.6027 46.2599 12.6027 46.7999C12.6027 47.3399 12.9627 47.6999 13.5027 47.6999H29.7027C30.2427 47.6999 30.6027 47.3399 30.6027 46.7999C30.6027 46.2599 30.2427 45.8999 29.7027 45.8999H22.5027V36.8099C30.2427 36.3599 36.3627 30.1499 36.8127 22.4999H39.0627L41.4927 26.5499C41.6727 26.8199 41.9427 26.9999 42.3027 26.9999C42.4827 26.9999 42.6627 26.9999 42.7527 26.9099C43.2027 26.6399 43.2927 26.0999 43.0227 25.6499L40.5927 21.6899L42.9327 18.5399C43.2027 18.1799 43.1127 17.5499 42.7527 17.2799C42.3927 17.0099 41.7627 17.0999 41.4927 17.4599L39.1527 20.6999H36.8127C36.3627 12.6899 29.7027 6.29993 21.6027 6.29993C13.1427 6.29993 6.30273 13.1399 6.30273 21.5999C6.30273 29.6999 12.6927 36.3599 20.7027 36.8099ZM21.6027 8.09993C28.7127 8.09993 34.5627 13.6799 35.0127 20.6999H30.5127C30.0627 16.1999 26.1927 12.5999 21.6027 12.5999C16.6527 12.5999 12.6027 16.6499 12.6027 21.5999C12.6027 26.5499 16.6527 30.5999 21.6027 30.5999C26.2827 30.5999 30.0627 26.9999 30.5127 22.4999H35.0127C34.5627 29.5199 28.7127 35.0999 21.6027 35.0999C14.1327 35.0999 8.10273 29.0699 8.10273 21.5999C8.10273 14.1299 14.1327 8.09993 21.6027 8.09993ZM21.6027 22.4999H28.7127C28.2627 26.0099 25.2027 28.7999 21.6027 28.7999C17.6427 28.7999 14.4027 25.5599 14.4027 21.5999C14.4027 17.6399 17.6427 14.3999 21.6027 14.3999C25.2927 14.3999 28.2627 17.1899 28.7127 20.6999H21.6027C21.0627 20.6999 20.7027 21.0599 20.7027 21.5999C20.7027 22.1399 21.0627 22.4999 21.6027 22.4999Z" fill="#008DD2"/>
<path d="M47.3442 17.2798C46.9842 17.0098 46.3542 17.0998 46.0842 17.4598L43.3842 21.0598C43.2042 21.3298 43.1142 21.7798 43.2942 22.0498L45.9942 26.5498C46.1742 26.8198 46.4442 26.9998 46.8042 26.9998C46.9842 26.9998 47.1642 26.9998 47.2542 26.9098C47.7042 26.6398 47.7942 26.0998 47.5242 25.6498L45.0942 21.6898L47.4342 18.5398C47.7942 18.1798 47.7042 17.5498 47.3442 17.2798Z" fill="#008DD2"/>
</svg>
