<svg width="55" height="55" viewBox="0 0 55 55" fill="none" xmlns="http://www.w3.org/2000/svg">
<path d="M27.5028 25.2244C27.7038 25.2246 27.8965 25.3046 28.0386 25.4467C28.1807 25.5888 28.2606 25.7815 28.2609 25.9824H29.7771C29.7756 25.5137 29.6291 25.0569 29.3576 24.6747C29.0861 24.2925 28.703 24.0038 28.2609 23.848V22.9501H26.7447V23.8479C26.2391 24.0256 25.8127 24.3767 25.5412 24.8388C25.2696 25.3009 25.1705 25.8442 25.2613 26.3724C25.3522 26.9006 25.6271 27.3796 26.0374 27.7245C26.4477 28.0693 26.9668 28.2577 27.5028 28.2564C27.6528 28.2563 27.7994 28.3007 27.9241 28.384C28.0488 28.4673 28.146 28.5857 28.2034 28.7242C28.2609 28.8627 28.276 29.0152 28.2468 29.1623C28.2176 29.3093 28.1454 29.4445 28.0394 29.5506C27.9335 29.6567 27.7984 29.7289 27.6513 29.7583C27.5043 29.7876 27.3518 29.7727 27.2132 29.7154C27.0747 29.6581 26.9562 29.561 26.8728 29.4364C26.7894 29.3117 26.7448 29.1652 26.7447 29.0152H25.2285C25.23 29.484 25.3766 29.9408 25.6481 30.3229C25.9196 30.705 26.3027 30.9937 26.7449 31.1494L26.7447 31.9654H28.2609L28.2611 31.1493C28.7667 30.9715 29.193 30.6204 29.4645 30.1582C29.736 29.6961 29.8351 29.1527 29.7443 28.6245C29.6534 28.0962 29.3785 27.6172 28.9682 27.2723C28.5579 26.9274 28.0388 26.7389 27.5028 26.7402C27.4031 26.7405 27.3043 26.7211 27.212 26.6832C27.1198 26.6452 27.036 26.5894 26.9653 26.519C26.8947 26.4486 26.8387 26.365 26.8004 26.2729C26.7622 26.1807 26.7425 26.082 26.7425 25.9823C26.7425 25.8825 26.7622 25.7838 26.8004 25.6917C26.8387 25.5996 26.8947 25.5159 26.9653 25.4455C27.036 25.3751 27.1198 25.3193 27.212 25.2814C27.3043 25.2434 27.4031 25.224 27.5028 25.2244Z" fill="#008DD2"/>
<path d="M35.086 29.0972H32.8118V19.1602C32.8118 18.9591 32.7319 18.7663 32.5897 18.6241C32.4475 18.482 32.2547 18.4021 32.0537 18.4021H22.9565C22.7555 18.4021 22.5627 18.482 22.4205 18.6241C22.2783 18.7663 22.1984 18.9591 22.1984 19.1602V29.0972H19.9242C19.777 29.0972 19.633 29.1401 19.5097 29.2205C19.3865 29.301 19.2893 29.4156 19.2301 29.5503C19.1709 29.685 19.1522 29.8341 19.1762 29.9793C19.2003 30.1245 19.2661 30.2596 19.3656 30.368L26.9465 38.6252C27.0176 38.7026 27.1039 38.7643 27.2 38.8066C27.2962 38.8488 27.4001 38.8706 27.5051 38.8706C27.6101 38.8706 27.714 38.8488 27.8102 38.8066C27.9063 38.7643 27.9926 38.7026 28.0637 38.6252L35.6446 30.368C35.7441 30.2596 35.8099 30.1245 35.834 29.9793C35.858 29.8341 35.8393 29.685 35.7801 29.5503C35.7209 29.4156 35.6237 29.301 35.5005 29.2205C35.3772 29.1401 35.2332 29.0972 35.086 29.0972ZM27.5051 36.9917L21.6495 30.6134H22.9565C23.1576 30.6134 23.3504 30.5335 23.4926 30.3914C23.6348 30.2492 23.7146 30.0564 23.7146 29.8553V19.9183H31.2956V29.8553C31.2956 30.0564 31.3754 30.2492 31.5176 30.3914C31.6598 30.5335 31.8526 30.6134 32.0537 30.6134H33.3607L27.5051 36.9917Z" fill="#008DD2"/>
<path d="M27.5001 11.5813C24.3514 11.5813 21.2734 12.515 18.6554 14.2643C16.0374 16.0136 13.9969 18.5 12.7919 21.409C11.587 24.318 11.2717 27.5189 11.886 30.6071C12.5003 33.6953 14.0165 36.532 16.2429 38.7584C18.4694 40.9848 21.3061 42.5011 24.3942 43.1154C27.4824 43.7296 30.6834 43.4144 33.5924 42.2094C36.5014 41.0045 38.9877 38.964 40.737 36.3459C42.4863 33.7279 43.42 30.65 43.42 27.5013C43.4153 23.2805 41.7365 19.2339 38.752 16.2494C35.7674 13.2648 31.7208 11.586 27.5001 11.5813ZM27.5001 41.9051C24.6513 41.9051 21.8664 41.0603 19.4977 39.4776C17.1291 37.8949 15.2829 35.6453 14.1927 33.0134C13.1025 30.3814 12.8173 27.4853 13.373 24.6912C13.9288 21.8972 15.3006 19.3307 17.315 17.3163C19.3295 15.3019 21.896 13.93 24.69 13.3743C27.4841 12.8185 30.3802 13.1037 33.0121 14.1939C35.6441 15.2841 37.8937 17.1303 39.4764 19.499C41.0591 21.8677 41.9038 24.6525 41.9038 27.5013C41.8995 31.3201 40.3806 34.9812 37.6803 37.6815C34.98 40.3818 31.3188 41.9007 27.5001 41.9051Z" fill="#008DD2"/>
<path d="M49.8129 22.3627H48.3363C48.0292 22.3532 47.7332 22.246 47.4912 22.0568C47.2493 21.8675 47.0739 21.606 46.9908 21.3103C46.6382 20.2038 46.1919 19.129 45.6567 18.0984C45.5058 17.8302 45.4445 17.5208 45.4818 17.2153C45.5191 16.9097 45.653 16.6241 45.864 16.4001L46.9141 15.3496C47.0385 15.2252 47.1158 15.0615 47.1327 14.8865C47.1497 14.7115 47.1052 14.536 47.007 14.3901C45.3087 11.8637 43.136 9.6911 40.6095 7.99295C40.4636 7.89475 40.2881 7.85032 40.1131 7.86727C39.9381 7.88422 39.7744 7.9615 39.65 8.08586L38.5995 9.13601C38.3754 9.34688 38.0898 9.48069 37.7843 9.51798C37.4789 9.55526 37.1695 9.49407 36.9012 9.3433C35.8706 8.80786 34.796 8.36154 33.6893 8.00922C33.3936 7.92603 33.1322 7.75069 32.943 7.50871C32.7538 7.26672 32.6467 6.9707 32.6373 6.66368V5.18711C32.6373 5.0113 32.5762 4.84094 32.4644 4.70521C32.3527 4.56949 32.1972 4.47682 32.0247 4.44308C29.0378 3.85231 25.9641 3.85231 22.9771 4.44308C22.8046 4.47682 22.6491 4.56949 22.5374 4.70521C22.4256 4.84094 22.3645 5.0113 22.3645 5.18711V6.66369C22.3551 6.97071 22.248 7.26673 22.0588 7.50871C21.8697 7.7507 21.6082 7.92603 21.3125 8.00922C20.2057 8.3616 19.1311 8.80791 18.1003 9.34329C17.832 9.49408 17.5226 9.55528 17.2171 9.518C16.9117 9.48071 16.6261 9.34688 16.4019 9.13599L15.3518 8.08586C15.2275 7.9615 15.0638 7.88422 14.8887 7.86727C14.7137 7.85032 14.5382 7.89475 14.3923 7.99295C11.8658 9.6911 9.69308 11.8637 7.99478 14.3901C7.89658 14.536 7.85215 14.7115 7.8691 14.8865C7.88605 15.0615 7.96332 15.2252 8.08769 15.3496L9.13784 16.4005C9.34886 16.6245 9.48279 16.9101 9.52008 17.2156C9.55737 17.5211 9.49607 17.8306 9.34513 18.0988C8.80978 19.1293 8.36348 20.2038 8.01108 21.3103C7.92789 21.606 7.75257 21.8675 7.51059 22.0568C7.26861 22.246 6.97258 22.3532 6.66553 22.3627H5.18896C5.01315 22.3627 4.84279 22.4238 4.70707 22.5355C4.57134 22.6473 4.47867 22.8027 4.44493 22.9753C3.85169 25.962 3.85169 29.0362 4.44493 32.0228C4.47867 32.1954 4.57134 32.3508 4.70707 32.4626C4.84279 32.5744 5.01315 32.6355 5.18896 32.6355H6.66554C6.97256 32.6449 7.26858 32.7519 7.51056 32.9411C7.75255 33.1303 7.92788 33.3918 8.01108 33.6875C8.36352 34.794 8.80983 35.8684 9.34514 36.899C9.49608 37.1673 9.55737 37.4769 9.52009 37.7825C9.4828 38.0881 9.34888 38.3738 9.13785 38.598L8.08771 39.6482C7.96335 39.7725 7.88607 39.9362 7.86912 40.1113C7.85217 40.2863 7.8966 40.4618 7.9948 40.6077C9.69295 43.1342 11.8655 45.3069 14.392 47.0052C14.5379 47.1032 14.7133 47.1475 14.8883 47.1306C15.0633 47.1137 15.227 47.0365 15.3514 46.9123L16.4023 45.8621C16.6263 45.6511 16.9119 45.5171 17.2174 45.4798C17.5229 45.4424 17.8324 45.5036 18.1006 45.6545C19.1312 46.1902 20.2057 46.6366 21.3125 46.9889C21.6082 47.0721 21.8697 47.2474 22.0589 47.4894C22.248 47.7314 22.3551 48.0274 22.3645 48.3345V49.811C22.3645 49.9869 22.4256 50.1572 22.5374 50.2929C22.6491 50.4287 22.8046 50.5213 22.9771 50.5551C25.9638 51.1483 29.038 51.1483 32.0247 50.5551C32.1972 50.5213 32.3527 50.4287 32.4644 50.2929C32.5762 50.1572 32.6373 49.9869 32.6373 49.811V48.3344C32.6467 48.0274 32.7538 47.7314 32.943 47.4894C33.1322 47.2474 33.3936 47.0721 33.6893 46.9889C34.7961 46.6366 35.8706 46.1902 36.9012 45.6545C37.1696 45.5037 37.479 45.4425 37.7846 45.4799C38.0901 45.5172 38.3758 45.6511 38.5999 45.8621L39.6504 46.9123C39.7748 47.0365 39.9385 47.1136 40.1135 47.1306C40.2885 47.1475 40.4639 47.1032 40.6099 47.0052C43.1364 45.307 45.309 43.1342 47.007 40.6076C47.1052 40.4617 47.1497 40.2863 47.1327 40.1112C47.1158 39.9362 47.0385 39.7725 46.9141 39.6482L45.864 38.5976C45.6529 38.3735 45.519 38.0879 45.4817 37.7823C45.4444 37.4767 45.5057 37.1672 45.6567 36.899C46.192 35.8684 46.6383 34.794 46.9908 33.6875C47.074 33.3918 47.2493 33.1303 47.4913 32.9411C47.7333 32.7519 48.0293 32.6449 48.3363 32.6355H49.8129C49.9887 32.6355 50.159 32.5744 50.2948 32.4626C50.4305 32.3508 50.5232 32.1954 50.5569 32.0228C51.1502 29.0362 51.1502 25.962 50.5569 22.9753C50.5232 22.8027 50.4305 22.6473 50.2948 22.5355C50.159 22.4238 49.9887 22.3627 49.8129 22.3627ZM49.1799 31.1193H48.3363C47.7071 31.1276 47.097 31.3368 46.595 31.7162C46.093 32.0956 45.7254 32.6254 45.5456 33.2285C45.2198 34.2524 44.8069 35.2466 44.3115 36.2001C44.0107 36.754 43.8951 37.3897 43.9816 38.014C44.068 38.6384 44.352 39.2187 44.792 39.67L45.3942 40.2727C43.9827 42.2507 42.2526 43.9808 40.2745 45.3924L39.6723 44.7901C39.2208 44.3502 38.6406 44.0663 38.0163 43.9798C37.392 43.8933 36.7564 44.0087 36.2023 44.3093C35.2487 44.8048 34.2544 45.2178 33.2303 45.5438C32.6273 45.7235 32.0975 46.0912 31.7181 46.5932C31.3387 47.0952 31.1295 47.7052 31.1211 48.3344V49.178C28.7247 49.5837 26.2771 49.5837 23.8807 49.178V48.3344C23.8723 47.7053 23.6631 47.0952 23.2837 46.5932C22.9043 46.0913 22.3745 45.7236 21.7715 45.5438C20.7475 45.2178 19.7532 44.8048 18.7995 44.3093C18.2456 44.0088 17.61 43.8933 16.9858 43.9798C16.3615 44.0664 15.7813 44.3503 15.33 44.7901L14.7273 45.3924C12.7494 43.9806 11.0194 42.2506 9.60762 40.2727L10.2099 39.6704C10.6498 39.219 10.9338 38.6386 11.0203 38.0142C11.1068 37.3899 10.9913 36.7542 10.6907 36.2001C10.1951 35.2467 9.78205 34.2525 9.45623 33.2285C9.27648 32.6254 8.90881 32.0956 8.40682 31.7162C7.90482 31.3368 7.29475 31.1276 6.66556 31.1193H5.82194C5.41427 28.723 5.41427 26.2751 5.82194 23.8789H6.66554C7.29472 23.8704 7.90476 23.6613 8.40674 23.2819C8.90873 22.9025 9.27641 22.3727 9.45621 21.7697C9.78211 20.7458 10.195 19.7516 10.6903 18.798C10.9912 18.2441 11.1068 17.6085 11.0204 16.9841C10.9339 16.3597 10.6499 15.7794 10.2099 15.3281L9.60762 14.7255C11.0194 12.7476 12.7494 11.0175 14.7273 9.60577L15.3296 10.208C15.781 10.6479 16.3613 10.9318 16.9856 11.0183C17.6099 11.1048 18.2455 10.9894 18.7995 10.6889C19.7532 10.1934 20.7475 9.78038 21.7715 9.45438C22.3745 9.27458 22.9043 8.9069 23.2837 8.40491C23.6631 7.90293 23.8723 7.29289 23.8807 6.66371V5.82009C26.2771 5.41439 28.7247 5.41439 31.1211 5.82009V6.66369C31.1295 7.29287 31.3387 7.90291 31.7181 8.40489C32.0975 8.90688 32.6273 9.27456 33.2303 9.45436C34.2542 9.78033 35.2484 10.1932 36.202 10.6885C36.7559 10.9891 37.3915 11.1047 38.0159 11.0182C38.6402 10.9318 39.2205 10.6479 39.6719 10.208L40.2745 9.60575C42.2524 11.0175 43.9825 12.7476 45.3942 14.7255L44.792 15.3277C44.352 15.7791 44.068 16.3593 43.9814 16.9837C43.8949 17.608 44.0104 18.2437 44.3111 18.7976C44.8067 19.7513 45.2197 20.7456 45.5456 21.7697C45.7254 22.3727 46.0931 22.9025 46.5951 23.2819C47.097 23.6613 47.7071 23.8704 48.3363 23.8789H49.1799C49.5875 26.2751 49.5875 28.723 49.1799 31.1193Z" fill="#008DD2"/>
</svg>
