<svg width="54" height="54" viewBox="0 0 54 54" fill="none" xmlns="http://www.w3.org/2000/svg">
<path d="M16.1609 20.9708H11.3009C11.0244 20.9708 10.7998 21.1954 10.7998 21.4719V46.6316C10.7998 46.9081 11.0244 47.1327 11.3009 47.1327H16.1652C16.4417 47.1327 16.6664 46.9081 16.6664 46.6316V21.4719C16.662 21.1954 16.4417 20.9708 16.1609 20.9708ZM15.6641 46.1305H11.802V21.973H15.6641V46.1305ZM25.0428 25.7271H20.1785C19.902 25.7271 19.6774 25.9517 19.6774 26.2282V46.6316C19.6774 46.9081 19.902 47.1327 20.1785 47.1327H25.0428C25.3193 47.1327 25.544 46.9081 25.544 46.6316V26.2282C25.544 25.9517 25.3193 25.7271 25.0428 25.7271ZM24.5417 46.1305H20.6796V26.7293H24.5417V46.1305ZM33.9248 30.4834H29.0604C28.784 30.4834 28.5593 30.7081 28.5593 30.9845V46.6316C28.5593 46.9081 28.784 47.1327 29.0604 47.1327H33.9248C34.2012 47.1327 34.4259 46.9081 34.4259 46.6316V30.9845C34.4259 30.7081 34.2012 30.4834 33.9248 30.4834ZM33.4236 46.1305H29.5616V31.4857H33.4236V46.1305ZM42.8067 34.8207H37.9424C37.6659 34.8207 37.4412 35.0453 37.4412 35.3218V46.6359C37.4412 46.9124 37.6659 47.137 37.9424 47.137H42.8067C43.0832 47.137 43.3078 46.9124 43.3078 46.6359V35.3218C43.3035 35.0453 43.0832 34.8207 42.8067 34.8207ZM42.3056 46.1305H38.4435V35.8229H42.3056V46.1305ZM41.1305 27.0447L38.612 27.7186C38.3441 27.7921 38.1843 28.0642 38.2577 28.3321C38.3182 28.5567 38.5212 28.7036 38.7416 28.7036C38.7848 28.7036 38.828 28.6993 38.8712 28.6863L42.9579 27.5933C43.2257 27.5199 43.3856 27.2477 43.3121 26.9799L42.2192 22.8932C42.1457 22.6253 41.8736 22.4698 41.6057 22.5389C41.3379 22.6124 41.178 22.8845 41.2515 23.1524L42.1025 26.3276C38.923 25.2044 35.6528 23.6924 32.5726 21.9169C33.3804 20.8282 33.86 19.4847 33.86 18.0289C33.86 14.4303 30.931 11.5013 27.3324 11.5013C25.1897 11.5013 23.2803 12.5425 22.0923 14.1452C19.686 11.821 17.8198 9.47526 16.554 7.1727C16.4201 6.93078 16.1177 6.84006 15.8758 6.97398C15.6339 7.1079 15.5432 7.4103 15.6771 7.65222C17.0163 10.0887 18.9948 12.5641 21.5523 15.0135C21.0814 15.9164 20.8092 16.9445 20.8092 18.0289C20.8092 21.6274 23.7382 24.5564 27.3368 24.5564C29.1123 24.5564 30.7236 23.8436 31.903 22.6858C34.9184 24.4441 38.0158 25.9042 41.1305 27.0447ZM27.3368 23.5585C24.2912 23.5585 21.8115 21.0788 21.8115 18.0332C21.8115 14.9876 24.2912 12.5079 27.3368 12.5079C30.3824 12.5079 32.862 14.9876 32.862 18.0332C32.862 21.0788 30.3824 23.5585 27.3368 23.5585ZM26.1531 16.5557C26.1531 16.9273 26.4987 17.1173 27.2892 17.4629C27.3713 17.5018 27.4577 17.5364 27.5441 17.5753C27.6262 17.6141 27.7083 17.6487 27.7904 17.6833C28.6025 18.0418 29.5227 18.4479 29.5227 19.5063C29.5227 20.4394 28.8012 21.2257 27.8379 21.433V22.4914C27.8379 22.7679 27.6132 22.9925 27.3368 22.9925C27.0603 22.9925 26.8356 22.7679 26.8356 22.4914V21.433C25.8723 21.2257 25.1508 20.4437 25.1508 19.5063C25.1508 19.2298 25.3755 19.0052 25.652 19.0052C25.9284 19.0052 26.1531 19.2298 26.1531 19.5063C26.1531 20.0463 26.6844 20.4826 27.3368 20.4826C27.9891 20.4826 28.5204 20.0463 28.5204 19.5063C28.5204 19.1348 28.1748 18.9447 27.3843 18.5991C27.3022 18.5602 27.2158 18.5257 27.1294 18.4868C27.0473 18.4479 26.9652 18.4133 26.8832 18.3788C26.071 18.0202 25.1508 17.6141 25.1508 16.5557C25.1508 15.6226 25.8723 14.8364 26.8356 14.629V13.5706C26.8356 13.2941 27.0603 13.0695 27.3368 13.0695C27.6132 13.0695 27.8379 13.2941 27.8379 13.5706V14.629C28.8012 14.8364 29.5227 15.6183 29.5227 16.5557C29.5227 16.8322 29.298 17.0569 29.0216 17.0569C28.7451 17.0569 28.5204 16.8322 28.5204 16.5557C28.5204 16.0157 27.9891 15.5794 27.3368 15.5794C26.6844 15.5794 26.1531 16.0157 26.1531 16.5557Z" fill="#008DD2"/>
</svg>
