<svg width="70" height="70" viewBox="0 0 70 70" fill="none" xmlns="http://www.w3.org/2000/svg">
<rect x="3.05176e-05" width="70" height="70" rx="5" fill="#008DD2"/>
<path d="M44.2232 28.8512C43.9928 28.64 43.9784 28.2848 44.1896 28.0592C44.4008 27.8288 44.756 27.8144 44.9816 28.0256C47.4152 30.2576 49.076 33.2672 49.652 36.5024C49.7048 36.8096 49.5032 37.0976 49.196 37.1552C49.1672 37.1552 49.1336 37.16 49.1 37.16C48.8312 37.16 48.596 36.968 48.548 36.6944C48.0152 33.704 46.4792 30.9152 44.2232 28.8512ZM40.1048 52.1216C38.4104 52.8224 36.6104 53.1776 34.7624 53.1776C32.9144 53.1776 31.1144 52.8224 29.42 52.1216C29.132 52.0016 28.8056 52.1408 28.6856 52.424C28.5656 52.712 28.7048 53.0384 28.988 53.1584C30.8216 53.9168 32.7656 54.3008 34.7624 54.3008C36.7592 54.3008 38.7032 53.9168 40.5368 53.1584C40.8248 53.0384 40.9592 52.712 40.8392 52.424C40.724 52.1408 40.3928 52.0016 40.1048 52.1216ZM20.324 37.1504C20.3576 37.1552 20.3912 37.16 20.4248 37.16C20.6936 37.16 20.9288 36.968 20.9768 36.6944C21.5096 33.6992 23.0456 30.9152 25.3016 28.8464C25.532 28.6352 25.5464 28.28 25.3352 28.0544C25.124 27.824 24.7688 27.8096 24.5432 28.0208C22.1096 30.2528 20.4488 33.2624 19.8728 36.4976C19.8152 36.8048 20.0216 37.0976 20.324 37.1504ZM25.22 49.5056C26.7128 50.936 27.5864 52.8512 27.6776 54.9008C27.716 55.7072 27.284 56.4224 26.5496 56.7632C24.3896 57.7712 22.0856 58.28 19.7 58.28C17.3144 58.28 15.0104 57.7712 12.8504 56.7632C12.116 56.4224 11.684 55.7072 11.7224 54.9008C11.8136 52.8512 12.6872 50.936 14.18 49.5056C15.6776 48.0704 17.636 47.2784 19.7 47.2784C21.764 47.2784 23.7224 48.0704 25.22 49.5056ZM26.5544 54.9536C26.3864 51.2816 23.3768 48.4064 19.7 48.4064C16.0232 48.4064 13.0136 51.2816 12.8456 54.9536C12.8312 55.304 13.0088 55.5968 13.3256 55.7456C15.3368 56.6816 17.4824 57.1568 19.7 57.1568C21.9176 57.1568 24.0632 56.6816 26.0744 55.7456C26.3912 55.5968 26.5736 55.2992 26.5544 54.9536ZM15.5336 42.5984C15.5336 40.2992 17.4056 38.4272 19.7048 38.4272C22.004 38.4272 23.876 40.2992 23.876 42.5984C23.876 44.8976 22.004 46.7696 19.7048 46.7696C17.4008 46.7648 15.5336 44.8928 15.5336 42.5984ZM16.6568 42.5984C16.6568 44.2784 18.0248 45.6416 19.7 45.6416C21.3752 45.6416 22.7432 44.2736 22.7432 42.5984C22.7432 40.9184 21.3752 39.5552 19.7 39.5552C18.0248 39.5552 16.6568 40.9184 16.6568 42.5984ZM57.8024 54.9008C57.8408 55.7072 57.4088 56.4224 56.6744 56.7632C54.5144 57.7712 52.2104 58.28 49.8248 58.28C47.4392 58.28 45.1352 57.7712 42.9752 56.7632C42.2408 56.4224 41.8088 55.7072 41.8472 54.9008C41.9384 52.8512 42.812 50.936 44.3048 49.5056C45.8024 48.0704 47.7608 47.2784 49.8248 47.2784C51.8888 47.2784 53.8472 48.0704 55.3448 49.5056C56.8328 50.936 57.7064 52.8512 57.8024 54.9008ZM56.6792 54.9536C56.5112 51.2816 53.5016 48.4064 49.8248 48.4064C46.148 48.4064 43.1336 51.2816 42.9704 54.9536C42.956 55.304 43.1336 55.5968 43.4504 55.7456C45.4616 56.6816 47.6072 57.1568 49.8248 57.1568C52.0424 57.1568 54.188 56.6816 56.1992 55.7456C56.516 55.5968 56.6936 55.2992 56.6792 54.9536ZM49.8248 38.4272C52.124 38.4272 53.996 40.2992 53.996 42.5984C53.996 44.8976 52.124 46.7696 49.8248 46.7696C47.5256 46.7696 45.6536 44.8976 45.6536 42.5984C45.6536 40.2992 47.5256 38.4272 49.8248 38.4272ZM46.7768 42.5984C46.7768 44.2784 48.1448 45.6416 49.82 45.6416C51.4952 45.6416 52.8632 44.2736 52.8632 42.5984C52.8632 40.9184 51.4952 39.5552 49.82 39.5552C48.1448 39.5552 46.7768 40.9184 46.7768 42.5984ZM26.7848 28.6736C26.876 26.624 27.7496 24.7088 29.2424 23.2784C30.74 21.8432 32.6984 21.0512 34.7624 21.0512C36.8264 21.0512 38.7848 21.8432 40.2824 23.2784C41.7752 24.7088 42.6488 26.624 42.74 28.6736C42.7784 29.48 42.3464 30.1952 41.612 30.536C39.452 31.544 37.148 32.0528 34.7624 32.0528C32.3768 32.0528 30.0728 31.544 27.9128 30.536C27.1832 30.1952 26.7464 29.48 26.7848 28.6736ZM27.908 28.7264C27.8936 29.0768 28.0712 29.3696 28.388 29.5184C30.3992 30.4544 32.5448 30.9296 34.7624 30.9296C36.98 30.9296 39.1256 30.4544 41.1368 29.5184C41.4536 29.3696 41.6312 29.0768 41.6168 28.7264C41.4488 25.0544 38.4392 22.1744 34.7624 22.1744C31.0856 22.1744 28.076 25.0544 27.908 28.7264ZM30.5912 16.3712C30.5912 14.072 32.4632 12.2 34.7624 12.2C37.0616 12.2 38.9336 14.072 38.9336 16.3712C38.9336 18.6704 37.0616 20.5424 34.7624 20.5424C32.4632 20.5376 30.5912 18.6656 30.5912 16.3712ZM31.7192 16.3712C31.7192 18.0512 33.0872 19.4144 34.7624 19.4144C36.4424 19.4144 37.8056 18.0464 37.8056 16.3712C37.8056 14.6912 36.4376 13.328 34.7624 13.328C33.0824 13.3232 31.7192 14.6912 31.7192 16.3712ZM41.8376 47.2832C41.7656 47.312 41.6936 47.3264 41.6168 47.3264C41.4728 47.3264 41.3336 47.2736 41.228 47.168L38.8616 44.8736H33.98C32.684 44.8736 31.5944 43.9904 31.268 42.8H30.6632L28.2968 45.0944C28.1912 45.2 28.0472 45.2528 27.908 45.2528C27.836 45.2528 27.7592 45.2384 27.6872 45.2096C27.4808 45.1232 27.3464 44.9168 27.3464 44.6912V42.8048H27.3224C25.772 42.8048 24.5096 41.5424 24.5096 39.992V36.4592C24.5096 34.9088 25.772 33.6464 27.3224 33.6464H35.5448C36.8264 33.6464 37.9304 34.5248 38.2568 35.72H42.2024C43.7528 35.72 45.0152 36.9824 45.0152 38.5328V42.0656C45.0152 43.616 43.7528 44.8784 42.2024 44.8784H42.1784V46.7696C42.1784 46.9904 42.044 47.1968 41.8376 47.2832ZM33.98 35.72H37.0616C36.7832 35.1584 36.2024 34.7696 35.5448 34.7696H27.3224C26.3912 34.7696 25.6328 35.528 25.6328 36.4592V39.992C25.6328 40.9232 26.3912 41.6816 27.3224 41.6816H27.908C28.22 41.6816 28.4696 41.9312 28.4696 42.2432V43.3664L30.0488 41.84C30.1544 41.7392 30.2936 41.6816 30.4376 41.6816H31.1672V38.5328C31.1672 36.9776 32.4296 35.72 33.98 35.72ZM42.2024 43.7504C43.1336 43.7504 43.892 42.992 43.892 42.0608V38.528C43.892 37.5968 43.1336 36.8384 42.2024 36.8384H33.98C33.0488 36.8384 32.2904 37.5968 32.2904 38.528V42.0608C32.2904 42.992 33.0488 43.7504 33.98 43.7504H39.0872C39.2312 43.7504 39.3752 43.808 39.476 43.9088L41.0552 45.4352V44.312C41.0552 44 41.3048 43.7504 41.6168 43.7504H42.2024ZM41.636 38.3984H34.5416C34.2296 38.3984 33.98 38.648 33.98 38.96C33.98 39.272 34.2296 39.5216 34.5416 39.5216H41.636C41.948 39.5216 42.1976 39.272 42.1976 38.96C42.1976 38.648 41.948 38.3984 41.636 38.3984ZM41.636 41.072H34.5416C34.2296 41.072 33.98 41.3216 33.98 41.6336C33.98 41.9456 34.2296 42.1952 34.5416 42.1952H41.636C41.948 42.1952 42.1976 41.9456 42.1976 41.6336C42.1976 41.3216 41.948 41.072 41.636 41.072Z" fill="white"/>
</svg>
