<svg width="54" height="54" viewBox="0 0 54 54" fill="none" xmlns="http://www.w3.org/2000/svg">
<path d="M46.7395 15.5992L44.7617 15.1065C44.6402 14.7555 44.4985 14.4045 44.3297 14.067L45.376 12.3187C45.538 12.0555 45.4907 11.7112 45.2747 11.4952L42.5005 8.721C42.2845 8.505 41.9402 8.45775 41.677 8.61975L39.9287 9.67275C39.5912 9.504 39.2402 9.36225 38.8892 9.24075L38.3965 7.263C38.3222 6.966 38.0522 6.75 37.7417 6.75H33.8132C33.5027 6.75 33.2327 6.95925 33.1585 7.263L32.6657 9.24075C32.3147 9.36225 31.9637 9.504 31.6262 9.67275L29.878 8.61975C29.6147 8.45775 29.2705 8.505 29.0545 8.721L26.2802 11.4952C26.0642 11.7112 26.017 12.0555 26.179 12.3187L27.2252 14.067C27.1712 14.1818 27.1172 14.2965 27.07 14.418C26.9282 14.7622 27.097 15.1605 27.4412 15.2955C27.7855 15.4373 28.1837 15.2685 28.3187 14.9242C28.3997 14.7285 28.4942 14.5395 28.5955 14.364C28.7102 14.1547 28.7035 13.905 28.582 13.6958L27.61 12.0757L29.6417 10.044L31.2617 11.016C31.4642 11.1375 31.7207 11.1443 31.93 11.0295C32.4092 10.7663 32.9155 10.557 33.4285 10.4085C33.658 10.341 33.8335 10.1587 33.8942 9.9225L34.3532 8.09325H37.2287L37.6877 9.9225C37.7485 10.152 37.924 10.3343 38.1535 10.4085C38.6665 10.5638 39.1727 10.773 39.652 11.0295C39.8612 11.1443 40.1177 11.1375 40.3202 11.016L41.9402 10.044L43.972 12.0757L43 13.6958C42.8785 13.8983 42.8717 14.1547 42.9865 14.364C43.2497 14.8433 43.459 15.3495 43.6075 15.8625C43.675 16.092 43.8572 16.2675 44.0935 16.3283L45.9227 16.7872V19.6627L44.0935 20.1217C43.864 20.1825 43.6817 20.358 43.6075 20.5875C43.4522 21.1005 43.243 21.6067 42.9865 22.086C42.8717 22.2952 42.8785 22.5517 43 22.7542L43.972 24.3743L41.9402 26.406L40.3202 25.434C40.1177 25.3125 39.8612 25.3057 39.652 25.4205C39.1727 25.6838 38.6665 25.893 38.1535 26.0415C37.924 26.109 37.7485 26.2913 37.6877 26.5275L37.2287 28.3568H34.3532L33.8942 26.5275C33.8335 26.298 33.6647 26.1158 33.4352 26.0483C32.902 25.8862 32.4025 25.6838 31.9502 25.434C31.6262 25.2585 31.2145 25.3733 31.0322 25.704C30.85 26.028 30.9715 26.4398 31.3022 26.622C31.7275 26.8583 32.1865 27.0608 32.6792 27.2227L33.172 29.2005C33.2462 29.4975 33.5162 29.7135 33.8267 29.7135H37.7552C38.0657 29.7135 38.3357 29.5043 38.41 29.2005L38.9027 27.2227C39.2537 27.1012 39.6047 26.9595 39.9422 26.7908L41.6905 27.8438C41.9537 28.0057 42.298 27.9585 42.514 27.7425L45.2882 24.9683C45.5042 24.7523 45.5515 24.408 45.3895 24.1448L44.3432 22.3965C44.5052 22.059 44.6537 21.708 44.7752 21.357L46.753 20.8643C47.05 20.79 47.266 20.52 47.266 20.2095V16.281C47.266 15.9705 47.0567 15.7005 46.753 15.6263L46.7395 15.5992Z" fill="#008DD2"/>
<path d="M35.7776 22.9434C38.3831 22.9434 40.5026 20.8239 40.5026 18.2184C40.5026 15.6129 38.3831 13.4934 35.7776 13.4934C33.1721 13.4934 31.0526 15.6129 31.0526 18.2184C31.0526 20.8239 33.1721 22.9434 35.7776 22.9434ZM35.7776 14.8434C37.6406 14.8434 39.1526 16.3554 39.1526 18.2184C39.1526 20.0814 37.6406 21.5934 35.7776 21.5934C33.9146 21.5934 32.4026 20.0814 32.4026 18.2184C32.4026 16.3554 33.9146 14.8434 35.7776 14.8434Z" fill="#008DD2"/>
<path d="M17.6742 12.8318C11.8624 13.1018 7.07669 17.8673 6.76619 23.6723C6.58394 27.1283 7.94744 30.4493 10.5124 32.778C11.4169 33.6015 11.9839 34.7153 12.1189 35.9033C11.3494 36.1935 10.8027 36.9293 10.8027 37.7933C10.8027 38.907 11.7139 39.8183 12.8277 39.8183V41.8433C12.8277 42.957 13.7389 43.8683 14.8527 43.8683C14.8527 45.7313 16.3647 47.2433 18.2277 47.2433C20.0907 47.2433 21.6027 45.7313 21.6027 43.8683C22.7164 43.8683 23.6277 42.957 23.6277 41.8433V39.8183C24.7414 39.8183 25.6527 38.907 25.6527 37.7933C25.6527 36.9225 25.0992 36.1868 24.3297 35.9033C24.4579 34.7085 25.0047 33.615 25.8687 32.8388C28.3054 30.6653 29.6959 27.5535 29.6959 24.2933C29.6959 21.033 28.4337 18.1778 26.1387 15.9908C23.8504 13.8038 20.8332 12.6833 17.6674 12.8318H17.6742ZM18.2277 45.8933C17.1139 45.8933 16.2027 44.982 16.2027 43.8683H20.2527C20.2527 44.982 19.3414 45.8933 18.2277 45.8933ZM22.2777 41.8433C22.2777 42.2145 21.9739 42.5183 21.6027 42.5183H14.8527C14.4814 42.5183 14.1777 42.2145 14.1777 41.8433V39.8183H22.2777V41.8433ZM23.6277 38.4683H12.8277C12.4564 38.4683 12.1527 38.1645 12.1527 37.7933C12.1527 37.422 12.4564 37.1183 12.8277 37.1183H23.6277C23.9989 37.1183 24.3027 37.422 24.3027 37.7933C24.3027 38.1645 23.9989 38.4683 23.6277 38.4683ZM24.9709 31.8263C23.8504 32.8253 23.1484 34.236 22.9864 35.7683H21.6027V28.3433H22.3992C22.6759 29.1263 23.4184 29.6933 24.3027 29.6933C25.4164 29.6933 26.3277 28.7821 26.3277 27.6683C26.3277 26.5546 25.4164 25.6433 24.3027 25.6433C23.4252 25.6433 22.6827 26.2103 22.3992 26.9933H20.9277C20.5564 26.9933 20.2527 27.297 20.2527 27.6683V35.7683H18.9027V21.4718C19.6857 21.195 20.2527 20.4525 20.2527 19.5683C20.2527 18.4545 19.3414 17.5433 18.2277 17.5433C17.1139 17.5433 16.2027 18.4545 16.2027 19.5683C16.2027 20.4458 16.7697 21.1883 17.5527 21.4718V35.7683H16.2027V24.2933C16.2027 23.922 15.8989 23.6183 15.5277 23.6183H14.0562C13.7794 22.8353 13.0369 22.2683 12.1527 22.2683C11.0389 22.2683 10.1277 23.1795 10.1277 24.2933C10.1277 25.407 11.0389 26.3183 12.1527 26.3183C13.0302 26.3183 13.7727 25.7513 14.0562 24.9683H14.8527V35.7683H13.4689C13.3002 34.2495 12.5779 32.8253 11.4237 31.7791C9.16244 29.7271 7.95419 26.7976 8.11619 23.7465C8.38619 18.6233 12.6117 14.4248 17.7349 14.1818C20.5362 14.0535 23.1889 15.039 25.2139 16.9695C27.2389 18.9 28.3527 21.4988 28.3527 24.2933C28.3527 27.0878 27.1242 29.9093 24.9709 31.8263ZM23.6277 27.6683C23.6277 27.297 23.9314 26.9933 24.3027 26.9933C24.6739 26.9933 24.9777 27.297 24.9777 27.6683C24.9777 28.0395 24.6739 28.3433 24.3027 28.3433C23.9314 28.3433 23.6277 28.0395 23.6277 27.6683ZM18.2277 20.2433C17.8564 20.2433 17.5527 19.9395 17.5527 19.5683C17.5527 19.197 17.8564 18.8933 18.2277 18.8933C18.5989 18.8933 18.9027 19.197 18.9027 19.5683C18.9027 19.9395 18.5989 20.2433 18.2277 20.2433ZM12.8277 24.2933C12.8277 24.6645 12.5239 24.9683 12.1527 24.9683C11.7814 24.9683 11.4777 24.6645 11.4777 24.2933C11.4777 23.922 11.7814 23.6183 12.1527 23.6183C12.5239 23.6183 12.8277 23.922 12.8277 24.2933Z" fill="#008DD2"/>
</svg>
