<svg width="54" height="54" viewBox="0 0 54 54" fill="none" xmlns="http://www.w3.org/2000/svg">
<path fill-rule="evenodd" clip-rule="evenodd" d="M23.3193 36.1023C21.9715 34.8883 20.291 34.141 18.5112 33.9379C20.5805 33.0739 22.0363 31.0349 22.0363 28.6589C22.0363 25.5053 19.4702 22.9392 16.3166 22.9392C13.163 22.9392 10.5969 25.5053 10.5969 28.6589C10.5969 31.0349 12.0528 33.0782 14.1221 33.9379C12.3422 34.1366 10.6617 34.8883 9.3139 36.1023C7.7371 37.5235 6.73918 39.4546 6.5059 41.5454C6.38062 42.6773 6.71326 43.7227 7.46926 44.5694C8.22958 45.4162 9.23182 45.8654 10.368 45.8654H22.2653C23.4014 45.8654 24.408 45.4162 25.164 44.5694C25.9243 43.7227 26.2569 42.673 26.1273 41.5454C25.8941 39.4546 24.8961 37.5235 23.3193 36.1023ZM11.5992 28.6589C11.5992 26.0582 13.716 23.9414 16.3166 23.9414C18.9173 23.9414 21.0341 26.0582 21.0341 28.6589C21.0341 31.2595 18.9173 33.3763 16.3166 33.3763C13.716 33.3763 11.5992 31.2595 11.5992 28.6589ZM24.4166 43.9085C23.8464 44.5478 23.1206 44.8718 22.2609 44.8718H10.368C9.5083 44.8718 8.78686 44.5478 8.2123 43.9085C7.64206 43.2691 7.40014 42.5131 7.49518 41.6621C7.9315 37.8 11.1888 34.884 15.0811 34.884H17.5478C21.4358 34.884 24.6974 37.7957 25.1337 41.6621C25.2288 42.5131 24.9869 43.2691 24.4166 43.9085ZM8.7523 17.4226H13.6339L17.2757 19.8115C17.4744 19.9411 17.6947 20.0059 17.9193 20.0059C18.1094 20.0059 18.2995 19.9584 18.4809 19.8634C18.8654 19.656 19.0987 19.2672 19.0987 18.8309V17.4139C20.2435 17.2973 21.1377 16.3296 21.1377 15.1546V10.4803C21.1377 9.22753 20.1182 8.20801 18.8654 8.20801H8.7523C7.4995 8.20801 6.47998 9.22753 6.47998 10.4803V15.1502C6.47998 16.403 7.4995 17.4226 8.7523 17.4226ZM7.4779 10.4803C7.4779 9.78049 8.04814 9.20593 8.7523 9.20593H18.8611C19.5609 9.20593 20.1355 9.77617 20.1355 10.4803V15.1502C20.1355 15.8501 19.5653 16.4246 18.8611 16.4246H18.5933C18.3168 16.4246 18.0921 16.6493 18.0921 16.9258V18.8309C18.0921 18.9 18.0619 18.9518 18.0014 18.9821C17.9409 19.0166 17.8805 19.0123 17.8243 18.9734L14.0573 16.5024C13.9752 16.4506 13.8801 16.4203 13.7851 16.4203H8.7523C8.05246 16.4203 7.4779 15.8501 7.4779 15.1459V10.4803ZM16.5629 13.1501C16.4592 13.0464 16.3987 12.9082 16.3987 12.7526C16.3987 12.5971 16.4635 12.4589 16.5629 12.3552C16.6665 12.2515 16.8048 12.191 16.9603 12.191C17.1158 12.191 17.2541 12.2558 17.3577 12.3552C17.4614 12.4589 17.5219 12.5971 17.5219 12.7526C17.5219 12.9082 17.4571 13.0464 17.3577 13.1501C17.2541 13.2538 17.1158 13.3142 16.9603 13.3142C16.8048 13.3142 16.6622 13.2494 16.5629 13.1501ZM13.4093 13.1501C13.3056 13.0464 13.2451 12.9082 13.2451 12.7526C13.2451 12.5971 13.3099 12.4589 13.4093 12.3552C13.5129 12.2515 13.6512 12.191 13.8067 12.191C13.9622 12.191 14.1005 12.2558 14.2041 12.3552C14.3078 12.4589 14.3683 12.5971 14.3683 12.7526C14.3683 12.9082 14.3035 13.0464 14.2041 13.1501C14.1005 13.2538 13.9622 13.3142 13.8067 13.3142C13.6512 13.3142 13.5086 13.2494 13.4093 13.1501ZM10.2513 13.1501C10.1477 13.0464 10.0872 12.9082 10.0872 12.7526C10.0872 12.5971 10.152 12.4589 10.2513 12.3552C10.355 12.2515 10.4933 12.191 10.6488 12.191C10.8043 12.191 10.9425 12.2558 11.0462 12.3552C11.1499 12.4589 11.2104 12.5971 11.2104 12.7526C11.2104 12.9082 11.1456 13.0464 11.0462 13.1501C10.9425 13.2538 10.8043 13.3142 10.6488 13.3142C10.4976 13.3142 10.355 13.2494 10.2513 13.1501ZM44.6342 36.1023C43.2864 34.8883 41.6059 34.141 39.8261 33.9379C41.8953 33.0739 43.3512 31.0349 43.3512 28.6589C43.3512 25.5053 40.7851 22.9392 37.6315 22.9392C34.4779 22.9392 31.9118 25.5053 31.9118 28.6589C31.9118 31.0349 33.3677 33.0782 35.4369 33.9379C33.6571 34.1366 31.9766 34.8883 30.6288 36.1023C29.052 37.5235 28.0541 39.4546 27.8208 41.5454C27.6955 42.6773 28.0281 43.7227 28.7841 44.5694C29.5445 45.4162 30.5467 45.8654 31.6829 45.8654H43.5758C44.712 45.8654 45.7185 45.4162 46.4745 44.5694C47.2349 43.7227 47.5675 42.673 47.4379 41.5454C47.2089 39.4546 46.211 37.5235 44.6342 36.1023ZM32.9141 28.6589C32.9141 26.0582 35.0309 23.9414 37.6315 23.9414C40.2321 23.9414 42.3489 26.0582 42.3489 28.6589C42.3489 31.2595 40.2321 33.3763 37.6315 33.3763C35.0309 33.3763 32.9141 31.2595 32.9141 28.6589ZM45.7315 43.9085C45.1613 44.5478 44.4355 44.8718 43.5758 44.8718H31.6829C30.8232 44.8718 30.1017 44.5478 29.5272 43.9085C28.9569 43.2691 28.715 42.5131 28.8101 41.6621C29.2464 37.8 32.5037 34.884 36.396 34.884H38.8627C42.7507 34.884 46.0123 37.7957 46.4486 41.6621C46.5437 42.5131 46.3017 43.2691 45.7315 43.9085ZM45.1958 8.20801H35.087C33.8342 8.20801 32.8147 9.22753 32.8147 10.4803V15.1502C32.8147 16.3253 33.7089 17.293 34.8537 17.4096V18.8309C34.8537 19.2672 35.0827 19.656 35.4715 19.8634C35.6486 19.9584 35.8387 20.0059 36.0288 20.0059C36.2534 20.0059 36.4737 19.9411 36.6725 19.8115L40.3142 17.4226H45.1958C46.4486 17.4226 47.4681 16.403 47.4681 15.1502V10.4803C47.4681 9.22753 46.4486 8.20801 45.1958 8.20801ZM46.4702 15.1502C46.4702 15.8501 45.9 16.4246 45.1958 16.4246H40.1673C40.068 16.4246 39.9729 16.4549 39.8952 16.5067L36.1281 18.9778C36.0677 19.0166 36.0115 19.021 35.951 18.9864C35.8905 18.9518 35.8603 18.9043 35.8603 18.8352V16.9301C35.8603 16.6536 35.6357 16.429 35.3592 16.429H35.0913C34.3915 16.429 33.8169 15.8587 33.8169 15.1546V10.4803C33.8169 9.78049 34.3872 9.20593 35.0913 9.20593H45.2001C45.9 9.20593 46.4745 9.77617 46.4745 10.4803V15.1502H46.4702ZM37.3853 12.3552C37.4889 12.4589 37.5494 12.5971 37.5494 12.7526C37.5494 12.9082 37.4846 13.0464 37.3853 13.1501C37.2816 13.2538 37.1433 13.3142 36.9878 13.3142C36.8323 13.3142 36.6941 13.2494 36.5904 13.1501C36.4867 13.0464 36.4262 12.9082 36.4262 12.7526C36.4262 12.5971 36.491 12.4589 36.5904 12.3552C36.6941 12.2515 36.8323 12.191 36.9878 12.191C37.1433 12.191 37.2859 12.2515 37.3853 12.3552ZM40.5389 12.3552C40.6425 12.4589 40.703 12.5971 40.703 12.7526C40.703 12.9082 40.6382 13.0464 40.5389 13.1501C40.4352 13.2538 40.2969 13.3142 40.1414 13.3142C39.9859 13.3142 39.8477 13.2494 39.744 13.1501C39.6403 13.0464 39.5798 12.9082 39.5798 12.7526C39.5798 12.5971 39.6446 12.4589 39.744 12.3552C39.8477 12.2515 39.9859 12.191 40.1414 12.191C40.2969 12.191 40.4395 12.2515 40.5389 12.3552ZM43.6968 12.3552C43.8005 12.4589 43.8609 12.5971 43.8609 12.7526C43.8609 12.9082 43.7961 13.0464 43.6968 13.1501C43.5931 13.2538 43.4549 13.3142 43.2993 13.3142C43.1438 13.3142 43.0056 13.2494 42.9019 13.1501C42.7982 13.0464 42.7377 12.9082 42.7377 12.7526C42.7377 12.5971 42.8025 12.4589 42.9019 12.3552C43.0056 12.2515 43.1438 12.191 43.2993 12.191C43.4505 12.191 43.5931 12.2515 43.6968 12.3552Z" fill="#008DD2" stroke="#008DD2" stroke-width="0.432"/>
</svg>
