<svg width="70" height="70" viewBox="0 0 70 70" fill="none" xmlns="http://www.w3.org/2000/svg">
<rect width="70" height="70" rx="5" fill="#008DD2"/>
<g clip-path="url(#clip0_62_255)">
<path d="M14.7691 14C14.3396 14 14 14.3377 14 14.765V19.6808C14 20.1081 14.3396 20.4458 14.7691 20.4458H16.4621V48.5516H14.7691C14.341 48.5516 14 48.8919 14 49.3192V54.2324C14 54.6597 14.341 55 14.7691 55H19.6919C20.1201 55 20.4611 54.6597 20.4611 54.2324V52.5428H48.5389V54.2324C48.5389 54.6597 48.8799 55 49.3081 55H54.2309C54.659 55 55 54.6597 55 54.2324V49.3192C55 48.8919 54.659 48.5516 54.2309 48.5516H52.5379V20.4458H54.2309C54.6604 20.4458 55 20.1081 55 19.6808V14.765C55 14.3377 54.6604 14 54.2309 14H49.3081C48.8785 14 48.5389 14.3377 48.5389 14.765V16.4546H20.4611V14.765C20.4611 14.3377 20.1215 14 19.6919 14H14.7691ZM15.5383 15.5353H18.9228V18.9131H15.5383V15.9969V15.5353ZM50.0746 15.5353H53.4604V18.9131H50.0746V15.9969V15.5353ZM20.4611 17.9899H48.5389V19.6795C48.5389 20.1068 48.8785 20.4445 49.3081 20.4445H50.9983V48.5503H49.3081C48.8799 48.5503 48.5389 48.8906 48.5389 49.3179V51.0049H20.4611V49.3179C20.4611 48.8906 20.1201 48.5503 19.6919 48.5503H18.0017V20.4445H19.6919C20.1215 20.4445 20.4611 20.1068 20.4611 19.6795V18.4502V17.9899ZM15.5383 50.0855H18.9241V53.4634H15.5383V50.5472V50.0855ZM50.0746 50.0855H53.4604V53.4634H50.0746V50.5472V50.0855Z" fill="white"/>
</g>
<defs>
<clipPath id="clip0_62_255">
<rect width="60" height="60" fill="white" transform="translate(5 5)"/>
</clipPath>
</defs>
</svg>
