<svg width="70" height="70" viewBox="0 0 70 70" fill="none" xmlns="http://www.w3.org/2000/svg">
<rect x="-6.10352e-05" width="70" height="70" rx="5" fill="#008DD2"/>
<path d="M30.0117 50.0762C29.482 50.0762 28.9523 49.8746 28.5492 49.4715C27.743 48.6652 27.743 47.3527 28.5492 46.5465C28.732 46.3637 29.0292 46.3637 29.212 46.5465C29.3948 46.7293 29.3948 47.0265 29.212 47.2093C28.7714 47.6499 28.7714 48.368 29.212 48.8087C29.4239 49.0215 29.708 49.1377 30.0117 49.1377C30.3155 49.1377 30.5986 49.0205 30.8114 48.8087L34.8698 44.7502C35.3105 44.3096 35.3105 43.5915 34.8698 43.1508C34.658 42.938 34.3739 42.8218 34.0701 42.8218C33.7664 42.8218 33.4833 42.939 33.2705 43.1508C33.0876 43.3337 32.7905 43.3337 32.6076 43.1508C32.4248 42.968 32.4248 42.6708 32.6076 42.488C32.9967 42.099 33.5161 41.8843 34.0701 41.8843C34.6242 41.8843 35.1436 42.099 35.5326 42.488C36.3389 43.2943 36.3389 44.6068 35.5326 45.413L31.4742 49.4715C31.0711 49.8746 30.5405 50.0762 30.0117 50.0762Z" fill="white"/>
<path d="M22.5431 40.1115C22.4325 40.1115 22.3219 40.0721 22.2319 39.9934L19.8206 37.854C19.6266 37.6825 19.6097 37.3862 19.7813 37.1921C19.9528 36.9981 20.2491 36.9812 20.4431 37.1528L22.8544 39.2921C23.0484 39.4637 23.0653 39.76 22.8938 39.954C22.8009 40.0581 22.6725 40.1115 22.5431 40.1115ZM28.1747 26.6209C28.1738 26.6209 28.1738 26.6209 28.1728 26.6209L20.1309 26.5928C19.8722 26.5918 19.6631 26.3809 19.6641 26.1221C19.665 25.8634 19.875 25.6553 20.1328 25.6553C20.1338 25.6553 20.1338 25.6553 20.1347 25.6553L28.1766 25.6834C28.4353 25.6843 28.6444 25.8953 28.6434 26.154C28.6425 26.4118 28.4325 26.6209 28.1747 26.6209Z" fill="white"/>
<path d="M20.1331 40.4171H14.8437C14.5849 40.4171 14.3749 40.2071 14.3749 39.9484V23.6162C14.3749 23.3575 14.5849 23.1475 14.8437 23.1475H20.1331C20.3918 23.1475 20.6018 23.3575 20.6018 23.6162V39.9484C20.6018 40.2071 20.3918 40.4171 20.1331 40.4171ZM15.3124 39.4796H19.6643V24.085H15.3124V39.4796Z" fill="white"/>
<path d="M50.047 38.0819C49.8398 38.0819 49.6505 37.9441 49.5942 37.7341L45.367 21.9587C45.3351 21.8387 45.352 21.7103 45.4139 21.6034C45.4758 21.4966 45.5789 21.4169 45.6989 21.385L50.8073 20.0162C51.0576 19.9487 51.3145 20.0978 51.3811 20.3481L55.6083 36.1234C55.6401 36.2434 55.6233 36.3719 55.5614 36.4787C55.4995 36.5856 55.3964 36.6653 55.2764 36.6972L50.168 38.0659C50.1276 38.0772 50.0873 38.0819 50.047 38.0819ZM46.3945 22.1687L50.3789 37.0394L54.5826 35.9134L50.5983 21.0428L46.3945 22.1687Z" fill="white"/>
<path d="M27.7493 47.8142C27.1952 47.8142 26.6758 47.5995 26.2868 47.2104C25.4805 46.4042 25.4805 45.0917 26.2868 44.2854C26.4696 44.1026 26.7668 44.1026 26.9496 44.2854C27.1324 44.4683 27.1324 44.7654 26.9496 44.9483C26.5089 45.3889 26.5089 46.1061 26.9496 46.5476C27.1614 46.7604 27.4455 46.8767 27.7493 46.8767C28.053 46.8767 28.3361 46.7595 28.5489 46.5476L32.6074 42.4892C33.048 42.0486 33.048 41.3304 32.6074 40.8898C32.1668 40.4492 31.4496 40.4492 31.008 40.8898C30.8252 41.0726 30.528 41.0726 30.3452 40.8898C30.1624 40.707 30.1624 40.4098 30.3452 40.227C31.1514 39.4208 32.4639 39.4208 33.2702 40.227C34.0764 41.0333 34.0764 42.3458 33.2702 43.152L29.2118 47.2104C28.8218 47.5995 28.3024 47.8142 27.7493 47.8142Z" fill="white"/>
<path d="M25.4873 45.5518C24.9333 45.5518 24.4139 45.3371 24.0248 44.948C23.6358 44.559 23.4211 44.0396 23.4211 43.4855C23.4211 42.9315 23.6358 42.4121 24.0248 42.023C24.2076 41.8402 24.5048 41.8402 24.6876 42.023C24.8705 42.2058 24.8705 42.503 24.6876 42.6858C24.4758 42.8977 24.3586 43.1818 24.3586 43.4855C24.3586 43.7883 24.4758 44.0724 24.6876 44.2852C24.8995 44.498 25.1836 44.6143 25.4873 44.6143C25.7911 44.6143 26.0742 44.4971 26.287 44.2852L30.3455 40.2268C30.5573 40.014 30.6745 39.7308 30.6745 39.4271C30.6745 39.1243 30.5573 38.8402 30.3455 38.6274C30.1336 38.4146 29.8495 38.2983 29.5458 38.2983C29.242 38.2983 28.9589 38.4155 28.7461 38.6274C28.5633 38.8102 28.2661 38.8102 28.0833 38.6274C27.9005 38.4446 27.9005 38.1474 28.0833 37.9646C28.4723 37.5755 28.9917 37.3608 29.5458 37.3608C30.0998 37.3608 30.6192 37.5755 31.0083 37.9646C31.3973 38.3537 31.612 38.873 31.612 39.4271C31.612 39.9812 31.3973 40.5005 31.0083 40.8896L26.9498 44.948C26.5608 45.3371 26.0414 45.5518 25.4873 45.5518Z" fill="white"/>
<path d="M23.2249 43.2905C22.6952 43.2905 22.1655 43.0889 21.7624 42.6858C21.3733 42.2967 21.1586 41.7773 21.1586 41.2233C21.1586 40.6692 21.3733 40.1498 21.7624 39.7608L25.8208 35.7023C26.6271 34.8961 27.9396 34.8961 28.7458 35.7023C29.1349 36.0914 29.3496 36.6108 29.3496 37.1648C29.3496 37.7189 29.1349 38.2383 28.7458 38.6273L24.6874 42.6858C24.2843 43.0889 23.7546 43.2905 23.2249 43.2905ZM22.4252 42.023C22.8658 42.4636 23.583 42.4636 24.0246 42.023L28.083 37.9645C28.2949 37.7517 28.4121 37.4686 28.4121 37.1648C28.4121 36.862 28.2949 36.578 28.083 36.3652C27.6424 35.9245 26.9252 35.9245 26.4836 36.3652L22.4252 40.4236C22.2133 40.6364 22.0961 40.9195 22.0961 41.2233C22.0961 41.5261 22.2133 41.8102 22.4252 42.023Z" fill="white"/>
<path d="M45.0071 39.6541C44.8721 39.6541 44.7389 39.596 44.6461 39.4844C44.4811 39.2848 44.5083 38.9894 44.708 38.8244C44.8017 38.7466 47.0349 36.9054 49.4564 35.7419C49.6899 35.6304 49.9702 35.7279 50.0817 35.9613C50.1942 36.1948 50.0958 36.4751 49.8624 36.5866C47.543 37.7013 45.3286 39.5276 45.3061 39.5463C45.2189 39.6185 45.1121 39.6541 45.0071 39.6541Z" fill="white"/>
<path d="M43.1512 42.9355C42.4509 42.9355 41.7525 42.6589 41.2434 42.1142L34.6565 35.0671C34.4794 34.8777 34.4897 34.5814 34.679 34.4042C34.8684 34.228 35.1647 34.2374 35.3419 34.4267L41.9287 41.4739C42.5447 42.1321 43.5919 42.1789 44.2631 41.578C44.5969 41.2799 44.7928 40.8692 44.8172 40.4221C44.8415 39.9749 44.6887 39.5464 44.3897 39.2136L34.5928 28.3602C33.8119 28.6855 33.0215 29.2311 32.3381 29.9192C30.3872 31.8861 27.7069 31.9255 26.4281 30.7283C25.6912 30.0392 25.2928 28.7108 26.594 27.2352L30.1031 23.2583C31.9669 21.1742 34.6312 20.3736 37.8131 20.9399C40.1681 21.3599 41.9587 22.3696 42.0337 22.4127C42.0497 22.4221 42.0647 22.4314 42.0797 22.4427C43.2394 23.2977 44.8809 23.0783 46.0547 22.7427C46.3031 22.6714 46.5628 22.8158 46.634 23.0642C46.7053 23.3127 46.5609 23.5724 46.3125 23.6436C44.9456 24.0346 43.0125 24.2755 41.549 23.2152C41.3456 23.1036 39.6947 22.2224 37.6247 21.8586C34.7522 21.3533 32.4572 22.033 30.8053 23.8808L27.2981 27.8549C26.5603 28.6911 26.4769 29.4889 27.0694 30.043C27.9009 30.8211 29.9634 30.9814 31.6734 29.2574C32.5387 28.3855 33.5681 27.7133 34.5722 27.3646C34.7503 27.3027 34.9481 27.3533 35.0747 27.493L45.0862 38.5864C45.554 39.1049 45.7912 39.7752 45.7547 40.4727C45.7172 41.1702 45.4106 41.8105 44.8903 42.2764C44.3953 42.718 43.7728 42.9355 43.1512 42.9355Z" fill="white"/>
<path d="M37.7099 47.8843C37.0837 47.8843 36.4902 47.6433 36.0393 47.2055L34.9846 46.178C34.9809 46.1743 34.9762 46.1705 34.9724 46.1658C34.9696 46.163 34.9659 46.1593 34.9631 46.1565C34.9621 46.1555 34.9612 46.1546 34.9602 46.1546C34.9584 46.1527 34.9556 46.1499 34.9537 46.148C34.9518 46.1462 34.9509 46.1452 34.9499 46.1443L34.544 45.7477C34.3584 45.5668 34.3556 45.2696 34.5365 45.0849C34.7174 44.8993 35.0137 44.8955 35.1993 45.0774L35.6043 45.473C35.6099 45.4787 35.6165 45.4843 35.6221 45.4899C35.6324 45.4993 35.6427 45.5096 35.6521 45.5199L36.6937 46.5352C36.9684 46.8015 37.3293 46.9486 37.7099 46.9486C38.069 46.9486 38.414 46.8165 38.6812 46.5774C38.9746 46.3149 39.1452 45.953 39.1631 45.5583C39.1809 45.1637 39.0431 44.7886 38.774 44.4999L32.0165 37.2455C31.8402 37.0561 31.8506 36.7599 32.0399 36.5827C32.2293 36.4065 32.5256 36.4168 32.7027 36.6062L39.4602 43.8605C39.9018 44.3349 40.1287 44.9527 40.0996 45.6005C40.0706 46.2474 39.7884 46.8427 39.3065 47.2749C38.8668 47.6677 38.2996 47.8843 37.7099 47.8843Z" fill="white"/>
<path d="M40.568 45.3952C39.9801 45.3952 39.3942 45.1627 38.9667 44.7043L32.018 37.2446C31.8417 37.0552 31.852 36.759 32.0414 36.5818C32.2308 36.4055 32.527 36.4158 32.7042 36.6052L39.653 44.0649C40.1123 44.559 40.8951 44.5936 41.3976 44.1436C41.6498 43.9177 41.797 43.6074 41.812 43.2699C41.827 42.9324 41.708 42.6099 41.4773 42.3624L34.658 35.0668C34.4808 34.8774 34.4911 34.5811 34.6805 34.404C34.8698 34.2277 35.1661 34.2371 35.3433 34.4265L42.1626 41.7221C42.5676 42.1552 42.7758 42.7196 42.7495 43.3111C42.7233 43.9027 42.4655 44.4465 42.0239 44.8421C41.6095 45.2124 41.0883 45.3952 40.568 45.3952Z" fill="white"/>
<path d="M34.0822 49.9103C34.0812 49.9103 34.0812 49.9103 34.0822 49.9103C33.4212 49.9103 32.8006 49.6525 32.3337 49.1856L31.7159 48.5678C31.5331 48.385 31.5331 48.0878 31.7159 47.905C31.8987 47.7222 32.1959 47.7222 32.3787 47.905L32.9975 48.5237C33.2872 48.8144 33.6725 48.9737 34.0822 48.9737C34.0822 48.9737 34.0822 48.9737 34.0831 48.9737C34.4928 48.9737 34.8781 48.8144 35.1678 48.5247C35.4575 48.235 35.6168 47.8497 35.6168 47.4409C35.6168 47.0556 35.4743 46.6881 35.2137 46.4059C35.2109 46.4031 35.2081 46.4003 35.2053 46.3975C35.2043 46.3966 35.2034 46.3956 35.2034 46.3956C35.2006 46.3928 35.1978 46.39 35.195 46.3872C35.1931 46.3853 35.1903 46.3825 35.1884 46.3806C35.1809 46.3731 35.1743 46.3656 35.1678 46.3581C35.164 46.3544 35.1575 46.3478 35.1509 46.3412L34.6353 45.8359C34.4506 45.655 34.4468 45.3578 34.6287 45.1731C34.8097 44.9884 35.1068 44.9847 35.2915 45.1656L35.81 45.6747C35.8297 45.6944 35.8475 45.7122 35.8634 45.7291C35.8643 45.73 35.8653 45.7309 35.8653 45.7309C35.8793 45.7441 35.8915 45.7572 35.9047 45.7712C36.3237 46.2278 36.5543 46.8203 36.5543 47.4409C36.5543 48.1009 36.2975 48.7206 35.8306 49.1884C35.3618 49.6534 34.7412 49.9103 34.0822 49.9103Z" fill="white"/>
</svg>
