<svg width="56" height="55" viewBox="0 0 56 55" fill="none" xmlns="http://www.w3.org/2000/svg">
<path d="M19.4665 32.946C19.5646 32.946 19.6635 32.942 19.7624 32.9348C24.725 32.6229 25.3515 29.0613 22.9912 26.462C21.6586 25.1643 21.6703 23.6169 19.8817 22.6842C18.1275 22.0051 17.7446 23.4855 17.367 25.1469C17.1417 26.1335 16.8861 27.2516 16.3378 28.0739C14.7321 30.3137 16.9533 33.0404 19.4665 32.946ZM17.6968 28.9799C18.6927 27.4958 18.8066 25.7366 19.3034 24.2298C20.4443 25.0724 20.5915 26.4896 21.838 27.6184C22.4134 28.1935 22.8723 29.2127 22.59 29.9704C22.3367 31.1007 18.6571 32.0256 17.7036 30.4816C17.3355 29.9744 17.3336 29.5246 17.6968 28.9799Z" fill="#008DD2"/>
<path d="M52.4448 38.9332C52.4448 36.8247 51.5507 34.8616 49.9948 33.4729V3.81666C49.9948 3.36527 49.6291 3 49.1781 3H15.6949C15.2439 3 14.8782 3.36527 14.8782 3.81666V9.77566C0.360367 12.5464 -0.511503 32.7426 13.6863 36.8144L13.6875 36.815C14.0909 36.923 14.4877 37.0051 14.8782 37.0744V47.0998C14.8782 47.5512 15.2439 47.9165 15.6949 47.9165H39.7457L39.3833 51.0906C39.3474 51.4065 39.4978 51.7143 39.7693 51.8802C40.0405 52.0453 40.3834 52.0381 40.6478 51.8626L45.0948 48.8983L49.5418 51.8626C49.6786 51.9536 49.8365 51.9998 49.9948 51.9998C50.4663 52.0105 50.8713 51.5609 50.8062 51.0906L50.0373 44.3547C51.5675 42.9676 52.4448 41.0217 52.4448 38.9332ZM50.8114 38.9332C50.5869 46.4861 39.6024 46.4816 39.3781 38.9331C39.646 31.363 50.5554 31.3733 50.8114 38.9332ZM18.578 11.2299C24.6547 11.7678 29.6498 17.2792 29.5764 23.3812C27.3618 23.3559 24.7073 22.6941 23.9288 20.3599C23.4743 19.2596 23.5175 17.9414 22.9821 16.9013C22.6579 16.2535 21.9404 15.9238 21.2364 15.9608C19.8826 15.9553 18.2198 16.9785 17.0595 16.207C16.0387 15.1242 16.5251 12.7176 16.7441 11.1932C17.3535 11.1461 17.9764 11.1689 18.578 11.2299ZM5.07828 23.4166C5.07828 21.6389 5.46348 19.8931 6.20119 18.2965C7.19072 19.9367 8.28376 21.6452 10.018 22.5441C10.7664 22.8321 12.1118 23.143 12.1997 23.6336C12.5124 24.3896 11.5629 26.1162 10.8216 27.3492C8.88524 30.7469 12.6987 32.1357 13.1659 34.9403C8.35824 33.2082 5.07828 28.6033 5.07828 23.4166ZM14.7929 34.7601C14.6449 33.4623 13.8782 32.357 13.0926 31.3575C12.0682 30.0297 11.5637 29.2856 12.2217 28.1906C13.5125 26.0436 14.2594 24.3409 13.7091 23.0099C13.0962 21.5224 11.5255 21.4834 10.4208 20.9025C8.92777 19.866 8.01967 18.1771 7.14361 16.6172C8.97039 13.8747 11.7814 12.0085 15.0485 11.3836C14.2724 15.694 15.1973 19.2566 20.1141 17.8004C21.4506 17.4798 21.5036 17.5128 21.6329 17.8682L21.6333 17.869C21.9543 19.0133 22.0716 20.4191 22.6447 21.5186C23.8123 24.1156 26.8314 24.9379 29.4627 25.0156C28.7365 31.8927 21.5333 36.9724 14.8124 35.405C14.8239 35.1827 14.8153 34.9685 14.7929 34.7601ZM16.5116 37.2759C24.0153 37.7739 30.7905 31.8795 31.1852 24.2612L31.1852 24.2597L31.1856 24.2564L31.1854 24.255C31.7388 16.0335 24.734 9.01777 16.5116 9.55803V4.63333H48.3615V32.352C40.6596 28.7331 33.9884 38.519 40.1506 44.3691L39.9316 46.2832H16.5116V37.2759ZM45.5478 47.237C45.2734 47.0536 44.9162 47.0536 44.6418 47.237L41.2053 49.5283C41.2459 49.1726 41.6453 45.6732 41.6728 45.4347C43.7828 46.555 46.4068 46.5554 48.5166 45.4346L48.9839 49.5275L45.5478 47.237Z" fill="#008DD2"/>
<path d="M35.2965 11.1609C35.2965 10.7095 34.9308 10.3442 34.4798 10.3442H31.2131C30.7621 10.3442 30.3965 10.7095 30.3965 11.1609C30.3965 11.6123 30.7621 11.9776 31.2131 11.9776H34.4798C34.9308 11.9776 35.2965 11.6123 35.2965 11.1609Z" fill="#008DD2"/>
<path d="M38.5625 11.9776H45.0958C46.1618 11.9735 46.1653 10.3486 45.0958 10.3442L38.5625 10.3442C37.4965 10.3483 37.493 11.9732 38.5625 11.9776Z" fill="#008DD2"/>
<path d="M45.0924 16.0659C46.1573 16.0621 46.1627 14.437 45.0923 14.4326L35.2924 14.4326C34.2275 14.4364 34.2221 16.0616 35.2925 16.0659L45.0924 16.0659Z" fill="#008DD2"/>
<path d="M30.3925 38.115H23.0425C21.9768 38.119 21.9728 39.744 23.0425 39.7483L30.3925 39.7483C31.4582 39.7443 31.4622 38.1193 30.3925 38.115Z" fill="#008DD2"/>
<path d="M30.3854 42.2024H19.7688C19.3178 42.2024 18.9521 42.5677 18.9521 43.0191C18.9521 43.4705 19.3178 43.8357 19.7688 43.8357H30.3854C31.4501 43.8319 31.456 42.2068 30.3854 42.2024Z" fill="#008DD2"/>
<path d="M45.9179 24.2364V19.3364C45.9179 18.885 45.5522 18.5198 45.1012 18.5198H36.1179C35.6669 18.5198 35.3013 18.885 35.3013 19.3364V24.2364C35.3013 24.6878 35.6669 25.0531 36.1179 25.0531H45.1012C45.5522 25.0531 45.9179 24.6878 45.9179 24.2364ZM44.2846 23.4198H36.9346V20.1531H44.2846V23.4198Z" fill="#008DD2"/>
</svg>
