<svg width="55" height="55" viewBox="0 0 55 55" fill="none" xmlns="http://www.w3.org/2000/svg">
<path d="M44.2013 10.7569C39.866 6.40054 34.1235 4 28.0392 4C21.9549 4 16.2124 6.40054 11.8771 10.7569C7.44265 15.2143 5 21.1575 5 27.5C5 33.8425 7.44265 39.7857 11.8771 44.2431C16.2124 48.5995 21.9549 51 28.0392 51C34.1235 51 39.866 48.5995 44.2013 44.2431C48.6358 39.7857 51.0784 33.8425 51.0784 27.5C51.0784 21.1575 48.6358 15.2143 44.2013 10.7569ZM22.376 6.2843C20.3 8.05312 18.5262 10.767 17.2232 14.1126C17.1142 14.0469 17.0002 13.9812 16.8912 13.9104C16.7327 13.8094 16.5741 13.7083 16.4156 13.6072C16.2867 13.5213 16.1579 13.4354 16.0291 13.3495C15.8705 13.2433 15.717 13.1322 15.5634 13.021C15.4395 12.93 15.3156 12.839 15.1918 12.743C15.0382 12.6268 14.8895 12.5055 14.7359 12.3842C14.617 12.2882 14.4981 12.1922 14.3792 12.0911C14.2305 11.9647 14.0819 11.8384 13.9333 11.707C13.8193 11.6059 13.7054 11.5048 13.5914 11.4038C13.5518 11.3684 13.5121 11.328 13.4774 11.2926C16.044 8.89204 19.0861 7.19398 22.376 6.2843ZM12.4122 12.364C12.4617 12.4095 12.5113 12.4499 12.5608 12.4954C12.6946 12.6167 12.8284 12.738 12.9622 12.8592C13.1058 12.9856 13.2495 13.1119 13.3982 13.2383C13.5369 13.3545 13.6756 13.4657 13.8144 13.5769C13.963 13.6982 14.1116 13.8144 14.2652 13.9306C14.4089 14.0368 14.5526 14.1429 14.6963 14.249C14.8499 14.3602 15.0035 14.4714 15.162 14.5826C15.3057 14.6837 15.4544 14.7797 15.603 14.8808C15.7615 14.9869 15.925 15.088 16.0836 15.189C16.2322 15.28 16.3809 15.371 16.5345 15.4619C16.589 15.4923 16.6435 15.5276 16.698 15.563C15.603 18.853 14.949 22.6534 14.8747 26.7167H6.50622C6.68954 21.3192 8.76555 16.2756 12.4122 12.364ZM12.9622 42.1408C12.8284 42.262 12.6946 42.3783 12.5608 42.5046C12.5113 42.5501 12.4617 42.5905 12.4122 42.636C8.74573 38.7092 6.67468 33.6403 6.50127 28.2277H14.8747C14.944 32.3112 15.598 36.1369 16.698 39.442C16.6435 39.4724 16.589 39.5077 16.5345 39.5431C16.3858 39.6341 16.2322 39.7251 16.0836 39.816C15.9201 39.9171 15.7615 40.0182 15.603 40.1243C15.4544 40.2203 15.3107 40.3214 15.162 40.4225C15.0035 40.5286 14.8499 40.6398 14.6963 40.756C14.5526 40.8622 14.4089 40.9683 14.2652 41.0744C14.1116 41.1906 13.963 41.3069 13.8144 41.4282C13.6756 41.5394 13.5369 41.6556 13.3982 41.7668C13.2545 41.8881 13.1058 42.0144 12.9622 42.1408ZM13.4774 43.7024C13.5171 43.667 13.5518 43.6266 13.5914 43.5912C13.7054 43.4851 13.8193 43.389 13.9333 43.288C14.0819 43.1566 14.2256 43.0302 14.3792 42.9039C14.4981 42.8028 14.617 42.7068 14.7359 42.6108C14.8846 42.4895 15.0382 42.3682 15.1918 42.2519C15.3156 42.1559 15.4395 42.0649 15.5634 41.974C15.717 41.8628 15.8705 41.7516 16.0291 41.6455C16.1579 41.5596 16.2867 41.4737 16.4156 41.3877C16.5741 41.2867 16.7327 41.1805 16.8912 41.0845C17.0002 41.0188 17.1142 40.9481 17.2232 40.8824C18.5262 44.2229 20.3 46.9368 22.376 48.7106C19.0861 47.806 16.044 46.108 13.4774 43.7024ZM27.296 49.4333C23.6692 49.0038 20.4883 45.4459 18.5015 40.1849C18.5609 40.1546 18.6204 40.1243 18.6798 40.094C18.8186 40.0283 18.9573 39.9575 19.096 39.8918C19.2645 39.811 19.4379 39.7352 19.6064 39.6644C19.7451 39.6038 19.8888 39.5431 20.0325 39.4825C20.2059 39.4117 20.3793 39.346 20.5527 39.2803C20.6964 39.2247 20.8401 39.1691 20.9838 39.1186C21.1621 39.058 21.3405 38.9973 21.5189 38.9417C21.6626 38.8962 21.8062 38.8457 21.9549 38.8053C22.1382 38.7497 22.3166 38.7042 22.4999 38.6537C22.6436 38.6132 22.7922 38.5728 22.9359 38.5374C23.1242 38.4919 23.3125 38.4515 23.5007 38.4111C23.6444 38.3807 23.7881 38.3454 23.9367 38.3151C24.13 38.2746 24.3282 38.2443 24.5214 38.214C24.6651 38.1887 24.8038 38.1634 24.9475 38.1432C25.1506 38.1129 25.3587 38.0927 25.5619 38.0674C25.6957 38.0523 25.8344 38.032 25.9682 38.0169C26.1961 37.9967 26.4289 37.9815 26.6569 37.9663C26.7708 37.9613 26.8848 37.9461 26.9987 37.9411C27.0978 37.936 27.1969 37.936 27.296 37.936V49.4333ZM27.296 36.4199C27.1721 36.4249 27.0483 36.4249 26.9244 36.43C26.8005 36.4351 26.6767 36.4502 26.5528 36.4553C26.31 36.4704 26.0623 36.4856 25.8195 36.5109C25.6709 36.526 25.5272 36.5462 25.3835 36.5614C25.1655 36.5867 24.9475 36.6119 24.7295 36.6423C24.5759 36.6625 24.4223 36.6928 24.2638 36.7181C24.0557 36.7534 23.8525 36.7838 23.6444 36.8242C23.4859 36.8545 23.3273 36.8949 23.1688 36.9253C22.9706 36.9708 22.7724 37.0112 22.5792 37.0567C22.4157 37.0971 22.2571 37.1426 22.0986 37.183C21.9053 37.2336 21.7171 37.2841 21.5288 37.3447C21.3653 37.3953 21.2067 37.4458 21.0482 37.4963C20.8649 37.557 20.6766 37.6176 20.4933 37.6833C20.3347 37.7389 20.1712 37.7996 20.0126 37.8602C19.8343 37.931 19.651 37.9967 19.4726 38.0725C19.314 38.1382 19.1555 38.2039 18.9969 38.2746C18.8235 38.3504 18.6452 38.4262 18.4717 38.5071C18.3132 38.5829 18.1596 38.6587 18.006 38.7345C17.02 35.6366 16.4304 32.0484 16.366 28.2176H27.296V36.4199ZM27.296 26.7116H16.3611C16.4354 22.9011 17.02 19.3331 18.0011 16.2554C18.1546 16.3312 18.3132 16.407 18.4668 16.4828C18.6402 16.5637 18.8136 16.6395 18.992 16.7153C19.1505 16.786 19.3091 16.8517 19.4676 16.9174C19.646 16.9882 19.8244 17.0589 20.0077 17.1297C20.1662 17.1903 20.3248 17.251 20.4883 17.3066C20.6716 17.3723 20.8599 17.4329 21.0432 17.4935C21.2018 17.5441 21.3653 17.5997 21.5238 17.6452C21.7121 17.7008 21.9053 17.7513 22.0936 17.8069C22.2522 17.8524 22.4157 17.8978 22.5742 17.9332C22.7724 17.9838 22.9656 18.0242 23.1638 18.0646C23.3224 18.1 23.4809 18.1354 23.6395 18.1657C23.8426 18.2061 24.0507 18.2415 24.2588 18.2718C24.4124 18.2971 24.566 18.3274 24.7245 18.3476C24.9425 18.378 25.1606 18.4032 25.3786 18.4285C25.5272 18.4437 25.6709 18.4689 25.8146 18.479C26.0573 18.5043 26.3001 18.5195 26.5479 18.5346C26.6717 18.5447 26.7956 18.5548 26.9195 18.5599C27.0433 18.5649 27.1672 18.5649 27.2911 18.57V26.7116H27.296ZM27.296 17.064C27.1969 17.0589 27.0978 17.0589 26.9987 17.0589C26.8848 17.0539 26.7708 17.0438 26.6569 17.0337C26.4289 17.0185 26.1961 17.0033 25.9682 16.9831C25.8344 16.968 25.6957 16.9528 25.5619 16.9326C25.3587 16.9073 25.1506 16.8871 24.9475 16.8568C24.8038 16.8366 24.6651 16.8113 24.5214 16.786C24.3282 16.7557 24.13 16.7203 23.9367 16.6849C23.7931 16.6546 23.6444 16.6243 23.5007 16.5889C23.3125 16.5485 23.1242 16.5081 22.9359 16.4626C22.7873 16.4272 22.6436 16.3868 22.4999 16.3463C22.3166 16.2958 22.1332 16.2503 21.9549 16.1947C21.8112 16.1492 21.6626 16.1038 21.5189 16.0583C21.3405 16.0027 21.1621 15.942 20.9838 15.8814C20.8401 15.8309 20.6964 15.7753 20.5527 15.7197C20.3793 15.654 20.2059 15.5883 20.0325 15.5175C19.8888 15.4619 19.7501 15.3962 19.6064 15.3356C19.433 15.2598 19.2645 15.184 19.096 15.1082C18.9573 15.0425 18.8186 14.9768 18.6798 14.906C18.6204 14.8757 18.5609 14.8454 18.5015 14.8151C20.4883 9.54903 23.6692 5.99624 27.296 5.56667V17.064ZM43.1163 12.8592C43.25 12.738 43.3838 12.6217 43.5176 12.4954C43.5672 12.4499 43.6167 12.4095 43.6662 12.364C47.3178 16.2756 49.3889 21.3192 49.5772 26.7116H41.2038C41.1295 22.6534 40.4754 18.848 39.3805 15.558C39.435 15.5276 39.4895 15.4923 39.544 15.4569C39.6926 15.3659 39.8462 15.2749 39.9948 15.184C40.1583 15.0829 40.3169 14.9818 40.4754 14.8757C40.6241 14.7797 40.7678 14.6786 40.9164 14.5775C41.075 14.4714 41.2285 14.3602 41.3821 14.244C41.5258 14.1378 41.6695 14.0317 41.8132 13.9256C41.9668 13.8094 42.1154 13.6931 42.2641 13.5718C42.4028 13.4606 42.5415 13.3444 42.6803 13.2332C42.824 13.1119 42.9726 12.9856 43.1163 12.8592ZM42.601 11.2976C42.5614 11.333 42.5267 11.3734 42.487 11.4088C42.3731 11.5149 42.2591 11.611 42.1452 11.712C41.9965 11.8434 41.8528 11.9698 41.6992 12.0961C41.5803 12.1972 41.4614 12.2932 41.3425 12.3892C41.1939 12.5105 41.0403 12.6318 40.8867 12.7481C40.7628 12.8441 40.6389 12.9351 40.5151 13.026C40.3615 13.1372 40.2079 13.2484 40.0493 13.3545C39.9205 13.4404 39.7917 13.5263 39.6629 13.6123C39.5043 13.7133 39.3458 13.8144 39.1872 13.9155C39.0782 13.9812 38.9643 14.0519 38.8553 14.1176C37.5522 10.7771 35.7784 8.06323 33.7024 6.28935C36.9923 7.19398 40.0345 8.89204 42.601 11.2976ZM28.7824 5.56667C32.4092 5.99624 35.5901 9.55409 37.577 14.8151C37.5175 14.8454 37.458 14.8757 37.3986 14.906C37.2599 14.9717 37.1211 15.0425 36.9824 15.1082C36.8139 15.189 36.6405 15.2648 36.4721 15.3356C36.3333 15.3962 36.1896 15.4569 36.046 15.5175C35.8725 15.5883 35.6991 15.654 35.5257 15.7197C35.382 15.7753 35.2383 15.8309 35.0947 15.8814C34.9163 15.942 34.7379 16.0027 34.5596 16.0583C34.4159 16.1038 34.2722 16.1543 34.1235 16.1947C33.9402 16.2503 33.7619 16.2958 33.5785 16.3463C33.4349 16.3868 33.2862 16.4272 33.1425 16.4626C32.9542 16.5081 32.766 16.5485 32.5777 16.5889C32.434 16.6192 32.2903 16.6546 32.1417 16.6849C31.9484 16.7254 31.7503 16.7557 31.557 16.786C31.4133 16.8113 31.2746 16.8366 31.1309 16.8568C30.9278 16.8871 30.7197 16.9073 30.5166 16.9326C30.3828 16.9477 30.244 16.968 30.1103 16.9831C29.8824 17.0033 29.6495 17.0185 29.4216 17.0337C29.3076 17.0387 29.1937 17.0539 29.0797 17.0589C28.9806 17.064 28.8815 17.064 28.7824 17.064V5.56667ZM28.7824 18.5801C28.9063 18.5751 29.0301 18.5751 29.154 18.57C29.2779 18.5649 29.4017 18.5498 29.5256 18.5447C29.7684 18.5296 30.0161 18.5144 30.2589 18.4891C30.4075 18.474 30.5512 18.4538 30.6949 18.4386C30.9129 18.4133 31.1309 18.3881 31.3489 18.3577C31.5025 18.3375 31.6561 18.3072 31.8097 18.2819C32.0178 18.2466 32.221 18.2162 32.4291 18.1758C32.5876 18.1455 32.7462 18.1051 32.9047 18.0747C33.1029 18.0292 33.3011 17.9888 33.4943 17.9383C33.6578 17.8978 33.8164 17.8524 33.9749 17.8119C34.1681 17.7614 34.3564 17.7109 34.5447 17.6502C34.7082 17.5997 34.8667 17.5491 35.0253 17.4986C35.2086 17.438 35.3969 17.3773 35.5802 17.3116C35.7388 17.256 35.9023 17.1954 36.0608 17.1347C36.2392 17.064 36.4225 16.9983 36.6009 16.9225C36.7594 16.8568 36.918 16.7911 37.0765 16.7203C37.2499 16.6445 37.4283 16.5687 37.6017 16.4878C37.7603 16.412 37.9139 16.3362 38.0675 16.2604C39.0485 19.3432 39.6331 22.9061 39.7075 26.7167H28.7824V18.5801ZM28.7824 28.2277H39.7174C39.653 32.0635 39.0634 35.6517 38.0774 38.7446C37.9238 38.6688 37.7652 38.593 37.6116 38.5172C37.4382 38.4363 37.2648 38.3605 37.0864 38.2847C36.9279 38.214 36.7693 38.1483 36.6108 38.0826C36.4324 38.0118 36.2541 37.9411 36.0707 37.8703C35.9122 37.8097 35.7536 37.749 35.5901 37.6934C35.4068 37.6277 35.2185 37.5671 35.0352 37.5065C34.8767 37.4559 34.7132 37.4003 34.5546 37.3548C34.3663 37.2992 34.1731 37.2487 33.9848 37.1931C33.8263 37.1476 33.6628 37.1021 33.5042 37.0668C33.306 37.0162 33.1078 36.9758 32.9146 36.9303C32.7561 36.8949 32.5975 36.8596 32.439 36.8292C32.2358 36.7888 32.0277 36.7534 31.8196 36.7231C31.666 36.6978 31.5124 36.6675 31.3588 36.6473C31.1408 36.617 30.9228 36.5917 30.7048 36.5665C30.5562 36.5513 30.4125 36.526 30.2688 36.5159C30.026 36.4906 29.7833 36.4755 29.5355 36.4603C29.4117 36.4502 29.2878 36.4401 29.1639 36.4351C29.0401 36.43 28.9162 36.43 28.7923 36.4249V28.2277H28.7824ZM28.7824 37.936C28.8815 37.9411 28.9806 37.9411 29.0797 37.9411C29.1937 37.9461 29.3076 37.9562 29.4216 37.9663C29.6495 37.9815 29.8824 37.9967 30.1103 38.0169C30.244 38.032 30.3828 38.0472 30.5166 38.0674C30.7197 38.0927 30.9278 38.1129 31.1309 38.1432C31.2746 38.1634 31.4133 38.1887 31.557 38.214C31.7503 38.2443 31.9484 38.2797 32.1417 38.3151C32.2854 38.3454 32.434 38.3757 32.5777 38.4111C32.766 38.4515 32.9542 38.4919 33.1425 38.5374C33.2912 38.5728 33.4349 38.6132 33.5785 38.6537C33.7619 38.7042 33.9452 38.7497 34.1235 38.8053C34.2672 38.8508 34.4159 38.8962 34.5596 38.9417C34.7379 38.9973 34.9163 39.058 35.0947 39.1186C35.2383 39.1691 35.382 39.2247 35.5257 39.2803C35.6991 39.346 35.8725 39.4117 36.046 39.4825C36.1896 39.5381 36.3284 39.6038 36.4721 39.6644C36.6455 39.7402 36.8139 39.816 36.9824 39.8918C37.1211 39.9575 37.2599 40.0232 37.3986 40.094C37.458 40.1243 37.5175 40.1546 37.577 40.1849C35.5901 45.451 32.4092 49.0038 28.7824 49.4333V37.936ZM33.7024 48.7157C35.7784 46.9469 37.5522 44.233 38.8553 40.8874C38.9643 40.9531 39.0782 41.0188 39.1872 41.0896C39.3458 41.1906 39.5043 41.2917 39.6629 41.3928C39.7917 41.4787 39.9205 41.5646 40.0493 41.6505C40.2029 41.7567 40.3615 41.8679 40.5151 41.979C40.6389 42.07 40.7628 42.161 40.8867 42.257C41.0403 42.3732 41.1889 42.4945 41.3425 42.6158C41.4614 42.7118 41.5803 42.8078 41.6992 42.9089C41.8479 43.0353 41.9965 43.1616 42.1452 43.293C42.2591 43.3941 42.3731 43.4952 42.487 43.5962C42.5267 43.6316 42.5663 43.672 42.601 43.7074C40.0345 46.108 36.9923 47.806 33.7024 48.7157ZM43.6662 42.636C43.6167 42.5905 43.5672 42.5501 43.5176 42.5046C43.3838 42.3833 43.25 42.262 43.1163 42.1408C42.9726 42.0144 42.8289 41.8881 42.6803 41.7617C42.5415 41.6455 42.4028 41.5343 42.2641 41.4231C42.1154 41.3018 41.9668 41.1856 41.8132 41.0694C41.6695 40.9632 41.5258 40.8571 41.3821 40.751C41.2285 40.6398 41.07 40.5286 40.9164 40.4174C40.7727 40.3163 40.6241 40.2203 40.4754 40.1192C40.3169 40.0131 40.1534 39.912 39.9948 39.811C39.8462 39.72 39.6976 39.629 39.544 39.5381C39.4895 39.5077 39.435 39.4724 39.3805 39.437C40.4804 36.1318 41.1344 32.3061 41.2038 28.2227H49.5772C49.4038 33.6403 47.3277 38.7092 43.6662 42.636Z" fill="#008DD2"/>
</svg>
