<svg width="43" height="42" viewBox="0 0 43 42" fill="none" xmlns="http://www.w3.org/2000/svg">
<path d="M35.7906 19.554C35.8358 20.0059 35.881 20.503 35.881 21.0001C35.881 29.6314 28.8765 36.6358 20.2452 36.6358C11.6139 36.6358 4.60939 29.6314 4.60939 21.0001C4.60939 12.3687 11.6139 5.36425 20.2452 5.36425C22.5951 5.36425 24.8094 5.86135 26.7978 6.81034C28.1083 5.72578 29.464 4.73159 30.8197 3.7826C27.7467 1.88461 24.1315 0.800049 20.2452 0.800049C9.08322 0.800049 0 9.83808 0 21.0001C0 32.162 9.08322 41.2001 20.2 41.2001C31.362 41.2001 40.4452 32.162 40.4452 21.0001C40.4452 19.0569 40.174 17.2041 39.6318 15.3965C38.276 16.7974 37.0107 18.1531 35.7906 19.554Z" fill="#008DD2"/>
<path d="M41.1734 3.9132C35.2535 5.85637 27.7068 11.0532 20.7475 19.9557L16.6352 15.3915C16.0025 14.6685 14.8276 14.6685 14.1949 15.3915L11.1672 18.7808C10.5797 19.4586 10.6249 20.4528 11.2576 21.0403L20.5667 29.9879C21.335 30.711 22.6003 30.5302 23.1426 29.5812C28.1135 20.5884 33.4459 13.9002 42.484 6.2179C43.5685 5.2689 42.5743 3.4613 41.1734 3.9132Z" fill="#008DD2"/>
</svg>
