<svg width="54" height="54" viewBox="0 0 54 54" fill="none" xmlns="http://www.w3.org/2000/svg">
<path d="M31.5015 23.2327L25.418 28.9786L22.4987 25.9749C22.1696 25.6374 21.638 25.6374 21.309 25.958C20.9715 26.287 20.9715 26.8186 21.2921 27.1477L24.7937 30.742C24.9624 30.9108 25.1818 30.9952 25.4012 30.9952C25.6121 30.9952 25.8146 30.9192 25.9834 30.7674L32.6743 24.4561C33.0118 24.1355 33.0287 23.6039 32.708 23.2664C32.379 22.9289 31.8474 22.912 31.5015 23.2327Z" fill="#008DD2"/>
<path d="M26.9875 14.3902C20.035 14.3902 14.3818 20.0433 14.3818 26.9958C14.3818 33.9483 20.035 39.6014 26.9875 39.6014C33.94 39.6014 39.5931 33.9483 39.5931 26.9958C39.5931 20.0433 33.94 14.3902 26.9875 14.3902ZM26.9875 37.9139C20.9631 37.9139 16.0693 33.0117 16.0693 26.9958C16.0693 20.9799 20.9631 16.0777 26.9875 16.0777C33.0118 16.0777 37.9056 20.9714 37.9056 26.9958C37.9056 33.0202 33.0118 37.9139 26.9875 37.9139Z" fill="#008DD2"/>
<path d="M44.3348 22.3552L44.6133 17.3517C44.6302 17.0142 44.453 16.702 44.1492 16.5502L39.6942 14.2973L37.4414 9.84234C37.2895 9.54703 36.9773 9.36141 36.6398 9.37828L31.628 9.64828L27.4514 6.88922C27.173 6.70359 26.8017 6.70359 26.5233 6.88922L22.3467 9.64828L17.3433 9.36984C17.0058 9.35297 16.6936 9.53016 16.5417 9.83391L14.2889 14.2889L9.83391 16.5417C9.53859 16.6936 9.35297 17.0058 9.36984 17.3433L9.64828 22.3467L6.88922 26.5233C6.70359 26.8017 6.70359 27.173 6.88922 27.4514L9.63984 31.6364L9.36141 36.6398C9.34453 36.9773 9.52172 37.2895 9.82547 37.4414L14.2805 39.6942L16.5333 44.1492C16.6852 44.4445 16.9973 44.6302 17.3348 44.6133L22.3383 44.3348L26.5148 47.0939C26.6583 47.1867 26.8186 47.2373 26.9789 47.2373C27.1392 47.2373 27.2995 47.1867 27.443 47.0939L31.6195 44.3348L36.623 44.6133C36.9605 44.6302 37.2727 44.453 37.4245 44.1492L39.6773 39.6942L44.1323 37.4414C44.4277 37.2895 44.6133 36.9773 44.5964 36.6398L44.318 31.6364L47.077 27.4598C47.2627 27.1814 47.2627 26.8102 47.077 26.5317L44.3348 22.3552ZM42.7655 30.9445C42.6642 31.0964 42.6136 31.2736 42.6305 31.4592L42.892 36.1927L38.6817 38.3189C38.5214 38.4033 38.3864 38.5298 38.3105 38.6902L36.1842 42.9005L31.4508 42.6389C31.2736 42.6305 31.088 42.6811 30.9361 42.7739L26.9873 45.3811L23.0386 42.7739C22.9036 42.6811 22.7348 42.6305 22.5745 42.6305C22.5577 42.6305 22.5408 42.6305 22.5323 42.6305L17.7989 42.892L15.6727 38.6817C15.5883 38.5214 15.4617 38.3864 15.3014 38.3105L11.0827 36.1927L11.3442 31.4592C11.3527 31.282 11.302 31.0964 11.2092 30.9445L8.60203 26.9958L11.2092 23.047C11.3105 22.8952 11.3611 22.718 11.3442 22.5323L11.0827 17.7989L15.293 15.6727C15.4533 15.5883 15.5883 15.4617 15.6642 15.3014L17.7905 11.0911L22.5239 11.3527C22.7011 11.3611 22.8867 11.3105 23.0386 11.2177L26.9873 8.61047L30.9361 11.2177C31.088 11.3189 31.2652 11.3695 31.4508 11.3527L36.1842 11.0911L38.3105 15.3014C38.3948 15.4617 38.5214 15.5967 38.6817 15.6727L42.892 17.7989L42.6305 22.5323C42.622 22.7095 42.6727 22.8952 42.7655 23.047L45.3727 26.9958L42.7655 30.9445Z" fill="#008DD2"/>
</svg>
