<svg width="54" height="54" viewBox="0 0 54 54" fill="none" xmlns="http://www.w3.org/2000/svg">
<path d="M44.1818 19.6364H35.3454V10.8C35.3454 10.5396 35.2419 10.2899 35.0578 10.1058C34.8737 9.92163 34.624 9.81818 34.3636 9.81818H10.7999C10.5395 9.81818 10.2898 9.92163 10.1057 10.1058C9.92156 10.2899 9.81812 10.5396 9.81812 10.8V34.3636C9.81812 34.624 9.92156 34.8738 10.1057 35.0579C10.2898 35.242 10.5395 35.3455 10.7999 35.3455H19.6363V44.1818C19.6363 44.4422 19.7397 44.6919 19.9239 44.8761C20.108 45.0602 20.3577 45.1636 20.6181 45.1636H44.1818C44.4421 45.1636 44.6919 45.0602 44.876 44.8761C45.0601 44.6919 45.1636 44.4422 45.1636 44.1818V20.6182C45.1636 20.3578 45.0601 20.1081 44.876 19.9239C44.6919 19.7398 44.4421 19.6364 44.1818 19.6364ZM11.7818 11.7818H33.3818V33.3818H11.7818V11.7818ZM43.1999 43.2H21.5999V35.3455H34.3636C34.624 35.3455 34.8737 35.242 35.0578 35.0579C35.2419 34.8738 35.3454 34.624 35.3454 34.3636V21.6H43.1999V43.2Z" fill="#008DD2"/>
<path d="M20.6181 21.6003C20.8134 21.6011 21.0045 21.5438 21.1672 21.4358C21.3299 21.3278 21.4569 21.1739 21.532 20.9936C21.6071 20.8133 21.627 20.6147 21.5891 20.4231C21.5512 20.2316 21.4572 20.0555 21.3191 19.9174C21.181 19.7793 21.005 19.6854 20.8134 19.6474C20.6218 19.6095 20.4232 19.6294 20.2429 19.7045C20.0627 19.7796 19.9087 19.9066 19.8007 20.0693C19.6927 20.232 19.6355 20.4232 19.6362 20.6185C19.638 20.8788 19.74 21.1284 19.921 21.3156C20.1092 21.4948 20.3581 21.5964 20.6181 21.6003Z" fill="#008DD2"/>
<path d="M21.5999 30.4364V29.4545C21.5999 29.1942 21.4964 28.9444 21.3123 28.7603C21.1282 28.5762 20.8784 28.4727 20.618 28.4727C20.3577 28.4727 20.1079 28.5762 19.9238 28.7603C19.7397 28.9444 19.6362 29.1942 19.6362 29.4545V30.4364C19.6362 30.6968 19.7397 30.9465 19.9238 31.1306C20.1079 31.3147 20.3577 31.4182 20.618 31.4182C20.8784 31.4182 21.1282 31.3147 21.3123 31.1306C21.4964 30.9465 21.5999 30.6968 21.5999 30.4364Z" fill="#008DD2"/>
<path d="M20.618 26.5091C20.8784 26.5091 21.1282 26.4057 21.3123 26.2215C21.4964 26.0374 21.5999 25.7877 21.5999 25.5273V24.5455C21.5999 24.2851 21.4964 24.0353 21.3123 23.8512C21.1282 23.6671 20.8784 23.5636 20.618 23.5636C20.3577 23.5636 20.1079 23.6671 19.9238 23.8512C19.7397 24.0353 19.6362 24.2851 19.6362 24.5455V25.5273C19.6362 25.7877 19.7397 26.0374 19.9238 26.2215C20.1079 26.4057 20.3577 26.5091 20.618 26.5091Z" fill="#008DD2"/>
<path d="M24.5453 21.6H25.5271C25.7875 21.6 26.0372 21.4966 26.2214 21.3124C26.4055 21.1283 26.5089 20.8786 26.5089 20.6182C26.5089 20.3578 26.4055 20.1081 26.2214 19.9239C26.0372 19.7398 25.7875 19.6364 25.5271 19.6364H24.5453C24.2849 19.6364 24.0352 19.7398 23.851 19.9239C23.6669 20.1081 23.5635 20.3578 23.5635 20.6182C23.5635 20.8786 23.6669 21.1283 23.851 21.3124C24.0352 21.4966 24.2849 21.6 24.5453 21.6Z" fill="#008DD2"/>
<path d="M29.4545 21.6H30.4363C30.6967 21.6 30.9464 21.4966 31.1305 21.3124C31.3147 21.1283 31.4181 20.8786 31.4181 20.6182C31.4181 20.3578 31.3147 20.1081 31.1305 19.9239C30.9464 19.7398 30.6967 19.6364 30.4363 19.6364H29.4545C29.1941 19.6364 28.9444 19.7398 28.7602 19.9239C28.5761 20.1081 28.4727 20.3578 28.4727 20.6182C28.4727 20.8786 28.5761 21.1283 28.7602 21.3124C28.9444 21.4966 29.1941 21.6 29.4545 21.6Z" fill="#008DD2"/>
</svg>
