<svg width="55" height="55" viewBox="0 0 55 55" fill="none" xmlns="http://www.w3.org/2000/svg">
<path d="M43.1024 32.5478L40.9324 31.6798C40.6354 30.6244 40.2143 29.608 39.678 28.6518L40.5979 26.5011C40.7293 26.2041 40.7755 25.8765 40.7311 25.5548C40.6868 25.2331 40.5538 24.9301 40.347 24.6798C40.0502 24.3252 39.7249 23.9698 39.3778 23.6228C39.0308 23.2757 38.6754 22.9538 38.32 22.6528C38.0694 22.4471 37.7668 22.3147 37.4456 22.2705C37.1245 22.2262 36.7973 22.2717 36.5004 22.4019L34.3488 23.3217C33.3928 22.7851 32.3763 22.3641 31.3209 22.0674L30.4529 19.8932C30.3348 19.5909 30.135 19.3274 29.8759 19.1321C29.6167 18.9367 29.3084 18.8172 28.9853 18.7869C28.0315 18.7058 27.0725 18.7058 26.1187 18.7869C25.7948 18.8168 25.4856 18.9362 25.2258 19.1319C24.966 19.3276 24.7659 19.5918 24.6478 19.8949L23.7798 22.0691C22.7244 22.366 21.708 22.787 20.7518 23.3234L18.5986 22.4036C18.3016 22.2734 17.9743 22.2284 17.6533 22.2736C17.3322 22.3188 17.0301 22.4524 16.7806 22.6595C16.4261 22.9563 16.0698 23.2816 15.7228 23.6295C15.3758 23.9773 15.048 24.3336 14.7528 24.6873C14.5466 24.9375 14.414 25.24 14.3697 25.5611C14.3254 25.8823 14.3712 26.2094 14.5019 26.5061L15.4218 28.6585C14.8852 29.6146 14.4641 30.631 14.1674 31.6865L11.9933 32.5545C11.6911 32.6724 11.4277 32.872 11.2324 33.131C11.0372 33.39 10.9179 33.6982 10.8878 34.0212C10.8451 34.4761 10.8242 34.9586 10.8242 35.4486C10.8242 35.9387 10.8451 36.4212 10.8869 36.8827C10.9172 37.206 11.0369 37.5144 11.2326 37.7735C11.4283 38.0325 11.6923 38.232 11.9949 38.3495L14.1691 39.2175C14.4658 40.2729 14.8868 41.2894 15.4234 42.2454L14.5036 44.397C14.3733 44.6942 14.3282 45.0218 14.3734 45.3431C14.4186 45.6645 14.5523 45.9669 14.7595 46.2167C15.0538 46.5704 15.38 46.9258 15.7287 47.2745C16.0774 47.6232 16.4319 47.9434 16.7865 48.2445C17.0366 48.4511 17.3393 48.5841 17.6607 48.6284C17.982 48.6727 18.3094 48.6266 18.6061 48.4954L20.7577 47.5755C21.7138 48.1121 22.7302 48.5331 23.7857 48.8298L24.6478 51.0023C24.7659 51.3048 24.9658 51.5684 25.2251 51.7637C25.4844 51.9591 25.7929 52.0785 26.1162 52.1087C26.5778 52.1496 27.0595 52.1706 27.5487 52.1706C28.0378 52.1706 28.5195 52.1496 28.9828 52.1087C29.3057 52.0782 29.6139 51.9587 29.8729 51.7633C30.1319 51.568 30.3315 51.3045 30.4495 51.0023L31.3175 48.8324C32.3728 48.5353 33.3892 48.1143 34.3455 47.578L36.4962 48.4979C36.7932 48.6293 37.1208 48.6754 37.4425 48.6311C37.7642 48.5868 38.0672 48.4538 38.3175 48.247C38.6721 47.9501 39.0275 47.6248 39.3745 47.2778C39.7215 46.9308 40.0435 46.5754 40.3445 46.22C40.5511 45.97 40.684 45.6675 40.7283 45.3462C40.7726 45.025 40.7266 44.6978 40.5954 44.4012L39.6755 42.2488C40.2118 41.2926 40.6329 40.2762 40.9299 39.2208L43.1024 38.3495C43.4047 38.2314 43.6682 38.0317 43.8636 37.7725C44.0589 37.5134 44.1784 37.205 44.2087 36.8819C44.2497 36.4195 44.2706 35.937 44.2706 35.4486C44.2706 34.9603 44.2497 34.4778 44.2087 34.0145C44.1783 33.6915 44.0587 33.3834 43.8633 33.1244C43.668 32.8654 43.4045 32.6658 43.1024 32.5478ZM42.5429 36.7289C42.5389 36.7439 42.5311 36.7576 42.5203 36.7687C42.5094 36.7798 42.4959 36.788 42.4811 36.7924L39.9247 37.8202C39.8015 37.8693 39.6918 37.947 39.6046 38.0469C39.5173 38.1467 39.4551 38.266 39.423 38.3946C39.1294 39.5789 38.6588 40.7122 38.0273 41.7562C37.959 41.8699 37.9186 41.9982 37.9096 42.1305C37.9006 42.2628 37.9232 42.3953 37.9755 42.5172L39.0626 45.0576C39.0689 45.0707 39.0722 45.085 39.0722 45.0995C39.0722 45.1139 39.0689 45.1282 39.0626 45.1413C38.7967 45.4582 38.5048 45.776 38.1929 46.0887C37.881 46.4015 37.5624 46.6925 37.2463 46.9575C37.2324 46.9645 37.2171 46.9682 37.2016 46.9682C37.186 46.9682 37.1707 46.9645 37.1568 46.9575L34.6181 45.8705C34.4963 45.8177 34.3637 45.7949 34.2313 45.8039C34.0989 45.813 33.9706 45.8535 33.8571 45.9223C32.8131 46.5538 31.6798 47.0243 30.4955 47.318C30.3668 47.35 30.2476 47.4123 30.1477 47.4995C30.0478 47.5867 29.9701 47.6965 29.921 47.8197L28.8958 50.3835C28.8914 50.3983 28.8833 50.4117 28.8723 50.4225C28.8614 50.4333 28.8479 50.4412 28.8331 50.4454C27.9786 50.5182 27.1195 50.5182 26.2651 50.4454C26.25 50.4413 26.2363 50.4335 26.225 50.4227C26.2138 50.4118 26.2054 50.3984 26.2007 50.3835L25.1771 47.8247C25.1279 47.7014 25.0501 47.5916 24.9501 47.5044C24.85 47.4171 24.7306 47.3549 24.6018 47.323C23.4182 47.0293 22.2855 46.5591 21.2419 45.9282C21.1114 45.8494 20.9619 45.8077 20.8095 45.8077C20.6962 45.8073 20.584 45.8304 20.4801 45.8755L17.9405 46.9626C17.927 46.97 17.9119 46.9739 17.8966 46.9739C17.8812 46.9739 17.8661 46.97 17.8527 46.9626C17.5366 46.6983 17.218 46.4065 16.9052 46.0937C16.5925 45.781 16.2998 45.4615 16.0372 45.1471C16.0299 45.1333 16.0261 45.118 16.0261 45.1024C16.0261 45.0868 16.0299 45.0714 16.0372 45.0576L17.1243 42.5189C17.1765 42.397 17.199 42.2644 17.1898 42.132C17.1806 41.9997 17.1401 41.8715 17.0716 41.7579C16.4407 40.7137 15.9705 39.5805 15.6768 38.3963C15.6447 38.2676 15.5825 38.1484 15.4953 38.0485C15.408 37.9486 15.2983 37.8709 15.1751 37.8218L12.6137 36.7958C12.5989 36.7914 12.5855 36.7832 12.5748 36.772C12.5641 36.7609 12.5565 36.7472 12.5527 36.7322C12.5151 36.3208 12.4967 35.8885 12.4967 35.4486C12.4967 35.0088 12.5151 34.5764 12.5527 34.165C12.5565 34.1501 12.5641 34.1363 12.5748 34.1252C12.5855 34.1141 12.5989 34.1059 12.6137 34.1015L15.1726 33.0771C15.2958 33.028 15.4055 32.9503 15.4928 32.8504C15.58 32.7505 15.6422 32.6313 15.6743 32.5026C15.968 31.3185 16.4382 30.1853 17.0691 29.141C17.1376 29.0274 17.1781 28.8992 17.1873 28.7669C17.1964 28.6346 17.174 28.502 17.1218 28.38L16.0347 25.8404C16.0274 25.8268 16.0236 25.8116 16.0236 25.7961C16.0236 25.7807 16.0274 25.7654 16.0347 25.7518C16.2973 25.4374 16.5891 25.1188 16.9027 24.8052C17.2163 24.4916 17.5341 24.2006 17.8493 23.9364C17.8632 23.9294 17.8785 23.9257 17.8941 23.9257C17.9096 23.9257 17.9249 23.9294 17.9388 23.9364L20.4776 25.0235C20.5996 25.0758 20.7324 25.0983 20.8648 25.0891C20.9973 25.08 21.1257 25.0394 21.2394 24.9708C22.2837 24.339 23.4172 23.8682 24.6018 23.5743C24.7306 23.5423 24.85 23.4801 24.9501 23.3929C25.0501 23.3056 25.1279 23.1958 25.1771 23.0725L26.2007 20.5129C26.2053 20.4981 26.2136 20.4847 26.2246 20.4739C26.2357 20.4631 26.2493 20.4553 26.2642 20.451C27.1187 20.3782 27.9778 20.3782 28.8323 20.451C28.8472 20.455 28.8609 20.4628 28.8721 20.4737C28.8832 20.4845 28.8914 20.498 28.8958 20.5129L29.9202 23.0725C29.9693 23.1957 30.047 23.3055 30.1469 23.3927C30.2468 23.48 30.366 23.5422 30.4947 23.5743C31.679 23.8679 32.8122 24.3384 33.8563 24.9699C33.97 25.0384 34.0984 25.0789 34.2309 25.0879C34.3634 25.0969 34.4961 25.0742 34.6181 25.0218L37.156 23.9347C37.1699 23.9283 37.185 23.9249 37.2003 23.9249C37.2156 23.9249 37.2308 23.9283 37.2446 23.9347C37.5616 24.2006 37.8793 24.4925 38.1921 24.8044C38.5048 25.1163 38.7958 25.4349 39.0609 25.751C39.068 25.7648 39.0717 25.7801 39.0717 25.7957C39.0717 25.8113 39.068 25.8266 39.0609 25.8404L37.9738 28.3792C37.9215 28.5011 37.8989 28.6336 37.9079 28.7659C37.917 28.8983 37.9573 29.0265 38.0257 29.1402C38.6572 30.1842 39.1277 31.3175 39.4213 32.5018C39.4534 32.6305 39.5156 32.7497 39.6029 32.8496C39.6901 32.9494 39.7999 33.0272 39.9231 33.0763L42.4827 34.1006C42.4975 34.1051 42.5109 34.1131 42.5217 34.1241C42.5325 34.1351 42.5404 34.1486 42.5446 34.1634C42.5814 34.5764 42.5998 35.0088 42.5998 35.4478C42.5998 35.8868 42.5822 36.32 42.5455 36.7322L42.5429 36.7289Z" fill="#008DD2"/>
<path d="M34.6435 28.3533C34.636 28.3458 34.626 28.3433 34.6184 28.3357C32.7413 26.4647 30.199 25.4141 27.5486 25.4141C24.8982 25.4141 22.3559 26.4647 20.4788 28.3357C20.4704 28.3433 20.4604 28.3449 20.4528 28.3533C20.4453 28.3617 20.4428 28.3709 20.4353 28.3792C18.5643 30.2562 17.5137 32.7984 17.5137 35.4486C17.5137 38.0989 18.5643 40.641 20.4353 42.5181C20.4428 42.5264 20.4445 42.5365 20.4528 42.544C20.4612 42.5515 20.4704 42.554 20.4788 42.5615C22.3559 44.4326 24.8982 45.4832 27.5486 45.4832C30.199 45.4832 32.7413 44.4326 34.6184 42.5615C34.626 42.554 34.636 42.5515 34.6435 42.544C34.651 42.5365 34.6536 42.5264 34.6611 42.5189C36.5322 40.6416 37.5828 38.0992 37.5828 35.4486C37.5828 32.7981 36.5322 30.2557 34.6611 28.3784C34.6561 28.3709 34.651 28.3608 34.6435 28.3533ZM35.0742 36.2849H35.8678C35.7042 37.9188 35.0609 39.4678 34.0189 40.7369L33.4611 40.1791C33.3034 40.0268 33.0922 39.9425 32.8729 39.9444C32.6537 39.9463 32.4439 40.0343 32.2889 40.1893C32.1338 40.3444 32.0459 40.5541 32.044 40.7734C32.0421 40.9926 32.1264 41.2038 32.2787 41.3616L32.8364 41.9193C31.5673 42.9614 30.0183 43.6046 28.3844 43.7682V42.9746C28.3844 42.7529 28.2963 42.5402 28.1395 42.3833C27.9827 42.2265 27.77 42.1384 27.5482 42.1384C27.3264 42.1384 27.1137 42.2265 26.9569 42.3833C26.8001 42.5402 26.712 42.7529 26.712 42.9746V43.7682C25.0779 43.605 23.5288 42.9617 22.2599 41.9193L22.8177 41.3616C22.97 41.2038 23.0543 40.9926 23.0524 40.7734C23.0505 40.5541 22.9625 40.3444 22.8075 40.1893C22.6524 40.0343 22.4427 39.9463 22.2235 39.9444C22.0042 39.9425 21.793 40.0268 21.6353 40.1791L21.0775 40.7369C20.035 39.4681 19.3917 37.9189 19.2286 36.2849H20.0222C20.244 36.2849 20.4567 36.1968 20.6135 36.0399C20.7703 35.8831 20.8584 35.6704 20.8584 35.4486C20.8584 35.2269 20.7703 35.0142 20.6135 34.8573C20.4567 34.7005 20.244 34.6124 20.0222 34.6124H19.2286C19.3917 32.9784 20.035 31.4292 21.0775 30.1604L21.6353 30.7181C21.793 30.8705 22.0042 30.9547 22.2235 30.9528C22.4427 30.9509 22.6524 30.863 22.8075 30.7079C22.9625 30.5529 23.0505 30.3432 23.0524 30.1239C23.0543 29.9047 22.97 29.6934 22.8177 29.5357L22.2599 28.978C23.5288 27.9356 25.0779 27.2923 26.712 27.1291V27.9226C26.712 28.1444 26.8001 28.3571 26.9569 28.5139C27.1137 28.6708 27.3264 28.7589 27.5482 28.7589C27.77 28.7589 27.9827 28.6708 28.1395 28.5139C28.2963 28.3571 28.3844 28.1444 28.3844 27.9226V27.1291C30.0183 27.2926 31.5673 27.9359 32.8364 28.978L32.2787 29.5357C32.1988 29.6129 32.1351 29.7051 32.0913 29.8072C32.0475 29.9092 32.0244 30.0189 32.0234 30.1299C32.0225 30.241 32.0436 30.3511 32.0857 30.4538C32.1277 30.5566 32.1898 30.65 32.2683 30.7285C32.3468 30.807 32.4402 30.8691 32.543 30.9112C32.6457 30.9532 32.7559 30.9744 32.8669 30.9734C32.9779 30.9724 33.0876 30.9494 33.1897 30.9055C33.2917 30.8617 33.384 30.798 33.4611 30.7181L34.0189 30.1604C35.0609 31.4295 35.7042 32.9785 35.8678 34.6124H35.0742C34.8524 34.6124 34.6397 34.7005 34.4829 34.8573C34.3261 35.0142 34.238 35.2269 34.238 35.4486C34.238 35.6704 34.3261 35.8831 34.4829 36.0399C34.6397 36.1968 34.8524 36.2849 35.0742 36.2849Z" fill="#008DD2"/>
<path d="M29.9772 36.058C30.1037 35.5887 30.0867 35.0923 29.9284 34.6328C29.7701 34.1733 29.4778 33.7718 29.0892 33.4799L30.0174 30.6945C30.0521 30.5901 30.0659 30.48 30.058 30.3704C30.0502 30.2607 30.0208 30.1536 29.9715 30.0553C29.9223 29.957 29.8542 29.8694 29.7711 29.7974C29.688 29.7254 29.5915 29.6705 29.4872 29.6358C29.3829 29.6011 29.2727 29.5873 29.1631 29.5952C29.0534 29.603 28.9464 29.6324 28.8481 29.6816C28.7498 29.7309 28.6621 29.799 28.5901 29.8821C28.5182 29.9652 28.4632 30.0617 28.4285 30.166L27.502 32.9439C27.1048 32.9477 26.7142 33.0459 26.3623 33.2302C26.0104 33.4145 25.7073 33.6797 25.478 34.004C25.2486 34.3284 25.0996 34.7025 25.0431 35.0957C24.9866 35.4889 25.0243 35.8899 25.1531 36.2657C25.2818 36.6415 25.498 36.9813 25.7838 37.2572C26.0695 37.5331 26.4167 37.7372 26.7968 37.8527C27.1769 37.9682 27.579 37.9918 27.9699 37.9216C28.3609 37.8513 28.7296 37.6892 29.0457 37.4486L29.5926 37.8149C29.7769 37.9336 30.0005 37.9752 30.2152 37.9307C30.4299 37.8862 30.6185 37.7591 30.7404 37.5769C30.8623 37.3947 30.9078 37.1719 30.867 36.9564C30.8263 36.741 30.7025 36.5502 30.5224 36.4251L29.9772 36.058ZM26.716 35.4476C26.716 35.2822 26.765 35.1205 26.8569 34.983C26.9488 34.8455 27.0794 34.7383 27.2322 34.675C27.385 34.6117 27.5531 34.5951 27.7153 34.6274C27.8775 34.6597 28.0265 34.7393 28.1435 34.8563C28.2604 34.9732 28.3401 35.1222 28.3723 35.2844C28.4046 35.4466 28.388 35.6148 28.3248 35.7676C28.2615 35.9204 28.1543 36.051 28.0168 36.1428C27.8792 36.2347 27.7176 36.2838 27.5522 36.2838C27.3304 36.2838 27.1177 36.1957 26.9609 36.0389C26.8041 35.882 26.716 35.6693 26.716 35.4476Z" fill="#008DD2"/>
<path d="M11.4172 12.6239L12.4984 11.5427V22.9036C12.4984 23.1254 12.5865 23.3381 12.7433 23.4949C12.9001 23.6517 13.1128 23.7398 13.3346 23.7398C13.5564 23.7398 13.7691 23.6517 13.9259 23.4949C14.0827 23.3381 14.1708 23.1254 14.1708 22.9036V11.5427L15.2521 12.6239C15.4098 12.7762 15.621 12.8605 15.8403 12.8586C16.0595 12.8567 16.2693 12.7688 16.4243 12.6137C16.5793 12.4587 16.6673 12.2489 16.6692 12.0297C16.6711 11.8104 16.5868 11.5992 16.4345 11.4415L13.9258 8.93282C13.769 8.77606 13.5563 8.68799 13.3346 8.68799C13.1129 8.68799 12.9002 8.77606 12.7434 8.93282L10.2347 11.4415C10.0824 11.5992 9.99813 11.8104 10 12.0297C10.0019 12.2489 10.0899 12.4587 10.2449 12.6137C10.4 12.7688 10.6097 12.8567 10.829 12.8586C11.0482 12.8605 11.2594 12.7762 11.4172 12.6239Z" fill="#008DD2"/>
<path d="M20.0221 19.5628C20.2439 19.5628 20.4566 19.4747 20.6134 19.3179C20.7702 19.1611 20.8583 18.9484 20.8583 18.7266V7.36567L21.9396 8.4469C22.0973 8.59923 22.3085 8.68351 22.5278 8.68161C22.747 8.6797 22.9568 8.59176 23.1118 8.43672C23.2668 8.28167 23.3548 8.07194 23.3567 7.85268C23.3586 7.63343 23.2743 7.4222 23.122 7.26449L20.6133 4.75582C20.4565 4.59905 20.2438 4.51099 20.0221 4.51099C19.8004 4.51099 19.5877 4.59905 19.4309 4.75582L16.9222 7.26449C16.7699 7.4222 16.6856 7.63343 16.6875 7.85268C16.6894 8.07194 16.7774 8.28167 16.9324 8.43672C17.0875 8.59176 17.2972 8.6797 17.5165 8.68161C17.7357 8.68351 17.9469 8.59923 18.1047 8.4469L19.1859 7.36567V18.7266C19.1859 18.9484 19.274 19.1611 19.4308 19.3179C19.5876 19.4747 19.8003 19.5628 20.0221 19.5628Z" fill="#008DD2"/>
<path d="M42.3555 8.93282C42.1987 8.77606 41.986 8.68799 41.7643 8.68799C41.5426 8.68799 41.3299 8.77606 41.1731 8.93282L38.6644 11.4415C38.5121 11.5992 38.4278 11.8104 38.4297 12.0297C38.4316 12.2489 38.5196 12.4587 38.6746 12.6137C38.8297 12.7688 39.0394 12.8567 39.2586 12.8586C39.4779 12.8605 39.6891 12.7762 39.8468 12.6239L40.9281 11.5427V22.9036C40.9281 23.1254 41.0162 23.3381 41.173 23.4949C41.3298 23.6517 41.5425 23.7398 41.7643 23.7398C41.9861 23.7398 42.1988 23.6517 42.3556 23.4949C42.5124 23.3381 42.6005 23.1254 42.6005 22.9036V11.5427L43.6818 12.6239C43.8395 12.7762 44.0507 12.8605 44.27 12.8586C44.4892 12.8567 44.6989 12.7688 44.854 12.6137C45.009 12.4587 45.097 12.2489 45.0989 12.0297C45.1008 11.8104 45.0165 11.5992 44.8642 11.4415L42.3555 8.93282Z" fill="#008DD2"/>
<path d="M35.0768 19.5628C35.2986 19.5628 35.5113 19.4747 35.6681 19.3179C35.8249 19.1611 35.913 18.9484 35.913 18.7266V7.36567L36.9943 8.4469C37.152 8.59923 37.3632 8.68351 37.5825 8.68161C37.8017 8.6797 38.0114 8.59176 38.1665 8.43672C38.3215 8.28167 38.4095 8.07194 38.4114 7.85268C38.4133 7.63343 38.329 7.4222 38.1767 7.26449L35.668 4.75582C35.5112 4.59905 35.2985 4.51099 35.0768 4.51099C34.8551 4.51099 34.6424 4.59905 34.4856 4.75582L31.9769 7.26449C31.8246 7.4222 31.7403 7.63343 31.7422 7.85268C31.7441 8.07194 31.8321 8.28167 31.9871 8.43672C32.1422 8.59176 32.3519 8.6797 32.5711 8.68161C32.7904 8.68351 33.0016 8.59923 33.1593 8.4469L34.2406 7.36567V18.7266C34.2406 18.9484 34.3287 19.1611 34.4855 19.3179C34.6423 19.4747 34.855 19.5628 35.0768 19.5628Z" fill="#008DD2"/>
<path d="M27.5514 17.0518C27.7732 17.0518 27.9859 16.9637 28.1427 16.8069C28.2995 16.6501 28.3876 16.4374 28.3876 16.2156V4.85468L29.4689 5.93592C29.6266 6.08824 29.8378 6.17253 30.0571 6.17062C30.2763 6.16872 30.4861 6.08077 30.6411 5.92573C30.7961 5.77069 30.8841 5.56095 30.886 5.3417C30.8879 5.12244 30.8036 4.91121 30.6513 4.7535L28.1426 2.24483C27.9858 2.08807 27.7731 2 27.5514 2C27.3297 2 27.117 2.08807 26.9602 2.24483L24.4515 4.7535C24.2992 4.91121 24.2149 5.12244 24.2168 5.3417C24.2187 5.56095 24.3067 5.77069 24.4617 5.92573C24.6168 6.08077 24.8265 6.16872 25.0458 6.17062C25.265 6.17253 25.4762 6.08824 25.634 5.93592L26.7152 4.85468V16.2156C26.7152 16.4374 26.8033 16.6501 26.9601 16.8069C27.1169 16.9637 27.3296 17.0518 27.5514 17.0518Z" fill="#008DD2"/>
</svg>
