<svg width="54" height="54" viewBox="0 0 54 54" fill="none" xmlns="http://www.w3.org/2000/svg">
<path d="M45.014 29.8434C45.3515 32.8809 43.875 35.8678 41.175 37.4203C39.4115 38.4328 37.3781 38.7028 35.4712 38.2387C35.4712 40.4156 33.7247 42.1537 31.5815 42.1537H25.2028C25.0931 42.1791 19.8956 45.2503 19.2122 45.6047C17.3897 46.6003 15.1875 45.9759 14.175 44.2294C13.7615 43.5122 13.5253 42.9975 13.5084 42.1537H12.8334C10.6903 42.1537 8.94373 40.3987 8.94373 38.2641V31.7166C8.94373 27.405 11.6184 23.5744 15.5587 22.0134C14.4703 20.1825 13.8122 18.0394 13.8122 16.1241C13.8122 5.0878 30.5944 5.0878 30.5944 16.1241C30.5944 18.0394 29.9362 20.1825 28.8478 22.0134C30.2569 22.5703 31.5225 23.4309 32.5687 24.5278C35.3362 22.4184 39.1247 22.41 41.8837 24.4434C42.255 24.7134 42.1959 25.2619 41.8162 25.4812L36.4331 28.5862V31.185L38.6859 32.4844L44.0859 29.3709C44.4825 29.1516 44.9634 29.4047 45.014 29.8434ZM34.2394 37.8422C33.9525 37.7156 33.674 37.5806 33.4125 37.4287L27.3459 40.9303H31.5815C33.0412 40.9303 34.2394 39.7322 34.2394 38.2725V37.8422ZM13.7025 40.9303C13.9725 40.1034 14.58 39.2934 15.3984 38.8547L29.5228 30.7041C29.5228 28.7212 30.2822 26.7975 31.6575 25.3547C30.6787 24.3422 29.4806 23.5491 28.1559 23.0681C24.7134 27.7003 19.7184 27.7172 16.259 23.0681C12.6562 24.3759 10.184 27.8184 10.184 31.725V38.2725C10.184 39.7322 11.3822 40.9303 12.8419 40.9303H13.7025ZM43.1156 33.6572C43.5459 32.8134 43.7822 31.8937 43.8159 30.9487L39.0065 33.7247C38.8209 33.8344 38.5847 33.8428 38.3906 33.7247L35.5387 32.0794C35.3447 31.9781 35.2097 31.7756 35.2097 31.5394V28.2656C35.2012 28.0378 35.3109 27.8184 35.5134 27.6919L40.3228 24.9075C38.3569 23.8697 35.9775 23.895 34.0115 25.0341C31.9022 26.2491 30.6365 28.5694 30.7547 31.0162C30.7631 31.2441 30.6534 31.4634 30.4509 31.5816L15.9806 39.9347C14.7994 40.6181 14.3944 42.1453 15.0694 43.3265L15.2381 43.6219C15.9215 44.8116 17.4909 45.2081 18.6215 44.5331L24.6797 41.0316C24.705 41.0147 24.7303 40.9978 24.7556 40.9894L33.075 36.1884C33.269 36.0619 33.5222 36.0619 33.7331 36.1969C35.775 37.5047 38.399 37.5975 40.5422 36.3572C41.7234 35.6653 42.5503 34.7878 43.1156 33.6572ZM15.0609 16.1241C15.0609 18.2587 15.9806 20.7309 17.4487 22.5787C20.3344 26.2237 24.0975 26.2237 26.9831 22.5787C28.4343 20.7394 29.3709 18.2841 29.3709 16.1241C29.3709 6.71624 15.0609 6.71624 15.0609 16.1241Z" fill="#008DD2" stroke="#008DD2" stroke-width="0.3"/>
</svg>
