<svg width="54" height="54" viewBox="0 0 54 54" fill="none" xmlns="http://www.w3.org/2000/svg">
<path d="M43.919 5.76019C42.7084 5.76251 41.5389 6.20018 40.6242 6.99329C39.7094 7.78641 39.1105 8.88206 38.9366 10.0802H7.91903C7.34617 10.0802 6.79676 10.3078 6.39168 10.7128C5.9866 11.1179 5.75903 11.6673 5.75903 12.2402V41.586C5.76092 42.3494 6.0642 43.0812 6.60287 43.6221L11.0971 48.1164C11.364 48.3847 11.6814 48.5974 12.031 48.7423C12.3807 48.8871 12.7555 48.9612 13.134 48.9602H42.479C43.0519 48.9602 43.6013 48.7326 44.0064 48.3275C44.4115 47.9225 44.639 47.3731 44.639 46.8002V15.7826C45.8921 15.5918 47.0272 14.9358 47.8182 13.9455C48.6092 12.9551 48.9981 11.7031 48.9073 10.4389C48.8164 9.17469 48.2526 7.9911 47.3282 7.124C46.4037 6.2569 45.1865 5.76995 43.919 5.76019ZM8.21711 43.2002H10.799C10.99 43.2002 11.1731 43.2761 11.3082 43.4111C11.4432 43.5461 11.519 43.7292 11.519 43.9202V46.5021L8.21711 43.2002ZM42.479 47.5202H13.134C13.0754 47.5181 13.0169 47.5123 12.959 47.5029V43.9202C12.959 43.3473 12.7315 42.7979 12.3264 42.3928C11.9213 41.9878 11.3719 41.7602 10.799 41.7602H7.21631C7.20699 41.7025 7.20122 41.6443 7.19903 41.586V12.2402C7.19903 12.0492 7.27489 11.8661 7.40992 11.7311C7.54494 11.5961 7.72808 11.5202 7.91903 11.5202H38.9366C39.0929 12.5951 39.5923 13.5908 40.3604 14.3589C41.1285 15.1269 42.1241 15.6263 43.199 15.7826V46.8002C43.199 46.9911 43.1232 47.1743 42.9882 47.3093C42.8531 47.4443 42.67 47.5202 42.479 47.5202ZM43.919 14.4002C43.207 14.4002 42.511 14.1891 41.919 13.7935C41.327 13.3979 40.8655 12.8357 40.5931 12.1779C40.3206 11.52 40.2493 10.7962 40.3882 10.0979C40.5271 9.39954 40.87 8.75808 41.3735 8.25461C41.8769 7.75114 42.5184 7.40827 43.2167 7.26937C43.915 7.13046 44.6389 7.20175 45.2967 7.47423C45.9545 7.7467 46.5168 8.20812 46.9123 8.80014C47.3079 9.39216 47.519 10.0882 47.519 10.8002C47.5179 11.7546 47.1382 12.6696 46.4634 13.3445C45.7885 14.0194 44.8735 14.399 43.919 14.4002Z" fill="#008DD2"/>
<path d="M18.7191 30.2397H31.6791C32.4429 30.2397 33.1755 29.9363 33.7156 29.3962C34.2557 28.8561 34.5591 28.1235 34.5591 27.3597V18.7197C34.5591 17.9559 34.2557 17.2234 33.7156 16.6832C33.1755 16.1431 32.4429 15.8397 31.6791 15.8397H29.5191V15.1197C29.5191 14.5468 29.2915 13.9974 28.8865 13.5924C28.4814 13.1873 27.932 12.9597 27.3591 12.9597H23.0391C22.4662 12.9597 21.9168 13.1873 21.5118 13.5924C21.1067 13.9974 20.8791 14.5468 20.8791 15.1197V15.8397H18.7191C17.9553 15.8397 17.2227 16.1431 16.6826 16.6832C16.1425 17.2234 15.8391 17.9559 15.8391 18.7197V27.3597C15.8391 28.1235 16.1425 28.8561 16.6826 29.3962C17.2227 29.9363 17.9553 30.2397 18.7191 30.2397ZM31.6791 28.7997H18.7191C18.3372 28.7997 17.9709 28.648 17.7009 28.3779C17.4308 28.1079 17.2791 27.7416 17.2791 27.3597V22.6394C17.715 22.8985 18.212 23.0367 18.7191 23.0397H22.3191V23.7597C22.3191 24.3326 22.5467 24.882 22.9518 25.2871C23.3568 25.6921 23.9062 25.9197 24.4791 25.9197H25.9191C26.492 25.9197 27.0414 25.6921 27.4465 25.2871C27.8515 24.882 28.0791 24.3326 28.0791 23.7597V23.0397H31.6791C32.1862 23.0367 32.6833 22.8985 33.1191 22.6394V27.3597C33.1191 27.7416 32.9674 28.1079 32.6973 28.3779C32.4273 28.648 32.061 28.7997 31.6791 28.7997ZM23.7591 23.0397H26.6391V23.7597C26.6391 23.9507 26.5633 24.1338 26.4282 24.2688C26.2932 24.4039 26.1101 24.4797 25.9191 24.4797H24.4791C24.2882 24.4797 24.105 24.4039 23.97 24.2688C23.835 24.1338 23.7591 23.9507 23.7591 23.7597V23.0397ZM22.3191 15.1197C22.3191 14.9288 22.395 14.7456 22.53 14.6106C22.665 14.4756 22.8482 14.3997 23.0391 14.3997H27.3591C27.5501 14.3997 27.7332 14.4756 27.8682 14.6106C28.0033 14.7456 28.0791 14.9288 28.0791 15.1197V15.8397H22.3191V15.1197ZM17.2791 18.7197C17.2791 18.3378 17.4308 17.9715 17.7009 17.7015C17.9709 17.4314 18.3372 17.2797 18.7191 17.2797H31.6791C32.061 17.2797 32.4273 17.4314 32.6973 17.7015C32.9674 17.9715 33.1191 18.3378 33.1191 18.7197V20.1597C33.1191 20.5416 32.9674 20.9079 32.6973 21.1779C32.4273 21.448 32.061 21.5997 31.6791 21.5997H18.7191C18.3372 21.5997 17.9709 21.448 17.7009 21.1779C17.4308 20.9079 17.2791 20.5416 17.2791 20.1597V18.7197Z" fill="#008DD2"/>
<path d="M39.5996 31.6799H10.7996C10.6086 31.6799 10.4255 31.7558 10.2905 31.8908C10.1554 32.0258 10.0796 32.209 10.0796 32.3999C10.0796 32.5909 10.1554 32.774 10.2905 32.909C10.4255 33.0441 10.6086 33.1199 10.7996 33.1199H39.5996C39.7905 33.1199 39.9737 33.0441 40.1087 32.909C40.2437 32.774 40.3196 32.5909 40.3196 32.3999C40.3196 32.209 40.2437 32.0258 40.1087 31.8908C39.9737 31.7558 39.7905 31.6799 39.5996 31.6799Z" fill="#008DD2"/>
<path d="M39.5996 35.2802H10.7996C10.6086 35.2802 10.4255 35.3561 10.2905 35.4911C10.1554 35.6261 10.0796 35.8093 10.0796 36.0002C10.0796 36.1912 10.1554 36.3743 10.2905 36.5093C10.4255 36.6444 10.6086 36.7202 10.7996 36.7202H39.5996C39.7905 36.7202 39.9737 36.6444 40.1087 36.5093C40.2437 36.3743 40.3196 36.1912 40.3196 36.0002C40.3196 35.8093 40.2437 35.6261 40.1087 35.4911C39.9737 35.3561 39.7905 35.2802 39.5996 35.2802Z" fill="#008DD2"/>
<path d="M39.5996 38.8801H10.7996C10.6086 38.8801 10.4255 38.9559 10.2905 39.0909C10.1554 39.226 10.0796 39.4091 10.0796 39.6001C10.0796 39.791 10.1554 39.9742 10.2905 40.1092C10.4255 40.2442 10.6086 40.3201 10.7996 40.3201H39.5996C39.7905 40.3201 39.9737 40.2442 40.1087 40.1092C40.2437 39.9742 40.3196 39.791 40.3196 39.6001C40.3196 39.4091 40.2437 39.226 40.1087 39.0909C39.9737 38.9559 39.7905 38.8801 39.5996 38.8801Z" fill="#008DD2"/>
<path d="M39.5992 42.4799H17.2792C17.0882 42.4799 16.9051 42.5558 16.7701 42.6908C16.6351 42.8258 16.5592 43.009 16.5592 43.1999C16.5592 43.3909 16.6351 43.574 16.7701 43.709C16.9051 43.8441 17.0882 43.9199 17.2792 43.9199H39.5992C39.7902 43.9199 39.9733 43.8441 40.1083 43.709C40.2433 43.574 40.3192 43.3909 40.3192 43.1999C40.3192 43.009 40.2433 42.8258 40.1083 42.6908C39.9733 42.5558 39.7902 42.4799 39.5992 42.4799Z" fill="#008DD2"/>
</svg>
