<svg width="54" height="54" viewBox="0 0 54 54" fill="none" xmlns="http://www.w3.org/2000/svg">
<path d="M11.6309 35.619C11.9384 35.6196 12.2454 35.5964 12.5492 35.5496L17.3544 34.8235C17.3648 34.8842 17.3828 34.9434 17.4078 34.9997L21.8446 44.61C22.0714 45.1008 22.3926 45.5421 22.79 45.9088C23.1874 46.2754 23.6531 46.5602 24.1605 46.7468C24.6679 46.9335 25.2072 47.0184 25.7474 46.9967C26.2876 46.9749 26.8183 46.847 27.3091 46.6202C27.7999 46.3934 28.2412 46.0721 28.6079 45.6747C28.9745 45.2774 29.2593 44.8117 29.4459 44.3042C29.6326 43.7968 29.7175 43.2576 29.6957 42.7173C29.674 42.1771 29.5461 41.6464 29.3193 41.1556L25.8168 33.5742L28.6946 33.1417C29.2333 33.0578 29.7847 33.1508 30.266 33.4069C30.7474 33.663 31.1327 34.0683 31.3641 34.5619C31.4061 34.6585 31.4676 34.7454 31.5448 34.817C31.622 34.8887 31.7132 34.9436 31.8126 34.9783C32.0095 35.0582 32.2297 35.0582 32.4266 34.9783L35.283 33.6542C35.7601 33.4353 36.1891 33.1241 36.5455 32.7387C36.902 32.3533 37.1787 31.9013 37.3598 31.4086C37.5409 30.9159 37.6228 30.3923 37.6008 29.8678C37.5789 29.3433 37.4534 28.8284 37.2318 28.3525L35.7208 24.9889C36.9556 24.2106 37.8644 23.0088 38.2771 21.6087C38.6897 20.2086 38.5779 18.706 37.9625 17.3824C37.3472 16.0588 36.2705 15.0048 34.9341 14.4178C33.5977 13.8308 32.0931 13.751 30.7021 14.1933L29.1644 10.8617C28.7188 9.90117 27.9104 9.15656 26.9165 8.79123C25.9226 8.42591 24.8244 8.46969 23.8627 8.91298L21.001 10.2371C20.905 10.2813 20.8188 10.3441 20.7472 10.4218C20.6756 10.4995 20.62 10.5906 20.5838 10.6898C20.5476 10.7891 20.5314 10.8945 20.5361 11.0001C20.5408 11.1057 20.5663 11.2092 20.6112 11.3049C20.8367 11.7965 20.8977 12.3476 20.7852 12.8766C20.6727 13.4056 20.3926 13.8842 19.9866 14.2414L7.81882 24.8555C6.89997 25.6292 6.2253 26.6529 5.87656 27.8024C5.52782 28.9519 5.52 30.1779 5.85404 31.3318C6.22821 32.5724 6.99222 33.6594 8.03279 34.4317C9.07336 35.2039 10.3351 35.6203 11.6309 35.619ZM27.8884 41.8124C28.0286 42.1121 28.1084 42.4365 28.1233 42.7671C28.1381 43.0977 28.0877 43.4279 27.9749 43.739C27.8621 44.0501 27.6892 44.336 27.4659 44.5802C27.2427 44.8245 26.9735 45.0224 26.6738 45.1626C26.374 45.3028 26.0496 45.3827 25.719 45.3975C25.3884 45.4124 25.0582 45.362 24.7471 45.2492C24.436 45.1364 24.1501 44.9634 23.9059 44.7402C23.6616 44.5169 23.4637 44.2477 23.3235 43.948L19.0095 34.5779L24.1884 33.8037L27.8884 41.8124ZM36.4683 18.0748C36.902 19.009 36.9941 20.0657 36.7288 21.0609C36.4634 22.056 35.8573 22.9265 35.0161 23.5207L31.3855 15.6616C32.3812 15.4089 33.4338 15.5117 34.3617 15.9523C35.2897 16.3929 36.0347 17.1436 36.4683 18.0748ZM8.87062 26.0834L19.773 16.5479L24.9199 27.6798C24.9835 27.8188 25.0858 27.9366 25.2146 28.0189C25.3433 28.1013 25.4931 28.1448 25.646 28.1443C25.7617 28.145 25.8763 28.1213 25.9823 28.0749C26.1752 27.9845 26.3244 27.8215 26.3974 27.6214C26.4705 27.4213 26.4614 27.2005 26.3721 27.0071L21.033 15.4533C21.5955 14.9585 22.0129 14.32 22.2404 13.6062C22.468 12.8924 22.4973 12.1301 22.3251 11.401L24.5301 10.3812C24.8166 10.2456 25.1271 10.1681 25.4438 10.1532C25.7604 10.1384 26.0768 10.1865 26.3747 10.2947C26.6726 10.4029 26.9461 10.5692 27.1794 10.7838C27.4126 10.9985 27.601 11.2572 27.7336 11.5451L35.7795 28.9719C35.9159 29.2582 35.994 29.5689 36.0092 29.8857C36.0245 30.2025 35.9765 30.5191 35.8682 30.8173C35.7599 31.1154 35.5934 31.389 35.3783 31.6221C35.1633 31.8553 34.904 32.0433 34.6156 32.1753L32.4053 33.1951C31.9622 32.5904 31.3628 32.1179 30.6714 31.8282C29.98 31.5385 29.2228 31.4425 28.481 31.5507L12.309 33.9639C11.2512 34.1255 10.1706 33.9002 9.26539 33.3295C8.36022 32.7587 7.69119 31.8807 7.38102 30.8566C7.13979 29.9989 7.15209 29.0898 7.41643 28.2389C7.68077 27.3881 8.18584 26.632 8.87062 26.0621V26.0834ZM43.297 14.9194C43.252 14.8238 43.2265 14.7202 43.2218 14.6147C43.2171 14.5091 43.2333 14.4037 43.2695 14.3044C43.3058 14.2051 43.3613 14.114 43.4329 14.0363C43.5045 13.9586 43.5907 13.8958 43.6867 13.8516L47.3013 12.1805C47.4945 12.0877 47.7168 12.0756 47.919 12.1467C48.1213 12.2178 48.287 12.3663 48.3798 12.5596C48.4725 12.7529 48.4847 12.9751 48.4136 13.1773C48.3425 13.3796 48.194 13.5453 48.0007 13.6381L44.3861 15.3092C44.2813 15.3598 44.1662 15.3854 44.0498 15.3839C43.8925 15.389 43.7373 15.3477 43.6034 15.2651C43.4695 15.1825 43.3629 15.0622 43.297 14.9194ZM39.6344 10.9525L41.0065 7.21516C41.0878 7.0299 41.2362 6.88227 41.4219 6.80196C41.6076 6.72164 41.8168 6.71458 42.0075 6.7822C42.1982 6.84982 42.3562 6.9871 42.4498 7.16646C42.5434 7.34582 42.5657 7.55397 42.5121 7.74907L41.14 11.4864C41.0836 11.6413 40.9813 11.7754 40.8469 11.8708C40.7124 11.9662 40.552 12.0183 40.3872 12.0203C40.2926 12.02 40.1987 12.0037 40.1095 11.9723C39.913 11.8978 39.7534 11.7495 39.6647 11.559C39.5759 11.3685 39.565 11.1509 39.6344 10.9525ZM48.2356 20.1517C48.3344 20.1875 48.4251 20.2424 48.5026 20.3134C48.58 20.3844 48.6426 20.47 48.6868 20.5653C48.731 20.6606 48.7558 20.7637 48.76 20.8687C48.7641 20.9736 48.7474 21.0784 48.7108 21.1768C48.6557 21.3326 48.5538 21.4675 48.419 21.5631C48.2842 21.6587 48.1232 21.7103 47.958 21.7107C47.8646 21.7112 47.772 21.693 47.6857 21.6574L43.9483 20.2852C43.7631 20.2039 43.6154 20.0555 43.5351 19.8698C43.4548 19.6841 43.4477 19.4749 43.5154 19.2842C43.583 19.0935 43.7203 18.9355 43.8996 18.8419C44.079 18.7483 44.2871 18.726 44.4822 18.7796L48.2356 20.1517Z" fill="#008DD2" stroke="#008DD2" stroke-width="0.3"/>
</svg>
