<svg width="56" height="55" viewBox="0 0 56 55" fill="none" xmlns="http://www.w3.org/2000/svg">
<path d="M38.0416 28.2526C38.0416 23.1448 33.8861 18.9893 28.7783 18.9893C18.9613 19.1227 16.0195 32.1514 24.6563 36.5361C19.7118 38.2502 16.1465 42.9427 16.1465 48.4635C16.1465 49.8566 17.2797 50.9898 18.6728 50.9898H38.8837C40.2768 50.9898 41.4101 49.8566 41.4101 48.4635C41.4101 42.9427 37.8448 38.2502 32.9002 36.5361C35.9425 35.0158 38.0416 31.8785 38.0416 28.2526ZM39.7258 48.4635C39.7258 48.9281 39.3479 49.3056 38.8837 49.3056H36.3574V47.6213C36.3574 47.1559 35.9803 46.7792 35.5152 46.7792C35.0502 46.7792 34.6731 47.1559 34.6731 47.6213V49.3056H22.8834V47.6213C22.8834 47.1559 22.5064 46.7792 22.0413 46.7792C21.5763 46.7792 21.1992 47.1559 21.1992 47.6213V49.3056H18.6728C18.2086 49.3056 17.8307 48.9281 17.8307 48.4635C17.8307 43.5831 21.0422 39.441 25.462 38.0325C26.0764 41.7973 31.4814 41.7948 32.0945 38.0325C36.5144 39.441 39.7258 43.5831 39.7258 48.4635ZM27.1083 37.657C28.1939 37.4735 29.3627 37.4735 30.4482 37.657C30.2636 39.6868 27.2923 39.6855 27.1083 37.657ZM28.7783 35.8317C24.5993 35.8317 21.1992 32.4319 21.1992 28.2526C21.6158 18.1979 35.9423 18.2008 36.3574 28.2526C36.3574 32.4319 32.9572 35.8317 28.7783 35.8317Z" fill="#008DD2"/>
<path d="M44.5011 19.2082C43.9919 18.7129 43.0692 19.122 43.0924 19.8312V23.1996H38.8818C37.7764 23.2179 37.7738 24.8651 38.8818 24.8839H43.9345C44.3996 24.8839 44.7766 24.5068 44.7766 24.0418V21.735L51.9457 28.2524L44.7766 34.7698V32.463C44.7766 31.9975 44.3996 31.6208 43.9345 31.6208H38.8818C37.7764 31.6389 37.7738 33.2865 38.8818 33.3051H43.0924V36.6736C43.0707 37.3809 43.9893 37.7917 44.5011 37.2969L53.7644 28.8757C53.94 28.7162 54.0399 28.49 54.0399 28.2524C54.0399 28.0147 53.94 27.7885 53.7644 27.629L44.5011 19.2082Z" fill="#008DD2"/>
<path d="M20.357 13.9354H23.7255V18.146C23.7438 19.2514 25.3909 19.254 25.4097 18.146V13.0933C25.4097 12.6282 25.0326 12.2512 24.5676 12.2512H22.2608L28.7782 5.08207L35.2956 12.2512H32.9888C32.5237 12.2512 32.1466 12.6282 32.1466 13.0933V18.146C32.165 19.2514 33.812 19.254 33.8309 18.146V13.9354H37.1994C37.9067 13.9584 38.3183 13.0357 37.8223 12.5266L29.4011 3.26337C29.082 2.91221 28.4743 2.91221 28.1552 3.26337L19.734 12.5267C19.2418 13.0347 19.646 13.9595 20.357 13.9354Z" fill="#008DD2"/>
<path d="M13.0388 37.2969C13.55 37.7907 14.4702 37.382 14.4476 36.6735V33.3051H18.6581C19.7636 33.287 19.7662 31.6393 18.6581 31.6208H13.6054C13.1404 31.6208 12.7633 31.9975 12.7633 32.463V34.7697L5.5942 28.2524L12.7633 21.735V24.0418C12.7633 24.5068 13.1404 24.8839 13.6054 24.8839H18.6581C19.7636 24.8655 19.7661 23.2185 18.6581 23.1996H14.4476V19.8312C14.4702 19.1231 13.5476 18.7124 13.0388 19.2082L3.7755 27.629C3.59992 27.7885 3.5 28.0147 3.5 28.2524C3.5 28.49 3.59992 28.7162 3.7755 28.8757L13.0388 37.2969Z" fill="#008DD2"/>
</svg>
