<svg width="70" height="70" viewBox="0 0 70 70" fill="none" xmlns="http://www.w3.org/2000/svg">
<rect width="70" height="70" rx="5" fill="#008DD2"/>
<path d="M34.796 27.285C34.0319 27.2851 33.285 27.5118 32.6497 27.9364C32.0144 28.3609 31.5193 28.9644 31.2269 29.6703C30.9346 30.3763 30.8581 31.1531 31.0073 31.9025C31.1564 32.652 31.5244 33.3403 32.0647 33.8806C32.6051 34.4209 33.2935 34.7888 34.0429 34.9378C34.7924 35.0869 35.5692 35.0103 36.2751 34.7179C36.981 34.4255 37.5844 33.9303 38.0089 33.2949C38.4334 32.6596 38.66 31.9126 38.66 31.1485C38.6589 30.1241 38.2514 29.142 37.527 28.4177C36.8026 27.6934 35.8204 27.286 34.796 27.285ZM34.796 33.98C34.2359 33.98 33.6884 33.8139 33.2226 33.5028C32.7569 33.1916 32.3939 32.7493 32.1796 32.2318C31.9652 31.7143 31.9092 31.1449 32.0184 30.5955C32.1277 30.0462 32.3974 29.5416 32.7935 29.1455C33.1895 28.7495 33.6942 28.4797 34.2435 28.3705C34.7929 28.2612 35.3623 28.3173 35.8798 28.5316C36.3973 28.746 36.8396 29.1089 37.1507 29.5747C37.4619 30.0404 37.628 30.5879 37.628 31.148C37.6273 31.8989 37.3286 32.6188 36.7977 33.1497C36.2668 33.6807 35.5469 33.9793 34.796 33.98ZM55.5018 32.3029L51.3373 31.7269C51.261 31.4063 51.1751 31.0866 51.08 30.7708C52.4552 30.2331 53.6744 29.3606 54.627 28.2325C55.5796 27.1044 56.2356 25.7564 56.5353 24.3106C56.8351 22.8648 56.7692 21.3671 56.3436 19.9532C55.918 18.5393 55.1462 17.2541 54.0982 16.214C53.0501 15.1739 51.759 14.4119 50.342 13.9971C48.9249 13.5823 47.4267 13.5278 45.9833 13.8386C44.5398 14.1493 43.1968 14.8155 42.0759 15.7767C40.9551 16.7379 40.092 17.9637 39.5648 19.3429C39.2898 19.2628 39.0123 19.1884 38.7335 19.1221L38.156 14.9596C38.139 14.8361 38.0778 14.723 37.9838 14.6411C37.8899 14.5592 37.7694 14.5141 37.6448 14.5141H31.941C31.8163 14.5141 31.6959 14.5592 31.6019 14.6411C31.508 14.723 31.4468 14.8361 31.4298 14.9596L30.8538 19.1236C29.0969 19.5396 27.4184 20.2354 25.8824 21.1842L22.5296 18.646C22.4301 18.5708 22.3068 18.5343 22.1825 18.5431C22.0581 18.552 21.9412 18.6055 21.8533 18.694L17.8184 22.726C17.73 22.814 17.6765 22.931 17.6677 23.0554C17.6589 23.1798 17.6954 23.3032 17.7704 23.4028L20.3087 26.7556C19.3608 28.2918 18.6657 29.9703 18.2499 31.7269L14.0855 32.3029C13.962 32.32 13.8489 32.3811 13.767 32.4751C13.6851 32.5691 13.64 32.6895 13.64 32.8141V38.5204C13.64 38.6449 13.685 38.7653 13.7668 38.8593C13.8486 38.9532 13.9616 39.0144 14.085 39.0316L18.2495 39.6076C18.6658 41.3643 19.3615 43.0428 20.3101 44.5789L17.7723 47.9317C17.6972 48.0312 17.6607 48.1545 17.6695 48.2789C17.6783 48.4032 17.7319 48.5202 17.8203 48.608L21.8552 52.6429C21.9432 52.7312 22.0601 52.7846 22.1844 52.7934C22.3087 52.8023 22.432 52.7658 22.5315 52.6909L25.8848 50.1522C27.4207 51.1013 29.0993 51.7972 30.8562 52.2133L31.4322 56.3773C31.4492 56.5008 31.5104 56.6139 31.6043 56.6958C31.6983 56.7777 31.8187 56.8228 31.9434 56.8228H37.6467C37.7713 56.8227 37.8917 56.7775 37.9857 56.6957C38.0796 56.6138 38.1408 56.5007 38.1579 56.3773L38.7339 52.2128C40.4907 51.7964 42.1691 51.1002 43.7048 50.1508L47.0576 52.6895C47.1572 52.7644 47.2806 52.8009 47.405 52.792C47.5294 52.7832 47.6464 52.7298 47.7344 52.6415L51.7688 48.6066C51.8571 48.5187 51.9107 48.4017 51.9195 48.2774C51.9283 48.1531 51.8918 48.0298 51.8168 47.9303L49.2781 44.577C50.227 43.0412 50.9227 41.3628 51.3387 39.6061L55.5032 39.0301C55.6267 39.0131 55.7398 38.9519 55.8217 38.858C55.9036 38.764 55.9487 38.6436 55.9487 38.5189V32.8146C55.9487 32.6897 55.9035 32.5689 55.8213 32.4748C55.7391 32.3807 55.6256 32.3197 55.5018 32.3029ZM47.852 14.673C49.4021 14.6735 50.9173 15.1336 52.2059 15.9951C53.4945 16.8566 54.4987 18.0809 55.0916 19.5131C55.6845 20.9454 55.8393 22.5212 55.5366 24.0415C55.2339 25.5617 54.4873 26.9581 53.391 28.054C52.2948 29.1499 50.8982 29.8962 49.3778 30.1984C47.8575 30.5006 46.2817 30.3453 44.8496 29.752C43.4176 29.1587 42.1936 28.1541 41.3325 26.8652C40.4713 25.5763 40.0117 24.061 40.0117 22.5109C40.014 20.4325 40.8408 18.4398 42.3107 16.9704C43.7807 15.5009 45.7736 14.6747 47.852 14.673ZM46.6635 35.6677C46.6645 37.2335 46.3547 38.7838 45.752 40.229C45.1494 41.6741 44.2659 42.9853 43.1528 44.0864C42.9074 42.042 41.9213 40.1583 40.3809 38.7918C38.8405 37.4252 36.8528 36.6706 34.7936 36.6706C32.7345 36.6706 30.7467 37.4252 29.2063 38.7918C27.666 40.1583 26.6798 42.042 26.4344 44.0864C24.4907 42.1551 23.2751 39.6107 22.9939 36.8851C22.7127 34.1594 23.3832 31.4205 24.8915 29.1329C26.3999 26.8454 28.6533 25.1502 31.2693 24.3349C33.8853 23.5197 36.7028 23.6347 39.2437 24.6604C39.6393 26.2305 40.4558 27.6631 41.6051 28.8036C42.7545 29.9442 44.1932 30.7496 45.7664 31.1332C46.3618 32.5707 46.6667 34.1118 46.6635 35.6677ZM42.1775 44.9548C40.0798 46.6272 37.4766 47.5379 34.7939 47.5379C32.1111 47.5379 29.5079 46.6272 27.4103 44.9548C27.4451 43.0196 28.2384 41.1754 29.6193 39.8192C31.0002 38.463 32.8583 37.7031 34.7939 37.7031C36.7294 37.7031 38.5875 38.463 39.9684 39.8192C41.3493 41.1754 42.1426 43.0196 42.1775 44.9548ZM54.9152 38.0706L50.8419 38.6336C50.7373 38.6486 50.6398 38.6953 50.5626 38.7674C50.4853 38.8395 50.432 38.9335 50.4099 39.0368C50.0069 40.9181 49.2642 42.7102 48.2183 44.325C48.1607 44.414 48.132 44.5185 48.1359 44.6244C48.1399 44.7303 48.1763 44.8324 48.2403 44.9168L50.7229 48.1962L47.324 51.5951L44.0447 49.112C43.9602 49.0481 43.8581 49.0117 43.7522 49.0077C43.6463 49.0038 43.5418 49.0325 43.4528 49.09C41.8374 50.1363 40.0447 50.8792 38.1627 51.2821C38.0595 51.3043 37.9655 51.3576 37.8935 51.4348C37.8214 51.5121 37.7749 51.6096 37.76 51.7141L37.196 55.7888H32.3907L31.8277 51.717C31.8128 51.6124 31.7663 51.5149 31.6943 51.4377C31.6222 51.3604 31.5282 51.3071 31.425 51.285C29.5435 50.8814 27.7513 50.1382 26.1363 49.0919C26.0473 49.0344 25.9428 49.0057 25.8369 49.0097C25.7311 49.0136 25.629 49.05 25.5445 49.114L22.2651 51.597L18.8663 48.1981L21.3493 44.9188C21.4132 44.8344 21.4496 44.7323 21.4535 44.6266C21.4575 44.5208 21.4288 44.4163 21.3714 44.3274C20.3254 42.7124 19.5825 40.9202 19.1792 39.0388C19.1571 38.9354 19.1038 38.8414 19.0266 38.7693C18.9493 38.6972 18.8518 38.6505 18.7472 38.6356L14.6725 38.0711V33.2629L18.7453 32.6999C18.8499 32.685 18.9474 32.6385 19.0246 32.5664C19.1019 32.4944 19.1552 32.4004 19.1773 32.2972C19.5806 30.4157 20.3235 28.6236 21.3695 27.0085C21.4269 26.9196 21.4556 26.8151 21.4516 26.7094C21.4477 26.6036 21.4113 26.5016 21.3474 26.4172L18.8643 23.1373L22.2632 19.7389L25.5445 22.2229C25.629 22.2869 25.7311 22.3233 25.8369 22.3272C25.9428 22.3312 26.0473 22.3025 26.1363 22.245C27.7512 21.199 29.5432 20.4561 31.4245 20.0528C31.5278 20.0307 31.6219 19.9775 31.694 19.9002C31.7661 19.823 31.8127 19.7254 31.8277 19.6208L32.3907 15.5461H37.196L37.7591 19.6184C37.7739 19.723 37.8205 19.8205 37.8925 19.8978C37.9645 19.975 38.0585 20.0283 38.1618 20.0504C38.5266 20.1287 38.8914 20.2213 39.2509 20.3255C39.0697 21.0392 38.9783 21.7727 38.9787 22.509C38.9789 22.8323 38.9965 23.1553 39.0315 23.4767C36.2711 22.5184 33.2671 22.5263 30.5117 23.499C27.7564 24.4718 25.4133 26.3517 23.8664 28.8306C22.3195 31.3096 21.6606 34.2405 21.9978 37.143C22.335 40.0455 23.6481 42.7474 25.7221 44.8057C27.796 46.8641 30.5077 48.1568 33.4127 48.4721C36.3176 48.7873 39.2435 48.1064 41.7107 46.5408C44.1779 44.9753 46.0401 42.618 46.992 39.8554C47.944 37.0928 47.9292 34.0888 46.9501 31.3357C47.249 31.3658 47.5492 31.3808 47.8496 31.3808C48.6086 31.3815 49.3645 31.2847 50.0989 31.0928C50.2175 31.4908 50.3211 31.8949 50.408 32.2996C50.4302 32.4028 50.4835 32.4968 50.5608 32.5688C50.638 32.6408 50.7355 32.6874 50.84 32.7023L54.9152 33.2629V38.0706ZM45.5039 26.1464C45.7852 26.4265 46.166 26.5836 46.563 26.5836C46.9599 26.5836 47.3407 26.4265 47.6221 26.1464L52.7744 20.9936C52.9135 20.8546 53.0238 20.6894 53.0991 20.5077C53.1744 20.326 53.2131 20.1312 53.2131 19.9345C53.2131 19.7378 53.1744 19.5431 53.0991 19.3613C53.0238 19.1796 52.9135 19.0145 52.7744 18.8754C52.6353 18.7363 52.4702 18.626 52.2885 18.5507C52.1068 18.4754 51.912 18.4367 51.7153 18.4367C51.5186 18.4367 51.3238 18.4754 51.1421 18.5507C50.9604 18.626 50.7953 18.7363 50.6562 18.8754L46.5627 22.9688L45.0435 21.4492C44.761 21.1768 44.3828 21.0261 43.9903 21.0297C43.5978 21.0332 43.2224 21.1907 42.9448 21.4682C42.6672 21.7456 42.5096 22.121 42.5058 22.5135C42.5021 22.9059 42.6525 23.2842 42.9248 23.5669L45.5039 26.1464ZM43.6549 22.1788C43.7427 22.0923 43.861 22.0439 43.9842 22.0439C44.1074 22.0439 44.2256 22.0923 44.3135 22.1788L46.1979 24.0632C46.2948 24.16 46.4261 24.2143 46.563 24.2143C46.6999 24.2143 46.8312 24.16 46.928 24.0632L51.3863 19.605C51.4746 19.5222 51.5916 19.4771 51.7126 19.479C51.8336 19.481 51.9491 19.53 52.0347 19.6156C52.1202 19.7012 52.1691 19.8168 52.171 19.9378C52.1729 20.0588 52.1277 20.1758 52.0448 20.264L46.892 25.4164C46.8044 25.5031 46.686 25.5518 46.5627 25.5518C46.4394 25.5518 46.3211 25.5031 46.2335 25.4164L43.6549 22.8378C43.5675 22.7504 43.5184 22.6319 43.5184 22.5083C43.5184 22.3847 43.5675 22.2662 43.6549 22.1788Z" fill="white"/>
</svg>
