<svg width="54" height="54" viewBox="0 0 54 54" fill="none" xmlns="http://www.w3.org/2000/svg">
<path d="M15.0202 15.0206L13.7399 16.3009H15.5505H32.1825C40.2383 16.3009 46.8117 22.8367 46.8117 30.8869C46.8117 38.9399 40.2355 45.5161 32.1825 45.5161H30.9729C29.9183 45.5161 29.0877 44.6855 29.0877 43.6309C29.0877 42.5763 29.9183 41.7457 30.9729 41.7457H32.1825C38.1841 41.7457 42.9549 36.7728 42.9549 30.8437C42.9549 24.902 38.1284 20.0281 32.1393 20.0281H15.5073H13.6967L14.977 21.3084L18.217 24.5484C18.9609 25.2923 18.9609 26.5023 18.217 27.2462C17.8441 27.6191 17.3457 27.8041 16.8897 27.8041C16.4337 27.8041 15.9354 27.6191 15.5624 27.2462L7.78645 19.4702L7.77492 19.4587L7.76291 19.4476C7.42138 19.1346 7.22852 18.6555 7.22852 18.1429C7.22852 17.6807 7.42929 17.2112 7.79801 16.8041L15.561 9.08431L15.5624 9.08283C16.3064 8.33893 17.5163 8.33893 18.2602 9.08283L18.7872 8.5558L18.2602 9.08283C19.0041 9.82674 19.0041 11.0367 18.2602 11.7806L15.0202 15.0206Z" fill="#008DD2" stroke="#FAFAFA" stroke-width="1.5"/>
<path d="M15.3194 43.6083L15.319 43.6197V43.6311C15.319 44.6857 14.4884 45.5163 13.4338 45.5163H11.9218C10.8672 45.5163 10.0366 44.6857 10.0366 43.6311C10.0366 42.5765 10.8672 41.7459 11.9218 41.7459H13.4338C14.5014 41.7459 15.3491 42.6273 15.3194 43.6083Z" fill="#008DD2" stroke="#FAFAFA" stroke-width="1.5"/>
<path d="M21.4687 41.7459H22.9807C23.9921 41.7459 24.8659 42.6197 24.8659 43.6311C24.8659 44.6856 24.0353 45.5163 22.9807 45.5163H21.4687C20.4141 45.5163 19.5835 44.6857 19.5835 43.6311C19.5835 42.5765 20.4141 41.7459 21.4687 41.7459Z" fill="#008DD2" stroke="#FAFAFA" stroke-width="1.5"/>
</svg>
