<svg width="16" height="14" viewBox="0 0 16 14" fill="none" xmlns="http://www.w3.org/2000/svg">
<g clip-path="url(#clip0_337_2282)">
<path fill-rule="evenodd" clip-rule="evenodd" d="M15.9298 2.18652C13.5439 3.40128 12.351 4.8286 12.351 6.46852C13.3679 6.58999 14.2088 7.02021 14.8738 7.75919C15.5387 8.49817 15.8712 9.35354 15.8712 10.3253C15.8712 11.3579 15.5485 12.2285 14.9031 12.9371C14.2577 13.6457 13.4461 14 12.4683 14C11.3731 14 10.4246 13.5394 9.62279 12.6182C8.82096 11.697 8.42005 10.5784 8.42005 9.26244C8.42005 5.31448 10.5517 2.22702 14.8151 -3.05176e-05L15.9298 2.18652ZM7.50978 2.18652C5.10429 3.40128 3.90156 4.8286 3.90156 6.46852C4.93808 6.58999 5.78878 7.02021 6.45372 7.75919C7.11865 8.49817 7.45111 9.35354 7.45111 10.3253C7.45111 11.3579 7.12354 12.2285 6.46838 12.9371C5.81323 13.6457 4.99675 14 4.0189 14C2.92372 14 1.98012 13.5394 1.18807 12.6182C0.39602 11.697 0 10.5784 0 9.26244C0 5.31448 2.12188 2.22702 6.36571 -3.05176e-05L7.50978 2.18652Z" fill="#008DD2"/>
</g>
<defs>
<clipPath id="clip0_337_2282">
<rect width="16" height="14" fill="white"/>
</clipPath>
</defs>
</svg>
