<svg width="70" height="70" viewBox="0 0 70 70" fill="none" xmlns="http://www.w3.org/2000/svg">
<rect x="3.05176e-05" width="70" height="70" rx="5" fill="#008DD2"/>
<path d="M21.0916 39.506C21.287 39.5431 21.4891 39.5011 21.6536 39.3894C21.8181 39.2776 21.9315 39.1052 21.969 38.9099C22.1468 37.9833 22.5679 37.1207 23.189 36.4105C23.8102 35.7003 24.6091 35.1682 25.5038 34.8687C27.5826 34.2882 32.8865 32.0522 35.0189 32.2033C37.0879 32.0594 42.4734 34.3071 44.4828 34.8682C45.3777 35.1677 46.1768 35.6998 46.7982 36.4101C47.4195 37.1203 47.8407 37.9831 48.0186 38.9099C48.0371 39.0066 48.0744 39.0988 48.1285 39.1811C48.1826 39.2634 48.2524 39.3343 48.3338 39.3897C48.4153 39.445 48.5069 39.4838 48.6033 39.5037C48.6998 39.5237 48.7992 39.5245 48.896 39.506C48.9928 39.4875 49.0849 39.4502 49.1672 39.3961C49.2496 39.342 49.3204 39.2723 49.3758 39.1908C49.4311 39.1093 49.4699 39.0177 49.4899 38.9213C49.5098 38.8248 49.5106 38.7254 49.4921 38.6286C49.2639 37.4402 48.7237 36.3338 47.9269 35.423C47.13 34.5122 46.1053 33.8298 44.9577 33.4457L38.6058 31.3308C45.9775 27.5123 43.4099 16.3593 34.9937 16.25C26.5765 16.3634 24.0094 27.5082 31.382 31.3308L25.0288 33.446C23.8815 33.8302 22.8569 34.5127 22.0603 35.4234C21.2636 36.3341 20.7236 37.4403 20.4955 38.6286C20.4582 38.824 20.5001 39.0262 20.6119 39.1908C20.7237 39.3553 20.8962 39.4687 21.0916 39.506ZM28.5164 24.2273C28.5183 22.51 29.2014 20.8636 30.4157 19.6492C31.63 18.4349 33.2765 17.7518 34.9938 17.7499C43.5603 18.087 43.5884 30.324 35.0279 30.703C34.1748 30.7066 33.3294 30.5417 32.5402 30.218C31.7509 29.8942 31.0333 29.4179 30.4284 28.8164C29.8235 28.2148 29.3433 27.4998 29.0152 26.7124C28.6871 25.9249 28.5176 25.0804 28.5164 24.2273Z" fill="white"/>
<path d="M39.5988 41.5262H37.3244L36.6217 39.3632C36.5104 39.0205 36.2934 38.7218 36.0018 38.51C35.7103 38.2982 35.3592 38.1841 34.9988 38.1841C34.6384 38.1841 34.2873 38.2982 33.9958 38.51C33.7042 38.7218 33.4872 39.0205 33.3759 39.3632L32.6732 41.5262H30.3988C30.0384 41.5262 29.6872 41.6402 29.3956 41.852C29.104 42.0638 28.887 42.3624 28.7756 42.7052C28.6642 43.0479 28.6641 43.4171 28.7755 43.7599C28.8869 44.1027 29.1039 44.4014 29.3954 44.6132L31.2355 45.9501L30.5328 48.1132C30.4215 48.4559 30.4215 48.8251 30.5328 49.1678C30.6442 49.5105 30.8612 49.8092 31.1527 50.021C31.4443 50.2328 31.7954 50.3469 32.1557 50.3469C32.5161 50.3469 32.8672 50.2328 33.1587 50.021L34.9988 48.6841L36.8389 50.021C37.1304 50.2328 37.4815 50.3469 37.8419 50.3469C38.2022 50.3469 38.5533 50.2328 38.8449 50.021C39.1364 49.8092 39.3534 49.5105 39.4648 49.1678C39.5761 48.8251 39.5761 48.4559 39.4648 48.1132L38.762 45.9501L40.6021 44.6132C40.8886 44.3986 41.1007 44.0998 41.2088 43.7587C41.3169 43.4175 41.3155 43.0511 41.2049 42.7108C41.0943 42.3704 40.8799 42.0732 40.5919 41.8608C40.3039 41.6484 39.9566 41.5314 39.5988 41.5262ZM39.7204 43.3996L37.4394 45.057C37.3113 45.1501 37.2159 45.2814 37.167 45.432C37.1181 45.5827 37.118 45.7449 37.167 45.8956L38.0381 48.5767C38.0517 48.6182 38.0518 48.6629 38.0383 48.7044C38.0249 48.7459 37.9987 48.782 37.9634 48.8077C37.9281 48.8333 37.8856 48.8471 37.842 48.8471C37.7984 48.847 37.7559 48.8331 37.7207 48.8074L35.4397 47.1505C35.3115 47.0574 35.1572 47.0073 34.9988 47.0073C34.8404 47.0073 34.6861 47.0574 34.5579 47.1505L32.277 48.8074C32.2417 48.8331 32.1992 48.847 32.1556 48.8471C32.112 48.8471 32.0695 48.8333 32.0342 48.8077C31.9989 48.782 31.9727 48.7459 31.9593 48.7044C31.9458 48.6629 31.9459 48.6182 31.9595 48.5767L32.8306 45.8955C32.8796 45.7449 32.8796 45.5826 32.8306 45.432C32.7817 45.2814 32.6863 45.1501 32.5582 45.057L30.2772 43.3996C30.2419 43.374 30.2155 43.3379 30.202 43.2964C30.1885 43.2548 30.1885 43.2101 30.202 43.1686C30.2155 43.1271 30.2419 43.0909 30.2772 43.0653C30.3126 43.0397 30.3551 43.026 30.3988 43.0261H33.218C33.3764 43.0261 33.5308 42.976 33.6589 42.8829C33.787 42.7899 33.8824 42.6586 33.9314 42.508L34.8025 39.8268C34.8162 39.7855 34.8425 39.7496 34.8778 39.7242C34.913 39.6988 34.9553 39.6851 34.9988 39.6851C35.0423 39.6851 35.0846 39.6988 35.1198 39.7242C35.1551 39.7496 35.1814 39.7855 35.1951 39.8268L36.0662 42.508C36.1152 42.6586 36.2106 42.7899 36.3387 42.8829C36.4669 42.976 36.6212 43.0261 36.7796 43.0261H39.5988C39.6425 43.026 39.685 43.0397 39.7204 43.0653C39.7558 43.0909 39.7821 43.1271 39.7956 43.1686C39.8091 43.2101 39.8091 43.2549 39.7956 43.2964C39.7821 43.3379 39.7558 43.374 39.7204 43.3996Z" fill="white"/>
<path d="M25.6319 44.5613H23.1562L22.3912 42.2063C22.2754 41.8499 22.0497 41.5392 21.7465 41.3189C21.4432 41.0986 21.0781 40.98 20.7033 40.98C20.3285 40.98 19.9633 41.0986 19.6601 41.3189C19.3569 41.5392 19.1312 41.8499 19.0153 42.2063L18.2504 44.5613H15.7746C15.3999 44.5613 15.0347 44.68 14.7316 44.9003C14.4284 45.1205 14.2027 45.4311 14.0869 45.7875C13.9711 46.1439 13.9711 46.5278 14.0868 46.8843C14.2026 47.2407 14.4282 47.5513 14.7314 47.7716L16.7344 49.2268L15.9691 51.5818C15.8534 51.9382 15.8535 52.3222 15.9694 52.6785C16.0853 53.0349 16.311 53.3455 16.6142 53.5657C16.9174 53.786 17.2826 53.9046 17.6573 53.9046C18.0321 53.9046 18.3972 53.786 18.7004 53.5658L20.7035 52.1105L22.7061 53.5658C23.0094 53.786 23.3745 53.9046 23.7493 53.9046C24.1241 53.9045 24.4893 53.7859 24.7925 53.5656C25.0957 53.3453 25.3214 53.0347 25.4373 52.6783C25.5531 52.3218 25.5532 51.9379 25.4375 51.5814L24.6722 49.2268L26.6752 47.7716C26.973 47.5485 27.1936 47.2378 27.3059 46.883C27.4183 46.5282 27.4169 46.1472 27.3019 45.7933C27.1869 45.4394 26.964 45.1303 26.6646 44.9094C26.3651 44.6884 26.004 44.5667 25.6319 44.5613ZM25.7934 46.5581L23.3495 48.3337C23.2214 48.4268 23.126 48.5581 23.0771 48.7087C23.0281 48.8594 23.0281 49.0216 23.0771 49.1723L24.0108 52.0446C24.0288 52.0998 24.0288 52.1593 24.0109 52.2146C23.993 52.2698 23.958 52.3179 23.9111 52.3521C23.8641 52.3862 23.8076 52.4046 23.7495 52.4047C23.6914 52.4047 23.6349 52.3863 23.5879 52.3522L21.1443 50.5766C21.0162 50.4835 20.8618 50.4334 20.7034 50.4334C20.545 50.4334 20.3907 50.4835 20.2626 50.5766L17.8187 52.3522C17.7717 52.3863 17.7152 52.4047 17.6571 52.4047C17.5991 52.4047 17.5426 52.3863 17.4956 52.3522C17.4487 52.3181 17.4137 52.27 17.3958 52.2148C17.3778 52.1596 17.3778 52.1002 17.3957 52.045L18.3295 49.1723C18.3784 49.0216 18.3784 48.8594 18.3294 48.7087C18.2805 48.5581 18.1851 48.4268 18.057 48.3337L15.6131 46.5581C15.5661 46.524 15.5312 46.4759 15.5132 46.4207C15.4953 46.3656 15.4953 46.3061 15.5132 46.2509C15.5312 46.1957 15.5661 46.1477 15.6131 46.1136C15.66 46.0795 15.7166 46.0611 15.7746 46.0612H18.7953C18.9536 46.0612 19.108 46.0111 19.2361 45.918C19.3643 45.8249 19.4596 45.6937 19.5086 45.543L20.442 42.6699C20.4586 42.6135 20.493 42.5639 20.5401 42.5287C20.5872 42.4934 20.6444 42.4744 20.7033 42.4744C20.7621 42.4744 20.8193 42.4934 20.8664 42.5287C20.9135 42.5639 20.948 42.6135 20.9645 42.6699L21.8979 45.543C21.9469 45.6937 22.0423 45.8249 22.1704 45.918C22.2986 46.0111 22.4529 46.0612 22.6113 46.0612H25.6319C25.6907 46.0595 25.7485 46.0769 25.7965 46.1108C25.8446 46.1447 25.8804 46.1933 25.8986 46.2492C25.9168 46.3052 25.9163 46.3655 25.8974 46.4212C25.8784 46.4768 25.8419 46.5249 25.7934 46.5581Z" fill="white"/>
<path d="M55.9001 45.7876C55.7879 45.429 55.5631 45.116 55.2591 44.8952C54.9552 44.6743 54.5881 44.5572 54.2123 44.5613H51.7366L50.9716 42.2063C50.8558 41.8499 50.6301 41.5392 50.3268 41.3189C50.0236 41.0986 49.6584 40.98 49.2836 40.98C48.9088 40.98 48.5437 41.0986 48.2404 41.3189C47.9372 41.5392 47.7115 41.8499 47.5957 42.2063L46.8307 44.5613H44.355C43.9802 44.5613 43.6151 44.6799 43.3119 44.9002C43.0087 45.1205 42.7831 45.4311 42.6673 45.7875C42.5514 46.1439 42.5514 46.5278 42.6672 46.8842C42.783 47.2407 43.0086 47.5513 43.3117 47.7716L45.3147 49.2268L44.5494 51.5818C44.4338 51.9382 44.4339 52.3222 44.5498 52.6785C44.6657 53.0349 44.8914 53.3455 45.1946 53.5657C45.4978 53.786 45.863 53.9046 46.2377 53.9046C46.6125 53.9046 46.9776 53.786 47.2808 53.5658L49.2835 52.1105L51.2865 53.5658C51.5898 53.786 51.9549 53.9046 52.3297 53.9046C52.7045 53.9045 53.0697 53.7859 53.3729 53.5656C53.6761 53.3453 53.9018 53.0347 54.0177 52.6783C54.1335 52.3218 54.1336 51.9379 54.0179 51.5814L53.2526 49.2268L55.2556 47.7716C55.5619 47.5541 55.7901 47.2437 55.9062 46.8863C56.0222 46.5289 56.0201 46.1437 55.9001 45.7876ZM54.3738 46.5581L51.9299 48.3337C51.8018 48.4268 51.7064 48.5581 51.6575 48.7087C51.6085 48.8594 51.6085 49.0216 51.6575 49.1723L52.5912 52.0446C52.6092 52.0998 52.6092 52.1593 52.5913 52.2146C52.5734 52.2698 52.5384 52.3179 52.4915 52.3521C52.4445 52.3862 52.388 52.4046 52.3299 52.4047C52.2718 52.4047 52.2153 52.3863 52.1683 52.3522L49.7244 50.5766C49.5962 50.4835 49.4419 50.4334 49.2835 50.4334C49.1251 50.4334 48.9708 50.4835 48.8426 50.5766L46.399 52.3522C46.3521 52.3863 46.2956 52.4047 46.2375 52.4047C46.1795 52.4047 46.123 52.3863 46.076 52.3522C46.0291 52.3181 45.9941 52.27 45.9762 52.2148C45.9582 52.1596 45.9582 52.1002 45.9761 52.045L46.9099 49.1723C46.9588 49.0216 46.9588 48.8594 46.9098 48.7087C46.8609 48.5581 46.7655 48.4268 46.6374 48.3337L44.1935 46.5581C44.1465 46.524 44.1116 46.4759 44.0936 46.4208C44.0757 46.3656 44.0757 46.3061 44.0936 46.2509C44.1116 46.1958 44.1465 46.1477 44.1935 46.1136C44.2404 46.0795 44.297 46.0611 44.355 46.0612H47.3756C47.534 46.0612 47.6884 46.0111 47.8165 45.918C47.9446 45.8249 48.04 45.6937 48.089 45.543L49.0224 42.6699C49.039 42.6135 49.0734 42.5639 49.1205 42.5287C49.1676 42.4934 49.2248 42.4744 49.2836 42.4744C49.3425 42.4744 49.3997 42.4934 49.4468 42.5287C49.4939 42.5639 49.5283 42.6135 49.5449 42.6699L50.4783 45.543C50.5273 45.6937 50.6227 45.8249 50.7508 45.918C50.8789 46.0111 51.0333 46.0612 51.1917 46.0612H54.2123C54.2711 46.0595 54.3289 46.077 54.3769 46.1108C54.425 46.1447 54.4608 46.1933 54.479 46.2492C54.4971 46.3052 54.4967 46.3655 54.4778 46.4211C54.4588 46.4768 54.4223 46.5249 54.3738 46.5581Z" fill="white"/>
</svg>
