<svg width="54" height="54" viewBox="0 0 54 54" fill="none" xmlns="http://www.w3.org/2000/svg">
<path d="M42.903 13.05H11.475C10.8186 13.05 10.1891 13.3108 9.72491 13.7749C9.26076 14.2391 9 14.8686 9 15.525V34.1685C9 34.8249 9.26076 35.4544 9.72491 35.9186C10.1891 36.3827 10.8186 36.6435 11.475 36.6435H22.5495L21.2535 39.474H17.8965C17.7175 39.474 17.5458 39.5451 17.4192 39.6717C17.2926 39.7983 17.2215 39.97 17.2215 40.149C17.2215 40.328 17.2926 40.4997 17.4192 40.6263C17.5458 40.7529 17.7175 40.824 17.8965 40.824H36.4815C36.6605 40.824 36.8322 40.7529 36.9588 40.6263C37.0854 40.4997 37.1565 40.328 37.1565 40.149C37.1565 39.97 37.0854 39.7983 36.9588 39.6717C36.8322 39.5451 36.6605 39.474 36.4815 39.474H33.1245L31.8285 36.6435H42.903C43.5594 36.6435 44.1889 36.3827 44.6531 35.9186C45.1172 35.4544 45.378 34.8249 45.378 34.1685V15.525C45.378 14.8686 45.1172 14.2391 44.6531 13.7749C44.1889 13.3108 43.5594 13.05 42.903 13.05ZM31.653 39.474H22.7385L24.039 36.6435H30.339L31.653 39.474ZM44.028 34.1685C44.028 34.4669 43.9095 34.753 43.6985 34.964C43.4875 35.175 43.2014 35.2935 42.903 35.2935H11.475C11.1766 35.2935 10.8905 35.175 10.6795 34.964C10.4685 34.753 10.35 34.4669 10.35 34.1685V15.525C10.35 15.2266 10.4685 14.9405 10.6795 14.7295C10.8905 14.5185 11.1766 14.4 11.475 14.4H42.903C43.2014 14.4 43.4875 14.5185 43.6985 14.7295C43.9095 14.9405 44.028 15.2266 44.028 15.525V34.1685ZM38.4975 20.637L38.673 25.6455C38.676 25.7342 38.6615 25.8225 38.6303 25.9056C38.5992 25.9886 38.5519 26.0647 38.4913 26.1295C38.4307 26.1943 38.3579 26.2465 38.2772 26.2831C38.1964 26.3197 38.1092 26.3401 38.0205 26.343C37.8461 26.3431 37.6783 26.2757 37.5525 26.1549C37.4267 26.0341 37.3525 25.8693 37.3455 25.695L37.233 22.401L30.033 31.0365C29.97 31.1126 29.8909 31.1739 29.8014 31.2159C29.712 31.2579 29.6143 31.2796 29.5155 31.2795C29.4152 31.2803 29.3161 31.259 29.225 31.217C29.134 31.175 29.0534 31.1133 28.989 31.0365L23.0265 23.931L16.893 31.041C16.8339 31.1084 16.7621 31.1634 16.6817 31.2031C16.6014 31.2427 16.514 31.2661 16.4245 31.2719C16.3351 31.2778 16.2454 31.266 16.1606 31.2372C16.0757 31.2083 15.9974 31.1631 15.93 31.104C15.8626 31.0449 15.8076 30.9731 15.7679 30.8927C15.7283 30.8124 15.7049 30.725 15.6991 30.6355C15.6932 30.5461 15.705 30.4564 15.7338 30.3716C15.7627 30.2867 15.8079 30.2084 15.867 30.141L22.5225 22.437C22.5849 22.3607 22.6641 22.2999 22.7538 22.2593C22.8436 22.2188 22.9415 22.1995 23.04 22.203C23.138 22.2038 23.2347 22.226 23.3233 22.268C23.4119 22.3099 23.4903 22.3707 23.553 22.446L29.493 29.547L35.901 21.8565L33.1425 22.5765C33.055 22.6044 32.9628 22.6141 32.8715 22.6051C32.7801 22.5961 32.6916 22.5686 32.6112 22.5242C32.5309 22.4798 32.4605 22.4195 32.4042 22.347C32.348 22.2745 32.3071 22.1912 32.2841 22.1024C32.2611 22.0135 32.2565 21.9209 32.2706 21.8302C32.2846 21.7395 32.317 21.6526 32.3657 21.5748C32.4145 21.497 32.4786 21.43 32.5541 21.3779C32.6296 21.3257 32.715 21.2895 32.805 21.2715L37.6515 20.0025C37.7499 19.9767 37.8528 19.9735 37.9525 19.993C38.0523 20.0126 38.1464 20.0544 38.2277 20.1154C38.3091 20.1764 38.3756 20.255 38.4223 20.3453C38.469 20.4357 38.4947 20.5354 38.4975 20.637Z" fill="#008DD2"/>
</svg>
