<svg width="54" height="54" viewBox="0 0 54 54" fill="none" xmlns="http://www.w3.org/2000/svg">
<path d="M39.15 12.15H33.075V11.475C33.075 10.7325 32.4675 10.125 31.725 10.125H30.3344C30.132 8.60624 28.8427 7.42499 27.27 7.42499H26.7232C25.1505 7.42499 23.8612 8.60624 23.6587 10.125H22.2682C21.5257 10.125 20.9182 10.7325 20.9182 11.475V12.15H14.85C13.7362 12.15 12.825 13.0612 12.825 14.175V44.55C12.825 45.6637 13.7362 46.575 14.85 46.575H39.15C40.2637 46.575 41.175 45.6637 41.175 44.55V14.175C41.175 13.0612 40.2637 12.15 39.15 12.15ZM26.73 8.77499H27.2767C28.107 8.77499 28.8022 9.34874 28.9845 10.125H25.029C25.2112 9.34874 25.9065 8.77499 26.7367 8.77499H26.73ZM22.275 11.475H31.725V14.175H22.275V11.475ZM39.825 44.55C39.825 44.9212 39.5212 45.225 39.15 45.225H14.85C14.4787 45.225 14.175 44.9212 14.175 44.55V14.175C14.175 13.8037 14.4787 13.5 14.85 13.5H20.925V14.175C20.925 14.9175 21.5325 15.525 22.275 15.525H31.725C32.4675 15.525 33.075 14.9175 33.075 14.175V13.5H39.15C39.5212 13.5 39.825 13.8037 39.825 14.175V44.55ZM30.699 22.1602L30.2872 22.086C29.9227 22.0185 29.673 21.6675 29.7405 21.303C29.808 20.9385 30.1455 20.6887 30.5235 20.7562L32.5147 21.1072C32.5822 21.1207 32.6497 21.1477 32.7105 21.1815C32.724 21.1882 32.7442 21.195 32.7577 21.2017C32.778 21.2152 32.7915 21.2422 32.8117 21.2557C32.859 21.2962 32.9062 21.3367 32.94 21.384C32.9602 21.411 32.9602 21.438 32.9737 21.4717C33.0007 21.519 33.0277 21.5662 33.0345 21.6202C33.048 21.681 33.0412 21.735 33.0345 21.7957C33.0345 21.8227 33.0412 21.8497 33.0345 21.8767V21.8902L32.6835 23.868C32.6227 24.192 32.3392 24.4282 32.0219 24.4282C31.9815 24.4282 31.941 24.4282 31.9004 24.4147C31.5359 24.3472 31.2862 23.9962 31.3537 23.6317L31.4145 23.274C22.8825 29.7877 21.5932 39.2917 21.5797 39.393C21.5392 39.7372 21.249 39.987 20.9115 39.987C20.8845 39.987 20.8575 39.987 20.8305 39.987C20.4592 39.9397 20.196 39.6022 20.2432 39.2377C20.2972 38.8057 21.6135 28.998 30.672 22.1535L30.699 22.1602ZM28.431 35.4712L27.9517 35.9505L28.431 36.4297C28.6942 36.693 28.6942 37.1182 28.431 37.3815C28.296 37.5165 28.1272 37.5772 27.9517 37.5772C27.7762 37.5772 27.6075 37.5097 27.4725 37.3815L26.9932 36.9022L26.514 37.3815C26.379 37.5165 26.2102 37.5772 26.0347 37.5772C25.8592 37.5772 25.6905 37.5097 25.5555 37.3815C25.2922 37.1182 25.2922 36.693 25.5555 36.4297L26.0347 35.9505L25.5555 35.4712C25.2922 35.208 25.2922 34.7827 25.5555 34.5195C25.8187 34.2562 26.244 34.2562 26.5072 34.5195L26.9865 34.9987L27.4657 34.5195C27.729 34.2562 28.1542 34.2562 28.4174 34.5195C28.6807 34.7827 28.6807 35.208 28.4174 35.4712H28.431ZM32.8792 28.4445C33.1425 28.1812 33.5677 28.1812 33.831 28.4445C34.0942 28.7077 34.0942 29.133 33.831 29.3962L33.3517 29.8755L33.831 30.3547C34.0942 30.618 34.0942 31.0432 33.831 31.3065C33.696 31.4415 33.5272 31.5022 33.3517 31.5022C33.1762 31.5022 33.0075 31.4347 32.8725 31.3065L32.3932 30.8272L31.9139 31.3065C31.7789 31.4415 31.6102 31.5022 31.4347 31.5022C31.2592 31.5022 31.0905 31.4347 30.9555 31.3065C30.6922 31.0432 30.6922 30.618 30.9555 30.3547L31.4347 29.8755L30.9555 29.3962C30.6922 29.133 30.6922 28.7077 30.9555 28.4445C31.2187 28.1812 31.644 28.1812 31.9072 28.4445L32.3865 28.9237L32.8657 28.4445H32.8792ZM20.169 22.9297L20.6482 22.4505L20.169 21.9712C19.9057 21.708 19.9057 21.2827 20.169 21.0195C20.4322 20.7562 20.8575 20.7562 21.1207 21.0195L21.6 21.4987L22.0792 21.0195C22.3425 20.7562 22.7677 20.7562 23.031 21.0195C23.2942 21.2827 23.2942 21.708 23.031 21.9712L22.5517 22.4505L23.031 22.9297C23.2942 23.193 23.2942 23.6182 23.031 23.8815C22.896 24.0165 22.7272 24.0772 22.5517 24.0772C22.3762 24.0772 22.2075 24.0097 22.0725 23.8815L21.5932 23.4022L21.114 23.8815C20.979 24.0165 20.8102 24.0772 20.6347 24.0772C20.4592 24.0772 20.2905 24.0097 20.1555 23.8815C19.8922 23.6182 19.8922 23.193 20.1555 22.9297H20.169ZM37.8 16.875H16.2C15.8287 16.875 15.525 17.1787 15.525 17.55V43.2C15.525 43.5712 15.8287 43.875 16.2 43.875H37.8C38.1712 43.875 38.475 43.5712 38.475 43.2V17.55C38.475 17.1787 38.1712 16.875 37.8 16.875ZM37.125 42.525H16.875V18.225H37.125V42.525Z" fill="#008DD2"/>
</svg>
