<svg width="54" height="54" viewBox="0 0 54 54" fill="none" xmlns="http://www.w3.org/2000/svg">
<path d="M36.8311 27.2612C36.8311 22.1566 32.6781 18.0037 27.5735 18.0037C22.4689 18.0037 18.316 22.1566 18.316 27.2612C18.316 32.3658 22.4689 36.5187 27.5735 36.5187C32.6781 36.5187 36.8311 32.3658 36.8311 27.2612ZM27.5735 35.5548C23.0004 35.5548 19.28 31.8343 19.28 27.2612C19.28 22.6881 23.0004 18.9676 27.5735 18.9676C32.1466 18.9676 35.8671 22.6881 35.8671 27.2612C35.8671 31.8343 32.1466 35.5548 27.5735 35.5548Z" fill="#008DD2" stroke="#008DD2" stroke-width="0.2"/>
<path d="M30.7388 40.3055C32.0912 39.9789 33.3722 39.4476 34.5573 38.7215L36.0676 40.2318C36.0725 40.2367 36.0782 40.24 36.0832 40.2446C36.0932 40.2538 36.1037 40.2617 36.1143 40.27C36.1328 40.2843 36.1518 40.2972 36.1717 40.3085C36.1829 40.3149 36.194 40.321 36.2057 40.3264C36.228 40.3368 36.2507 40.3448 36.2741 40.3516C36.2845 40.3546 36.2945 40.3584 36.305 40.3608C36.3388 40.3682 36.3731 40.3728 36.4075 40.3729C36.408 40.3729 36.4084 40.373 36.4088 40.373C36.4368 40.373 36.4648 40.3698 36.4925 40.3649C36.5005 40.3635 36.5082 40.3613 36.5161 40.3595C36.5358 40.355 36.5552 40.3493 36.5745 40.3422C36.5837 40.3388 36.5927 40.3353 36.6017 40.3314C36.6202 40.3233 36.6381 40.3136 36.6557 40.303C36.6634 40.2984 36.6712 40.2945 36.6787 40.2894C36.6806 40.2881 36.6828 40.2872 36.6847 40.2859C38.2112 39.2179 39.5283 37.9014 40.5995 36.373C40.6008 36.3711 40.6015 36.369 40.6027 36.3672C40.6133 36.3517 40.6213 36.3352 40.6298 36.3188C40.6362 36.3067 40.6437 36.295 40.6489 36.2826C40.6553 36.2673 40.6592 36.2514 40.6639 36.2357C40.6683 36.2212 40.6738 36.2071 40.6767 36.1924C40.6797 36.1777 40.6802 36.1628 40.6818 36.148C40.6835 36.1321 40.6862 36.1163 40.6864 36.1004C40.6865 36.085 40.6841 36.0697 40.6827 36.0544C40.6814 36.0391 40.6811 36.0238 40.6784 36.0088C40.6755 35.9932 40.6701 35.9781 40.6656 35.9628C40.6615 35.9484 40.6584 35.9338 40.6529 35.9198C40.6475 35.9061 40.6397 35.8932 40.633 35.88C40.6255 35.8651 40.6188 35.8499 40.6097 35.8358C40.6026 35.8247 40.5934 35.8148 40.5853 35.8042C40.5739 35.7893 40.5629 35.7741 40.5496 35.7605C40.548 35.7589 40.547 35.757 40.5454 35.7554L39.0337 34.2451C39.7597 33.0601 40.291 31.7792 40.6176 30.4267H42.7532C42.7534 30.4267 42.7537 30.4268 42.7539 30.4268C42.785 30.4268 42.8154 30.4233 42.8451 30.4175C42.8551 30.4156 42.8644 30.4122 42.8741 30.4096C42.8932 30.4047 42.9121 30.3994 42.9303 30.3922C42.9418 30.3876 42.9526 30.382 42.9636 30.3766C42.9791 30.369 42.9943 30.3612 43.0088 30.3521C43.0195 30.3454 43.0296 30.3381 43.0397 30.3306C43.0534 30.3204 43.0665 30.3096 43.0791 30.298C43.0881 30.2897 43.0968 30.2813 43.1051 30.2724C43.1171 30.2595 43.128 30.2459 43.1386 30.2317C43.1458 30.2222 43.1529 30.2128 43.1594 30.2026C43.1689 30.1877 43.1769 30.1719 43.1848 30.1558C43.1902 30.1448 43.1959 30.1341 43.2005 30.1227C43.2071 30.1061 43.2118 30.0885 43.2166 30.071C43.2198 30.0589 43.2239 30.0474 43.2263 30.035C43.2267 30.0327 43.2277 30.0306 43.2281 30.0282C43.3879 29.119 43.4689 28.188 43.4689 27.2612C43.4689 26.3344 43.3879 25.4035 43.2281 24.4942C43.2277 24.492 43.2267 24.4901 43.2263 24.4878C43.2229 24.4696 43.2169 24.4524 43.2114 24.4349C43.2073 24.4217 43.2043 24.408 43.1991 24.3953C43.1932 24.3808 43.1852 24.3677 43.1779 24.354C43.1704 24.3396 43.1637 24.3248 43.1548 24.3115C43.1481 24.3014 43.1398 24.2926 43.1324 24.2831C43.1206 24.268 43.1094 24.2526 43.0961 24.2391C43.0889 24.2318 43.0804 24.226 43.0728 24.2192C43.0574 24.2054 43.0422 24.1915 43.0251 24.1799C43.0171 24.1744 43.008 24.1704 42.9996 24.1654C42.9815 24.1545 42.9634 24.1435 42.9439 24.1351C42.9352 24.1314 42.9258 24.1293 42.9169 24.1261C42.8963 24.1186 42.8758 24.1112 42.8541 24.1066C42.8447 24.1046 42.8348 24.1044 42.8251 24.1029C42.8033 24.0996 42.7815 24.0965 42.759 24.0963C42.7571 24.0962 42.7553 24.0957 42.7534 24.0957H40.6176C40.291 22.7433 39.7597 21.4624 39.0337 20.2773L40.5454 18.7671C40.547 18.7655 40.548 18.7636 40.5496 18.7621C40.5629 18.7484 40.5739 18.7332 40.5853 18.7183C40.5934 18.7078 40.6026 18.6978 40.6097 18.6868C40.6188 18.6726 40.6255 18.6574 40.633 18.6425C40.6397 18.6293 40.6475 18.6165 40.6529 18.6027C40.6584 18.5888 40.6615 18.5741 40.6656 18.5597C40.6701 18.5444 40.6755 18.5293 40.6784 18.5137C40.6811 18.4987 40.6814 18.4834 40.6827 18.4681C40.6841 18.4528 40.6865 18.4375 40.6864 18.4221C40.6862 18.4062 40.6835 18.3904 40.6818 18.3745C40.6802 18.3597 40.6797 18.3448 40.6767 18.3301C40.6738 18.3154 40.6683 18.3013 40.6639 18.2868C40.6592 18.2711 40.6553 18.2552 40.6489 18.24C40.6437 18.2275 40.6362 18.2158 40.6298 18.2037C40.6213 18.1873 40.6133 18.1708 40.6027 18.1553C40.6015 18.1535 40.6008 18.1514 40.5995 18.1495C39.5283 16.6211 38.2112 15.3046 36.6847 14.2366C36.683 14.2354 36.6811 14.2348 36.6794 14.2337C36.6637 14.223 36.647 14.2149 36.6305 14.2063C36.6184 14.1999 36.6068 14.1925 36.5944 14.1873C36.5799 14.1812 36.5647 14.1776 36.5497 14.173C36.5345 14.1683 36.5196 14.1626 36.5041 14.1595C36.4907 14.1568 36.4771 14.1564 36.4635 14.1549C36.4464 14.1529 36.4293 14.15 36.4121 14.1499C36.3976 14.1498 36.3833 14.1522 36.3689 14.1534C36.3528 14.1547 36.3366 14.155 36.3207 14.158C36.3051 14.1609 36.29 14.1663 36.2746 14.1708C36.2603 14.1749 36.2458 14.178 36.2319 14.1834C36.2175 14.1891 36.2041 14.1971 36.1903 14.2042C36.1761 14.2114 36.1616 14.2177 36.1481 14.2264C36.1361 14.2341 36.1253 14.244 36.1139 14.2528C36.1 14.2637 36.0857 14.2739 36.0728 14.2864C36.0712 14.288 36.0692 14.2891 36.0676 14.2907L34.5573 15.801C33.3722 15.0749 32.0912 14.5436 30.7388 14.217V12.0812C30.7388 12.079 30.7382 12.0769 30.7382 12.0747C30.7379 12.0557 30.735 12.0373 30.7325 12.0187C30.7308 12.0054 30.7302 11.9919 30.7274 11.9789C30.7239 11.9626 30.7179 11.9472 30.7127 11.9315C30.708 11.9173 30.7044 11.9026 30.6985 11.889C30.6925 11.8753 30.6844 11.8629 30.6772 11.8499C30.6695 11.8358 30.6626 11.8213 30.6535 11.8081C30.6448 11.7954 30.634 11.7843 30.6241 11.7724C30.6143 11.7608 30.6053 11.7484 30.5945 11.7377C30.583 11.7264 30.5697 11.717 30.557 11.7068C30.5456 11.6976 30.5349 11.6876 30.5226 11.6795C30.51 11.6711 30.4959 11.6649 30.4825 11.6577C30.4681 11.65 30.4543 11.6416 30.4391 11.6354C30.4266 11.6303 30.4129 11.6273 30.3998 11.6232C30.3822 11.6177 30.365 11.6117 30.3466 11.6082C30.3444 11.6078 30.3425 11.6068 30.3403 11.6065C28.5217 11.2869 26.6248 11.2869 24.8063 11.6065C24.8041 11.6068 24.8021 11.6078 24.7999 11.6082C24.7816 11.6117 24.7643 11.6177 24.7468 11.6232C24.7336 11.6273 24.72 11.6303 24.7074 11.6354C24.6922 11.6417 24.6784 11.6501 24.664 11.6577C24.6506 11.6649 24.6366 11.6711 24.624 11.6795C24.6117 11.6876 24.6009 11.6977 24.5894 11.7069C24.5768 11.7171 24.5636 11.7264 24.5521 11.7377C24.5412 11.7484 24.5323 11.7608 24.5225 11.7724C24.5125 11.7843 24.5018 11.7954 24.493 11.8081C24.4839 11.8213 24.4771 11.8358 24.4693 11.8499C24.4622 11.8629 24.454 11.8753 24.4481 11.889C24.4421 11.9027 24.4385 11.9174 24.4338 11.9317C24.4286 11.9473 24.4227 11.9626 24.4191 11.9789C24.4163 11.9919 24.4158 12.0055 24.414 12.0189C24.4116 12.0374 24.4086 12.0557 24.4084 12.0747C24.4084 12.0769 24.4078 12.079 24.4078 12.0812V14.217C23.0553 14.5436 21.7743 15.075 20.5892 15.801L19.079 14.2907C19.0774 14.2891 19.0754 14.2881 19.0738 14.2865C19.0606 14.2736 19.046 14.2632 19.0317 14.2521C19.0206 14.2436 19.0102 14.2339 18.9986 14.2265C18.9847 14.2175 18.9698 14.211 18.9551 14.2036C18.9417 14.1968 18.9287 14.1889 18.9148 14.1835C18.9006 14.1779 18.8858 14.1748 18.8713 14.1706C18.8561 14.1662 18.8413 14.1608 18.8258 14.158C18.8102 14.1551 18.7943 14.1548 18.7784 14.1535C18.7637 14.1522 18.7491 14.1498 18.7344 14.15C18.7177 14.1501 18.7013 14.1529 18.6846 14.1547C18.6705 14.1563 18.6563 14.1567 18.6423 14.1595C18.6273 14.1626 18.6129 14.1681 18.5982 14.1726C18.5827 14.1773 18.567 14.1811 18.552 14.1874C18.5398 14.1925 18.5285 14.1998 18.5166 14.206C18.4999 14.2147 18.483 14.2228 18.4672 14.2337C18.4654 14.2348 18.4635 14.2354 18.4618 14.2366C16.9341 15.3055 15.6175 16.6221 14.5487 18.1499C14.5475 18.1516 14.5468 18.1535 14.5457 18.1553C14.5348 18.1712 14.5265 18.1882 14.5178 18.2051C14.5117 18.2168 14.5045 18.228 14.4995 18.2399C14.4929 18.2555 14.4889 18.2718 14.4841 18.2879C14.4799 18.302 14.4745 18.3158 14.4716 18.3301C14.4686 18.3449 14.4681 18.3599 14.4665 18.3748C14.4648 18.3907 14.4621 18.4064 14.462 18.4222C14.4619 18.4375 14.4643 18.4526 14.4656 18.4678C14.467 18.4832 14.4672 18.4987 14.47 18.5139C14.4729 18.5293 14.4783 18.5442 14.4826 18.5593C14.4868 18.5739 14.49 18.5887 14.4955 18.6029C14.5009 18.6165 14.5086 18.6292 14.5153 18.6424C14.5228 18.6573 14.5295 18.6726 14.5387 18.6868C14.5458 18.6979 14.555 18.7078 14.5631 18.7184C14.5746 18.7333 14.5855 18.7484 14.5988 18.7621C14.6003 18.7636 14.6013 18.7654 14.6028 18.767L16.1131 20.2771C15.387 21.4622 14.8556 22.7433 14.529 24.0957H12.3932C12.3912 24.0957 12.3893 24.0963 12.3872 24.0963C12.3667 24.0965 12.347 24.0996 12.327 24.1024C12.3152 24.104 12.3031 24.1044 12.2916 24.1069C12.2734 24.1108 12.2562 24.1173 12.2387 24.1233C12.2264 24.1275 12.2136 24.1306 12.2017 24.1357C12.1861 24.1425 12.1719 24.1515 12.1572 24.1599C12.145 24.1668 12.1321 24.1727 12.1206 24.1806C12.1067 24.1902 12.0945 24.2018 12.0817 24.2127C12.0711 24.2217 12.0598 24.2299 12.05 24.2398C12.0383 24.2517 12.0286 24.2653 12.0181 24.2784C12.0092 24.2896 11.9995 24.2999 11.9916 24.3119C11.9832 24.3244 11.977 24.3384 11.9699 24.3519C11.9621 24.3663 11.9537 24.3802 11.9475 24.3954C11.9424 24.4079 11.9394 24.4214 11.9354 24.4344C11.9298 24.4521 11.9238 24.4694 11.9203 24.4879C11.9199 24.4901 11.9189 24.492 11.9185 24.4942C11.7588 25.4035 11.6777 26.3344 11.6777 27.2612C11.6777 28.188 11.7588 29.119 11.9185 30.0282C11.9189 30.0306 11.9199 30.0327 11.9203 30.035C11.9227 30.0474 11.9268 30.0589 11.9301 30.071C11.9348 30.0885 11.9395 30.1061 11.9461 30.1227C11.9507 30.1341 11.9564 30.1448 11.9618 30.1558C11.9697 30.1719 11.9777 30.1877 11.9873 30.2026C11.9937 30.2128 12.0008 30.2222 12.008 30.2317C12.0186 30.2459 12.0295 30.2595 12.0415 30.2724C12.0498 30.2813 12.0585 30.2897 12.0675 30.298C12.0801 30.3096 12.0932 30.3204 12.1069 30.3306C12.117 30.3381 12.1271 30.3454 12.1378 30.3521C12.1524 30.3612 12.1675 30.369 12.183 30.3766C12.194 30.382 12.2048 30.3876 12.2164 30.3922C12.2345 30.3994 12.2534 30.4047 12.2725 30.4096C12.2822 30.4122 12.2915 30.4156 12.3015 30.4175C12.3313 30.4233 12.3616 30.4268 12.3927 30.4268C12.3929 30.4268 12.3932 30.4267 12.3935 30.4267H14.529C14.8556 31.7792 15.387 33.0602 16.113 34.2453L14.6027 35.7555C14.6012 35.7571 14.6001 35.759 14.5986 35.7606C14.5857 35.7739 14.5752 35.7885 14.5641 35.8029C14.5555 35.8139 14.546 35.8243 14.5385 35.8359C14.5297 35.8496 14.5232 35.8644 14.5159 35.8789C14.509 35.8925 14.501 35.9057 14.4955 35.9198C14.4901 35.9335 14.4871 35.9479 14.4829 35.9621C14.4784 35.9776 14.4729 35.9929 14.47 36.0087C14.4672 36.0237 14.467 36.0389 14.4657 36.054C14.4643 36.0695 14.4618 36.0848 14.462 36.1003C14.4621 36.1161 14.4648 36.1317 14.4665 36.1474C14.4681 36.1625 14.4686 36.1776 14.4716 36.1924C14.4745 36.2066 14.4798 36.2203 14.484 36.2343C14.4889 36.2506 14.4929 36.2669 14.4995 36.2827C14.5044 36.2944 14.5115 36.3054 14.5174 36.3168C14.5263 36.3339 14.5347 36.3512 14.5458 36.3674C14.5469 36.3691 14.5475 36.371 14.5487 36.3727C15.6175 37.9004 16.9341 39.217 18.4618 40.2859C18.4638 40.2872 18.4659 40.2881 18.4679 40.2894C18.4753 40.2945 18.4832 40.2984 18.4909 40.303C18.5085 40.3136 18.5264 40.3233 18.5448 40.3314C18.5539 40.3353 18.5629 40.3388 18.5721 40.3422C18.5913 40.3493 18.6108 40.355 18.6305 40.3595C18.6384 40.3613 18.6461 40.3635 18.654 40.3649C18.6818 40.3698 18.7098 40.373 18.7377 40.373C18.7382 40.373 18.7386 40.3729 18.739 40.3729C18.7735 40.3728 18.8077 40.3682 18.8415 40.3608C18.8521 40.3584 18.8621 40.3546 18.8725 40.3516C18.8958 40.3448 18.9186 40.3368 18.9409 40.3264C18.9525 40.321 18.9636 40.3149 18.9749 40.3085C18.9948 40.2972 19.0137 40.2843 19.0322 40.27C19.0428 40.2617 19.0533 40.2538 19.0633 40.2446C19.0683 40.24 19.0741 40.2367 19.079 40.2318L20.5892 38.7215C21.7743 39.4476 23.0553 39.9789 24.4078 40.3055V42.4413C24.4078 42.4436 24.4084 42.4456 24.4084 42.4478C24.4086 42.4668 24.4116 42.4851 24.414 42.5037C24.4158 42.517 24.4163 42.5306 24.4191 42.5436C24.4227 42.5599 24.4286 42.5752 24.4338 42.5909C24.4385 42.6052 24.4421 42.6198 24.4481 42.6335C24.454 42.6472 24.4622 42.6596 24.4693 42.6727C24.4771 42.6867 24.4839 42.7013 24.493 42.7144C24.5018 42.7271 24.5125 42.7382 24.5225 42.7501C24.5323 42.7618 24.5412 42.7741 24.5521 42.7848C24.5636 42.7961 24.5768 42.8054 24.5894 42.8156C24.6009 42.8248 24.6117 42.8349 24.624 42.843C24.6366 42.8514 24.6506 42.8576 24.664 42.8648C24.6784 42.8724 24.6922 42.8809 24.7074 42.8871C24.72 42.8922 24.7336 42.8952 24.7468 42.8993C24.7643 42.9048 24.7816 42.9108 24.7999 42.9143C24.8021 42.9147 24.8041 42.9157 24.8063 42.9161C25.7155 43.0758 26.6465 43.1568 27.5733 43.1568C28.5001 43.1568 29.431 43.0758 30.3403 42.9161C30.3425 42.9157 30.3444 42.9147 30.3466 42.9143C30.365 42.9108 30.3822 42.9048 30.3998 42.8993C30.4129 42.8952 30.4266 42.8922 30.4391 42.8871C30.4543 42.8809 30.4681 42.8725 30.4825 42.8648C30.4959 42.8576 30.51 42.8514 30.5226 42.843C30.5349 42.8349 30.5456 42.8249 30.557 42.8157C30.5697 42.8055 30.583 42.7961 30.5945 42.7848C30.6053 42.7741 30.6143 42.7618 30.6241 42.7501C30.634 42.7382 30.6448 42.7271 30.6535 42.7144C30.6626 42.7013 30.6695 42.6867 30.6772 42.6727C30.6844 42.6596 30.6925 42.6472 30.6985 42.6335C30.7044 42.6199 30.708 42.6053 30.7127 42.591C30.7179 42.5753 30.7239 42.5599 30.7274 42.5436C30.7302 42.5307 30.7308 42.5171 30.7325 42.5038C30.735 42.4852 30.7379 42.4668 30.7382 42.4478C30.7382 42.4456 30.7388 42.4436 30.7388 42.4413V40.3055ZM25.3717 42.0276V39.927C25.3717 39.9264 25.3717 39.9258 25.3717 39.9253V39.9238C25.3717 39.9173 25.37 39.9112 25.3698 39.9047C25.3688 39.8792 25.3671 39.8538 25.3621 39.8292C25.3592 39.8146 25.3538 39.8011 25.3496 39.7871C25.3449 39.7713 25.3413 39.7551 25.335 39.74C25.3285 39.7242 25.3196 39.71 25.3115 39.6951C25.3048 39.6827 25.2991 39.6697 25.2914 39.658C25.2825 39.6447 25.2718 39.6331 25.2617 39.6208C25.2521 39.609 25.2435 39.5966 25.2328 39.5858C25.2224 39.5752 25.2103 39.5665 25.1989 39.5569C25.1866 39.5465 25.175 39.5353 25.1616 39.5261C25.1475 39.5165 25.1318 39.5092 25.1167 39.5011C25.1044 39.4945 25.0929 39.4867 25.0799 39.4811C25.0569 39.4712 25.0326 39.4644 25.008 39.4582C25.0015 39.4565 24.9958 39.4536 24.9892 39.4522C24.9885 39.452 24.9878 39.4519 24.9871 39.4517C24.987 39.4517 24.9868 39.4516 24.9867 39.4516C23.4829 39.1343 22.069 38.5477 20.7842 37.7082C20.7839 37.7079 20.7835 37.7077 20.7832 37.7075C20.7829 37.7073 20.7826 37.7072 20.7824 37.707C20.7789 37.7047 20.7751 37.7036 20.7715 37.7014C20.7477 37.6867 20.7233 37.6733 20.6978 37.6631C20.6821 37.6568 20.6658 37.6535 20.6497 37.6489C20.636 37.645 20.6226 37.6398 20.6086 37.6371C20.5889 37.6334 20.5691 37.6327 20.5492 37.6314C20.5382 37.6307 20.5273 37.6287 20.5163 37.6287C20.4971 37.6288 20.4782 37.6318 20.4592 37.6342C20.4474 37.6357 20.4355 37.6358 20.4239 37.6381C20.4059 37.6417 20.3888 37.6481 20.3714 37.6537C20.3592 37.6576 20.3467 37.6602 20.3348 37.6651C20.3158 37.6729 20.298 37.6836 20.28 37.6939C20.2708 37.6992 20.2611 37.703 20.2521 37.709C20.2282 37.7248 20.206 37.7435 20.1849 37.7638C20.1827 37.766 20.18 37.7674 20.1778 37.7696L20.1774 37.7701C20.1769 37.7705 20.1764 37.771 20.176 37.7715L18.6894 39.258C17.5008 38.3781 16.4564 37.3337 15.5765 36.1451L17.0634 34.6583C17.0636 34.658 17.0639 34.6577 17.0642 34.6574L17.065 34.6567C17.069 34.6526 17.0718 34.6478 17.0757 34.6436C17.0937 34.6243 17.1109 34.6044 17.1253 34.5828C17.1334 34.5706 17.1389 34.5575 17.1458 34.5448C17.1538 34.53 17.1628 34.5158 17.1692 34.5003C17.1756 34.4849 17.1793 34.4687 17.184 34.4527C17.1881 34.439 17.1934 34.4256 17.1962 34.4115C17.1993 34.3961 17.1998 34.3804 17.2014 34.3648C17.203 34.3495 17.2057 34.3345 17.2058 34.319C17.2059 34.3043 17.2034 34.2898 17.2022 34.2752C17.2008 34.2589 17.2006 34.2427 17.1975 34.2265C17.1943 34.2093 17.1882 34.1927 17.1831 34.1759C17.1791 34.1629 17.1767 34.1497 17.1716 34.137C17.1609 34.1103 17.1472 34.0846 17.1315 34.0597C17.13 34.0573 17.1292 34.0546 17.1276 34.0521C17.1274 34.0519 17.1273 34.0517 17.1272 34.0515C17.1269 34.0511 17.1266 34.0506 17.1263 34.0502C16.2869 32.7655 15.7003 31.3516 15.383 29.8478C15.3829 29.8477 15.3829 29.8475 15.3829 29.8474C15.3827 29.8467 15.3825 29.846 15.3824 29.8453C15.3809 29.8385 15.3779 29.8325 15.3762 29.8259C15.37 29.8015 15.3633 29.7774 15.3536 29.7547C15.3474 29.7404 15.3389 29.7277 15.3315 29.7141C15.324 29.7004 15.3175 29.6861 15.3087 29.6732C15.2981 29.6577 15.2854 29.6442 15.2732 29.6302C15.2651 29.6209 15.2581 29.6108 15.2494 29.6022C15.2362 29.5891 15.2213 29.5784 15.2067 29.567C15.1969 29.5593 15.1879 29.5506 15.1774 29.5436C15.1623 29.5335 15.1458 29.526 15.1296 29.5177C15.1182 29.5118 15.1075 29.5048 15.0955 29.4998C15.0761 29.4917 15.0555 29.4865 15.0351 29.481C15.0253 29.4784 15.0162 29.4744 15.0062 29.4724C14.9776 29.4667 14.9482 29.464 14.9185 29.4636C14.9159 29.4636 14.9134 29.4628 14.9108 29.4628H14.9101C14.9091 29.4628 14.9081 29.4628 14.9071 29.4628H12.8069C12.6993 28.7358 12.6417 27.9975 12.6417 27.2612C12.6417 26.5249 12.6993 25.7867 12.8069 25.0596H14.9106C14.9108 25.0596 14.911 25.0597 14.9112 25.0597C14.9419 25.0597 14.9719 25.0562 15.0014 25.0505C15.0114 25.0486 15.0208 25.0453 15.0305 25.0428C15.0493 25.038 15.0679 25.0327 15.0858 25.0257C15.0971 25.0212 15.1078 25.016 15.1187 25.0107C15.1343 25.0032 15.1494 24.9952 15.1641 24.9861C15.1744 24.9797 15.1844 24.973 15.1941 24.9659C15.2084 24.9555 15.2218 24.9442 15.2349 24.9322C15.2433 24.9246 15.2517 24.9171 15.2595 24.9089C15.2726 24.8952 15.2843 24.8803 15.2957 24.8649C15.3018 24.8568 15.3084 24.8491 15.314 24.8405C15.3255 24.823 15.335 24.8041 15.3442 24.7849C15.3479 24.7771 15.3526 24.7699 15.3559 24.7619C15.367 24.7349 15.3761 24.7067 15.3824 24.6771C15.3825 24.6764 15.3827 24.6758 15.3829 24.6751C15.3829 24.6749 15.3829 24.6748 15.383 24.6746C15.7003 23.1708 16.2869 21.7569 17.1265 20.4721C17.1267 20.4718 17.1268 20.4715 17.127 20.4712C17.1272 20.4709 17.1274 20.4706 17.1276 20.4703C17.1299 20.4668 17.1311 20.4629 17.1333 20.4593C17.148 20.4355 17.1614 20.4111 17.1715 20.3855C17.1767 20.3726 17.1792 20.3592 17.1832 20.3461C17.1883 20.3294 17.1943 20.313 17.1975 20.2959C17.2006 20.2797 17.2009 20.2634 17.2022 20.2471C17.2035 20.2325 17.2059 20.2181 17.2058 20.2034C17.2057 20.1877 17.2029 20.1722 17.2013 20.1566C17.1997 20.1414 17.1993 20.1261 17.1962 20.1111C17.1932 20.0962 17.1877 20.0821 17.1833 20.0676C17.1788 20.0524 17.1753 20.037 17.1692 20.0223C17.1623 20.0055 17.1526 19.9899 17.1438 19.974C17.1375 19.9626 17.1327 19.9508 17.1254 19.9399C17.1093 19.9156 17.0904 19.893 17.0697 19.8717C17.0679 19.8698 17.0667 19.8676 17.0649 19.8658L17.0646 19.8654C17.064 19.8649 17.0635 19.8644 17.063 19.8638L15.5765 18.3775C16.4564 17.1888 17.5008 16.1445 18.6894 15.2645L20.1778 16.7529C20.1811 16.7562 20.185 16.7583 20.1883 16.7614C20.1973 16.7699 20.2071 16.7768 20.2166 16.7846C20.2363 16.8005 20.2565 16.8151 20.2779 16.8275C20.2888 16.8338 20.2997 16.8395 20.311 16.8449C20.3341 16.856 20.3577 16.8648 20.3819 16.872C20.3923 16.8751 20.4023 16.8787 20.4128 16.8811C20.4476 16.8889 20.4828 16.894 20.5183 16.894C20.5186 16.894 20.5189 16.8941 20.5191 16.8941C20.5468 16.8941 20.5745 16.8909 20.602 16.886C20.6094 16.8848 20.6166 16.8829 20.6239 16.8813C20.6445 16.8767 20.6648 16.8706 20.685 16.8632C20.6926 16.8604 20.7003 16.8579 20.7078 16.8547C20.7333 16.8437 20.7584 16.8312 20.7824 16.8155C20.7826 16.8153 20.7829 16.8152 20.7832 16.815C20.7835 16.8148 20.7839 16.8146 20.7842 16.8144C22.069 15.9748 23.4829 15.3882 24.9867 15.0709C24.9868 15.0709 24.987 15.0708 24.9871 15.0708C24.9878 15.0707 24.9885 15.0705 24.9892 15.0703C24.9958 15.0689 25.0015 15.066 25.008 15.0643C25.0326 15.0581 25.0569 15.0513 25.0799 15.0414C25.0929 15.0359 25.1044 15.0281 25.1167 15.0214C25.1318 15.0133 25.1475 15.0061 25.1616 14.9964C25.175 14.9872 25.1866 14.976 25.1989 14.9656C25.2103 14.956 25.2224 14.9473 25.2328 14.9368C25.2435 14.9259 25.2521 14.9135 25.2617 14.9017C25.2718 14.8894 25.2825 14.8778 25.2914 14.8645C25.2991 14.8528 25.3048 14.8398 25.3115 14.8274C25.3196 14.8125 25.3285 14.7983 25.335 14.7826C25.3413 14.7674 25.3449 14.7512 25.3496 14.7354C25.3538 14.7214 25.3592 14.7079 25.3621 14.6933C25.3671 14.6687 25.3688 14.6433 25.3698 14.6178C25.37 14.6113 25.3717 14.6053 25.3717 14.5987V14.5972C25.3717 14.5967 25.3717 14.5961 25.3717 14.5956V12.4949C26.8249 12.2803 28.3217 12.2803 29.7749 12.4949V14.5956C29.7749 14.5961 29.7749 14.5967 29.7749 14.5972V14.5987C29.7749 14.6053 29.7765 14.6113 29.7768 14.6178C29.7778 14.6433 29.7795 14.6687 29.7844 14.6933C29.7873 14.7079 29.7928 14.7214 29.7969 14.7354C29.8017 14.7512 29.8053 14.7674 29.8116 14.7826C29.8181 14.7983 29.827 14.8125 29.835 14.8274C29.8418 14.8398 29.8474 14.8528 29.8552 14.8645C29.864 14.8778 29.8748 14.8894 29.8849 14.9017C29.8944 14.9135 29.9031 14.9259 29.9138 14.9368C29.9242 14.9473 29.9363 14.956 29.9477 14.9656C29.96 14.976 29.9716 14.9872 29.985 14.9964C29.9991 15.0061 30.0147 15.0133 30.0298 15.0214C30.0422 15.0281 30.0537 15.0359 30.0667 15.0414C30.0896 15.0513 30.114 15.0581 30.1385 15.0643C30.145 15.066 30.1508 15.0689 30.1574 15.0703C30.1581 15.0705 30.1587 15.0707 30.1594 15.0708C30.1596 15.0708 30.1597 15.0709 30.1599 15.0709C31.6636 15.3882 33.0775 15.9748 34.3624 16.8144C34.3627 16.8146 34.363 16.8148 34.3633 16.815C34.3636 16.8152 34.3639 16.8153 34.3642 16.8155C34.3882 16.8312 34.4133 16.8437 34.4388 16.8547C34.4463 16.8579 34.4539 16.8604 34.4616 16.8632C34.4817 16.8706 34.502 16.8767 34.5227 16.8813C34.53 16.8829 34.5372 16.8848 34.5445 16.886C34.5721 16.8909 34.5997 16.8941 34.6274 16.8941C34.6277 16.8941 34.628 16.894 34.6283 16.894C34.6637 16.894 34.699 16.8889 34.7337 16.8811C34.7443 16.8787 34.7542 16.8751 34.7646 16.872C34.7889 16.8648 34.8124 16.856 34.8355 16.8449C34.8469 16.8395 34.8578 16.8338 34.8687 16.8275C34.8901 16.8151 34.9103 16.8005 34.9299 16.7846C34.9395 16.7768 34.9493 16.7699 34.9583 16.7614C34.9616 16.7583 34.9655 16.7562 34.9687 16.7529L36.4571 15.2645C37.645 16.1438 38.6899 17.1882 39.5715 18.3775L38.0837 19.8638C38.0831 19.8644 38.0826 19.8649 38.0821 19.8654C38.0809 19.8666 38.0799 19.8683 38.0787 19.8695C38.0572 19.8914 38.0379 19.9148 38.0213 19.9398C38.0139 19.9508 38.009 19.9628 38.0027 19.9743C37.9939 19.9901 37.9843 20.0055 37.9774 20.0221C37.9712 20.0371 37.9677 20.0528 37.9631 20.0682C37.9588 20.0825 37.9534 20.0963 37.9504 20.1109C37.9473 20.1261 37.9469 20.1415 37.9453 20.1568C37.9437 20.1723 37.9409 20.1877 37.9408 20.2033C37.9407 20.2178 37.9432 20.2321 37.9444 20.2465C37.9457 20.263 37.946 20.2795 37.9491 20.2958C37.9522 20.3126 37.9582 20.3287 37.9631 20.3452C37.9672 20.3586 37.9698 20.3723 37.9751 20.3855C37.9854 20.4114 37.9989 20.4364 38.014 20.4606C38.016 20.4637 38.017 20.4672 38.0191 20.4703C38.0192 20.4706 38.0194 20.4708 38.0195 20.471C38.0197 20.4713 38.0198 20.4716 38.02 20.4719C38.8596 21.7568 39.4463 23.1708 39.7637 24.6746C39.7636 24.6745 39.7637 24.6748 39.7637 24.6746C39.7638 24.6753 39.7641 24.6764 39.7642 24.6771C39.7705 24.7067 39.7796 24.7349 39.7907 24.7619C39.794 24.7699 39.7987 24.7771 39.8024 24.7849C39.8116 24.8041 39.8211 24.823 39.8326 24.8405C39.8382 24.8491 39.8448 24.8568 39.8509 24.8649C39.8623 24.8803 39.8741 24.8952 39.8872 24.9089C39.895 24.9171 39.9033 24.9246 39.9117 24.9322C39.9248 24.9442 39.9382 24.9555 39.9525 24.9659C39.9623 24.973 39.9722 24.9797 39.9825 24.9861C39.9972 24.9952 40.0123 25.0032 40.0279 25.0107C40.0388 25.016 40.0495 25.0212 40.0608 25.0257C40.0788 25.0327 40.0973 25.038 40.1161 25.0428C40.1258 25.0453 40.1352 25.0486 40.1452 25.0505C40.1747 25.0562 40.2047 25.0597 40.2354 25.0597C40.2356 25.0597 40.2358 25.0596 40.236 25.0596H42.3398C42.4473 25.7867 42.505 26.5249 42.505 27.2612C42.505 27.9975 42.4473 28.7358 42.3398 29.4628H40.2395C40.2385 29.4628 40.2375 29.4628 40.2365 29.4628H40.2359C40.2332 29.4628 40.2308 29.4636 40.2281 29.4636C40.1984 29.464 40.169 29.4667 40.1405 29.4724C40.1305 29.4744 40.1213 29.4784 40.1115 29.481C40.0911 29.4865 40.0705 29.4917 40.0511 29.4998C40.0391 29.5048 40.0284 29.5118 40.017 29.5177C40.0008 29.526 39.9843 29.5335 39.9692 29.5436C39.9587 29.5506 39.9497 29.5593 39.9399 29.567C39.9253 29.5784 39.9104 29.5891 39.8972 29.6022C39.8885 29.6108 39.8815 29.6209 39.8734 29.6302C39.8612 29.6442 39.8485 29.6577 39.8379 29.6732C39.8291 29.6861 39.8227 29.7004 39.8151 29.7141C39.8077 29.7277 39.7992 29.7404 39.7931 29.7547C39.7833 29.7774 39.7766 29.8015 39.7704 29.8259C39.7687 29.8325 39.7657 29.8385 39.7642 29.8453C39.7641 29.846 39.7639 29.8467 39.7638 29.8474C39.7637 29.8475 39.7638 29.8472 39.7638 29.8474C39.4464 31.3513 38.8596 32.7657 38.02 34.0506C38.0198 34.0508 38.0197 34.0511 38.0195 34.0514C38.0194 34.0516 38.0192 34.0519 38.0191 34.0521C38.017 34.0553 38.0159 34.0588 38.0139 34.062C37.9989 34.0862 37.9854 34.111 37.9751 34.1369C37.9697 34.1504 37.967 34.1643 37.9629 34.1779C37.9581 34.1941 37.9522 34.21 37.9491 34.2265C37.946 34.243 37.9457 34.2596 37.9443 34.2761C37.9431 34.2905 37.9407 34.3047 37.9408 34.3191C37.9409 34.3347 37.9437 34.3499 37.9453 34.3654C37.9469 34.3808 37.9473 34.3963 37.9504 34.4116C37.9533 34.4259 37.9587 34.4396 37.9629 34.4537C37.9676 34.4693 37.9712 34.4852 37.9775 34.5004C37.9842 34.5167 37.9936 34.5317 38.0022 34.5473C38.0087 34.5591 38.0137 34.5714 38.0213 34.5827C38.0377 34.6074 38.0569 34.6305 38.078 34.6521C38.0795 34.6536 38.0804 34.6553 38.0819 34.6568C38.0824 34.6573 38.0831 34.658 38.0836 34.6586L39.5715 36.145C38.6899 37.3343 37.645 38.3787 36.4571 39.258L34.9704 37.7713C34.9701 37.771 34.9697 37.7706 34.9694 37.7703L34.9687 37.7696C34.9653 37.7662 34.9613 37.764 34.9579 37.7607C34.9379 37.7418 34.9171 37.7241 34.8946 37.7091C34.8843 37.7023 34.8731 37.6977 34.8624 37.6917C34.8457 37.6824 34.8295 37.6724 34.812 37.6652C34.7988 37.6598 34.7851 37.6568 34.7716 37.6526C34.7554 37.6476 34.7396 37.6416 34.723 37.6382C34.7101 37.6356 34.697 37.6354 34.684 37.6339C34.6662 37.6318 34.6485 37.6289 34.6305 37.6288C34.6184 37.6287 34.6064 37.6309 34.5943 37.6317C34.5755 37.633 34.5568 37.6336 34.5382 37.6371C34.5234 37.6399 34.5093 37.6453 34.4948 37.6495C34.4794 37.6539 34.4638 37.6571 34.4488 37.6631C34.4232 37.6733 34.3987 37.6867 34.3749 37.7015C34.3714 37.7036 34.3676 37.7048 34.3642 37.707C34.3639 37.7072 34.3637 37.7073 34.3634 37.7075C34.363 37.7077 34.3627 37.7079 34.3623 37.7082C33.0775 38.5477 31.6636 39.1343 30.1599 39.4516C30.1597 39.4516 30.1596 39.4517 30.1594 39.4517C30.1587 39.4519 30.1581 39.452 30.1574 39.4522C30.1508 39.4536 30.145 39.4565 30.1385 39.4582C30.114 39.4644 30.0896 39.4712 30.0667 39.4811C30.0537 39.4867 30.0422 39.4945 30.0298 39.5011C30.0147 39.5092 29.9991 39.5165 29.985 39.5261C29.9716 39.5353 29.96 39.5465 29.9477 39.5569C29.9363 39.5665 29.9242 39.5752 29.9138 39.5858C29.9031 39.5966 29.8944 39.609 29.8849 39.6208C29.8748 39.6331 29.864 39.6447 29.8552 39.658C29.8474 39.6697 29.8418 39.6827 29.835 39.6951C29.827 39.71 29.8181 39.7242 29.8116 39.74C29.8053 39.7551 29.8017 39.7713 29.7969 39.7871C29.7928 39.8011 29.7873 39.8146 29.7844 39.8292C29.7795 39.8538 29.7778 39.8792 29.7768 39.9047C29.7765 39.9112 29.7749 39.9173 29.7749 39.9238V39.9253C29.7749 39.9258 29.7749 39.9264 29.7749 39.927V42.0276C28.3217 42.2422 26.8249 42.2422 25.3717 42.0276Z" fill="#008DD2"/>
<path d="M39.7637 24.6746C39.4463 23.1708 38.8596 21.7568 38.02 20.4719C38.0198 20.4716 38.0197 20.4713 38.0195 20.471C38.0194 20.4708 38.0192 20.4706 38.0191 20.4703C38.017 20.4672 38.016 20.4637 38.014 20.4606C37.9989 20.4364 37.9854 20.4114 37.9751 20.3855C37.9698 20.3723 37.9672 20.3586 37.9631 20.3452C37.9582 20.3287 37.9522 20.3126 37.9491 20.2958C37.946 20.2795 37.9457 20.263 37.9444 20.2465C37.9432 20.2321 37.9407 20.2178 37.9408 20.2033C37.9409 20.1877 37.9437 20.1723 37.9453 20.1568C37.9469 20.1415 37.9473 20.1261 37.9504 20.1109C37.9534 20.0963 37.9588 20.0825 37.9631 20.0682C37.9677 20.0528 37.9712 20.0371 37.9774 20.0221C37.9843 20.0055 37.9939 19.9901 38.0027 19.9743C38.009 19.9628 38.0139 19.9508 38.0213 19.9398C38.0379 19.9148 38.0572 19.8914 38.0787 19.8695C38.0799 19.8683 38.0809 19.8666 38.0821 19.8654C38.0826 19.8649 38.0831 19.8644 38.0837 19.8638L39.5715 18.3775C38.6899 17.1882 37.645 16.1438 36.4571 15.2645L34.9687 16.7529C34.9655 16.7562 34.9616 16.7583 34.9583 16.7614C34.9493 16.7699 34.9395 16.7768 34.9299 16.7846C34.9103 16.8005 34.8901 16.8151 34.8687 16.8275C34.8578 16.8338 34.8469 16.8395 34.8355 16.8449C34.8124 16.856 34.7889 16.8648 34.7646 16.872C34.7542 16.8751 34.7443 16.8787 34.7337 16.8811C34.699 16.8889 34.6637 16.894 34.6283 16.894C34.628 16.894 34.6277 16.8941 34.6274 16.8941C34.5997 16.8941 34.5721 16.8909 34.5445 16.886C34.5372 16.8848 34.53 16.8829 34.5227 16.8813C34.502 16.8767 34.4817 16.8706 34.4616 16.8632C34.4539 16.8604 34.4463 16.8579 34.4388 16.8547C34.4133 16.8437 34.3882 16.8312 34.3642 16.8155C34.3639 16.8153 34.3636 16.8152 34.3633 16.815C34.363 16.8148 34.3627 16.8146 34.3624 16.8144C33.0775 15.9748 31.6636 15.3882 30.1599 15.0709C30.1597 15.0709 30.1596 15.0708 30.1594 15.0708C30.1587 15.0707 30.1581 15.0705 30.1574 15.0703C30.1508 15.0689 30.145 15.066 30.1385 15.0643C30.114 15.0581 30.0896 15.0513 30.0667 15.0414C30.0537 15.0359 30.0422 15.0281 30.0298 15.0214C30.0147 15.0133 29.9991 15.0061 29.985 14.9964C29.9716 14.9872 29.96 14.976 29.9477 14.9656C29.9363 14.956 29.9242 14.9473 29.9138 14.9368C29.9031 14.9259 29.8944 14.9135 29.8849 14.9017C29.8748 14.8894 29.864 14.8778 29.8552 14.8645C29.8474 14.8528 29.8418 14.8398 29.835 14.8274C29.827 14.8125 29.8181 14.7983 29.8116 14.7826C29.8053 14.7674 29.8017 14.7512 29.7969 14.7354C29.7928 14.7214 29.7873 14.7079 29.7844 14.6933C29.7795 14.6687 29.7778 14.6433 29.7768 14.6178C29.7765 14.6113 29.7749 14.6053 29.7749 14.5987V14.5972C29.7749 14.5967 29.7749 14.5961 29.7749 14.5956V12.4949C28.3217 12.2803 26.8249 12.2803 25.3717 12.4949V14.5956C25.3717 14.5961 25.3717 14.5967 25.3717 14.5972V14.5987C25.3717 14.6053 25.37 14.6113 25.3698 14.6178C25.3688 14.6433 25.3671 14.6687 25.3621 14.6933C25.3592 14.7079 25.3538 14.7214 25.3496 14.7354C25.3449 14.7512 25.3413 14.7674 25.335 14.7826C25.3285 14.7983 25.3196 14.8125 25.3115 14.8274C25.3048 14.8398 25.2991 14.8528 25.2914 14.8645C25.2825 14.8778 25.2718 14.8894 25.2617 14.9017C25.2521 14.9135 25.2435 14.9259 25.2328 14.9368C25.2224 14.9473 25.2103 14.956 25.1989 14.9656C25.1866 14.976 25.175 14.9872 25.1616 14.9964C25.1475 15.0061 25.1318 15.0133 25.1167 15.0214C25.1044 15.0281 25.0929 15.0359 25.0799 15.0414C25.0569 15.0513 25.0326 15.0581 25.008 15.0643C25.0015 15.066 24.9958 15.0689 24.9892 15.0703C24.9885 15.0705 24.9878 15.0707 24.9871 15.0708C24.987 15.0708 24.9868 15.0709 24.9867 15.0709C23.4829 15.3882 22.069 15.9748 20.7842 16.8144C20.7839 16.8146 20.7835 16.8148 20.7832 16.815C20.7829 16.8152 20.7826 16.8153 20.7824 16.8155C20.7584 16.8312 20.7333 16.8437 20.7078 16.8547C20.7003 16.8579 20.6926 16.8604 20.685 16.8632C20.6648 16.8706 20.6445 16.8767 20.6239 16.8813C20.6166 16.8829 20.6094 16.8848 20.602 16.886C20.5745 16.8909 20.5468 16.8941 20.5191 16.8941C20.5189 16.8941 20.5186 16.894 20.5183 16.894C20.4828 16.894 20.4476 16.8889 20.4128 16.8811C20.4023 16.8787 20.3923 16.8751 20.3819 16.872C20.3577 16.8648 20.3341 16.856 20.311 16.8449C20.2997 16.8395 20.2888 16.8338 20.2779 16.8275C20.2565 16.8151 20.2363 16.8005 20.2166 16.7846C20.2071 16.7768 20.1973 16.7699 20.1883 16.7614C20.185 16.7583 20.1811 16.7562 20.1778 16.7529L18.6894 15.2645C17.5008 16.1445 16.4564 17.1888 15.5765 18.3775L17.063 19.8638C17.0635 19.8644 17.064 19.8649 17.0646 19.8654L17.0649 19.8658C17.0667 19.8676 17.0679 19.8698 17.0697 19.8717C17.0904 19.893 17.1093 19.9156 17.1254 19.9399C17.1327 19.9508 17.1375 19.9626 17.1438 19.974C17.1526 19.9899 17.1623 20.0055 17.1692 20.0223C17.1753 20.037 17.1788 20.0524 17.1833 20.0676C17.1877 20.0821 17.1932 20.0962 17.1962 20.1111C17.1993 20.1261 17.1997 20.1414 17.2013 20.1566C17.2029 20.1722 17.2057 20.1877 17.2058 20.2034C17.2059 20.2181 17.2035 20.2325 17.2022 20.2471C17.2009 20.2634 17.2006 20.2797 17.1975 20.2959C17.1943 20.313 17.1883 20.3294 17.1832 20.3461C17.1792 20.3592 17.1767 20.3726 17.1715 20.3855C17.1614 20.4111 17.148 20.4355 17.1333 20.4593C17.1311 20.4629 17.1299 20.4668 17.1276 20.4703C17.1274 20.4706 17.1272 20.4709 17.127 20.4712C17.1268 20.4715 17.1267 20.4718 17.1265 20.4721C16.2869 21.7569 15.7003 23.1708 15.383 24.6746C15.3829 24.6748 15.3829 24.6749 15.3829 24.6751C15.3827 24.6758 15.3825 24.6764 15.3824 24.6771C15.3761 24.7067 15.367 24.7349 15.3559 24.7619C15.3526 24.7699 15.3479 24.7771 15.3442 24.7849C15.335 24.8041 15.3255 24.823 15.314 24.8405C15.3084 24.8491 15.3018 24.8568 15.2957 24.8649C15.2843 24.8803 15.2726 24.8952 15.2595 24.9089C15.2517 24.9171 15.2433 24.9246 15.2349 24.9322C15.2218 24.9442 15.2084 24.9555 15.1941 24.9659C15.1844 24.973 15.1744 24.9797 15.1641 24.9861C15.1494 24.9952 15.1343 25.0032 15.1187 25.0107C15.1078 25.016 15.0971 25.0212 15.0858 25.0257C15.0679 25.0327 15.0493 25.038 15.0305 25.0428C15.0208 25.0453 15.0114 25.0486 15.0014 25.0505C14.9719 25.0562 14.9419 25.0597 14.9112 25.0597C14.911 25.0597 14.9108 25.0596 14.9106 25.0596H12.8069C12.6993 25.7867 12.6417 26.5249 12.6417 27.2612C12.6417 27.9975 12.6993 28.7358 12.8069 29.4628H14.9071C14.9081 29.4628 14.9091 29.4628 14.9101 29.4628H14.9108C14.9134 29.4628 14.9159 29.4636 14.9185 29.4636C14.9482 29.464 14.9776 29.4667 15.0062 29.4724C15.0162 29.4744 15.0253 29.4784 15.0351 29.481C15.0555 29.4865 15.0761 29.4917 15.0955 29.4998C15.1075 29.5048 15.1182 29.5118 15.1296 29.5177C15.1458 29.526 15.1623 29.5335 15.1774 29.5436C15.1879 29.5506 15.1969 29.5593 15.2067 29.567C15.2213 29.5784 15.2362 29.5891 15.2494 29.6022C15.2581 29.6108 15.2651 29.6209 15.2732 29.6302C15.2854 29.6442 15.2981 29.6577 15.3087 29.6732C15.3175 29.6861 15.324 29.7004 15.3315 29.7141C15.3389 29.7277 15.3474 29.7404 15.3536 29.7547C15.3633 29.7774 15.37 29.8015 15.3762 29.8259C15.3779 29.8325 15.3809 29.8385 15.3824 29.8453C15.3825 29.846 15.3827 29.8467 15.3829 29.8474C15.3829 29.8475 15.3829 29.8477 15.383 29.8478C15.7003 31.3516 16.2869 32.7655 17.1263 34.0502C17.1266 34.0506 17.1269 34.0511 17.1272 34.0515C17.1273 34.0517 17.1274 34.0519 17.1276 34.0521C17.1292 34.0546 17.13 34.0573 17.1315 34.0598C17.1471 34.0846 17.1609 34.1103 17.1716 34.137C17.1767 34.1497 17.1791 34.1629 17.1831 34.1759C17.1882 34.1927 17.1943 34.2093 17.1975 34.2265C17.2006 34.2427 17.2008 34.2589 17.2022 34.2752C17.2034 34.2898 17.2059 34.3043 17.2058 34.319C17.2057 34.3345 17.203 34.3495 17.2014 34.3648C17.1998 34.3804 17.1993 34.3961 17.1962 34.4115C17.1934 34.4256 17.1881 34.439 17.184 34.4527C17.1793 34.4687 17.1756 34.4849 17.1692 34.5003C17.1628 34.5158 17.1538 34.53 17.1458 34.5448C17.1389 34.5575 17.1334 34.5706 17.1253 34.5828C17.111 34.6044 17.0937 34.6243 17.0757 34.6436C17.0718 34.6478 17.069 34.6526 17.065 34.6567L17.0642 34.6574C17.0639 34.6577 17.0636 34.658 17.0634 34.6583L15.5765 36.1451C16.4564 37.3337 17.5008 38.3781 18.6894 39.258L20.176 37.7715C20.1764 37.771 20.1769 37.7705 20.1774 37.7701L20.1778 37.7696C20.18 37.7674 20.1827 37.766 20.1849 37.7638C20.206 37.7435 20.2282 37.7248 20.2521 37.7089C20.2611 37.703 20.2708 37.6992 20.28 37.6939C20.298 37.6836 20.3158 37.6729 20.3348 37.6651C20.3467 37.6602 20.3592 37.6576 20.3714 37.6537C20.3888 37.6481 20.4059 37.6417 20.4239 37.6381C20.4355 37.6358 20.4474 37.6357 20.4592 37.6342C20.4782 37.6318 20.4971 37.6288 20.5163 37.6287C20.5273 37.6287 20.5382 37.6307 20.5492 37.6314C20.5691 37.6327 20.5889 37.6334 20.6086 37.6371C20.6226 37.6398 20.636 37.645 20.6497 37.6489C20.6658 37.6535 20.6821 37.6568 20.6978 37.6631C20.7233 37.6733 20.7477 37.6867 20.7715 37.7014C20.7751 37.7036 20.7789 37.7047 20.7824 37.707C20.7826 37.7072 20.7829 37.7073 20.7832 37.7075C20.7835 37.7077 20.7839 37.7079 20.7842 37.7082C22.069 38.5477 23.4829 39.1343 24.9867 39.4516C24.9868 39.4516 24.987 39.4517 24.9871 39.4517C24.9878 39.4519 24.9885 39.452 24.9892 39.4522C24.9958 39.4536 25.0015 39.4565 25.008 39.4582C25.0326 39.4644 25.0569 39.4712 25.0799 39.4811C25.0929 39.4867 25.1044 39.4945 25.1167 39.5011C25.1318 39.5092 25.1475 39.5165 25.1616 39.5261C25.175 39.5353 25.1866 39.5465 25.1989 39.5569C25.2103 39.5665 25.2224 39.5752 25.2328 39.5858C25.2435 39.5966 25.2521 39.609 25.2617 39.6208C25.2718 39.6331 25.2825 39.6447 25.2914 39.658C25.2991 39.6697 25.3048 39.6827 25.3115 39.6951C25.3196 39.71 25.3285 39.7242 25.335 39.74C25.3413 39.7551 25.3449 39.7713 25.3496 39.7871C25.3538 39.8011 25.3592 39.8146 25.3621 39.8292C25.3671 39.8538 25.3688 39.8792 25.3698 39.9047C25.37 39.9112 25.3717 39.9173 25.3717 39.9238V39.9253C25.3717 39.9258 25.3717 39.9264 25.3717 39.927V42.0276C26.8249 42.2422 28.3217 42.2422 29.7749 42.0276V39.927C29.7749 39.9264 29.7749 39.9258 29.7749 39.9253V39.9238C29.7749 39.9173 29.7765 39.9112 29.7768 39.9047C29.7778 39.8792 29.7795 39.8538 29.7844 39.8292C29.7873 39.8146 29.7928 39.8011 29.7969 39.7871C29.8017 39.7713 29.8053 39.7551 29.8116 39.74C29.8181 39.7242 29.827 39.71 29.835 39.6951C29.8418 39.6827 29.8474 39.6697 29.8552 39.658C29.864 39.6447 29.8748 39.6331 29.8849 39.6208C29.8944 39.609 29.9031 39.5966 29.9138 39.5858C29.9242 39.5752 29.9363 39.5665 29.9477 39.5569C29.96 39.5465 29.9716 39.5353 29.985 39.5261C29.9991 39.5165 30.0147 39.5092 30.0298 39.5011C30.0422 39.4945 30.0537 39.4867 30.0667 39.4811C30.0896 39.4712 30.114 39.4644 30.1385 39.4582C30.145 39.4565 30.1508 39.4536 30.1574 39.4522C30.1581 39.452 30.1587 39.4519 30.1594 39.4517C30.1596 39.4517 30.1597 39.4516 30.1599 39.4516C31.6636 39.1343 33.0775 38.5477 34.3623 37.7082C34.3627 37.7079 34.363 37.7077 34.3634 37.7075C34.3637 37.7073 34.3639 37.7072 34.3642 37.707C34.3676 37.7048 34.3714 37.7036 34.3749 37.7015C34.3987 37.6867 34.4232 37.6733 34.4488 37.6631C34.4638 37.6571 34.4794 37.6539 34.4948 37.6495C34.5093 37.6453 34.5234 37.6399 34.5382 37.6371C34.5568 37.6336 34.5755 37.633 34.5943 37.6317C34.6064 37.6309 34.6184 37.6287 34.6305 37.6288C34.6485 37.6289 34.6662 37.6318 34.684 37.6339C34.697 37.6354 34.7101 37.6356 34.723 37.6382C34.7396 37.6416 34.7554 37.6476 34.7716 37.6526C34.7851 37.6568 34.7988 37.6598 34.812 37.6652C34.8295 37.6724 34.8457 37.6824 34.8624 37.6917C34.8731 37.6977 34.8843 37.7023 34.8946 37.7091C34.9171 37.7241 34.9379 37.7418 34.9579 37.7607C34.9613 37.764 34.9653 37.7662 34.9687 37.7696L34.9694 37.7703C34.9697 37.7706 34.9701 37.771 34.9704 37.7713L36.4571 39.258C37.645 38.3787 38.6899 37.3343 39.5715 36.145L38.0836 34.6586C38.0831 34.658 38.0824 34.6573 38.0819 34.6568C38.0804 34.6553 38.0795 34.6536 38.078 34.6521C38.0569 34.6305 38.0377 34.6074 38.0213 34.5827C38.0137 34.5714 38.0087 34.5591 38.0022 34.5473C37.9936 34.5317 37.9842 34.5167 37.9775 34.5004C37.9712 34.4852 37.9676 34.4693 37.9629 34.4537C37.9587 34.4396 37.9533 34.4259 37.9504 34.4116C37.9473 34.3963 37.9469 34.3808 37.9453 34.3654C37.9437 34.3499 37.9409 34.3347 37.9408 34.3191C37.9407 34.3047 37.9431 34.2905 37.9443 34.2761C37.9457 34.2596 37.946 34.243 37.9491 34.2265C37.9522 34.21 37.9581 34.1941 37.9629 34.1779C37.967 34.1643 37.9697 34.1504 37.9751 34.1369C37.9854 34.111 37.9989 34.0862 38.0139 34.062C38.0159 34.0588 38.017 34.0553 38.0191 34.0521C38.0192 34.0519 38.0194 34.0516 38.0195 34.0514C38.0197 34.0511 38.0198 34.0508 38.02 34.0506C38.8596 32.7657 39.4464 31.3513 39.7638 29.8474M39.7637 24.6746C39.7637 24.6748 39.7636 24.6745 39.7637 24.6746ZM39.7637 24.6746C39.7638 24.6753 39.7641 24.6764 39.7642 24.6771C39.7705 24.7067 39.7796 24.7349 39.7907 24.7619C39.794 24.7699 39.7987 24.7771 39.8024 24.7849C39.8116 24.8041 39.8211 24.823 39.8326 24.8405C39.8382 24.8491 39.8448 24.8568 39.8509 24.8649C39.8623 24.8803 39.8741 24.8952 39.8872 24.9089C39.895 24.9171 39.9033 24.9246 39.9117 24.9322C39.9248 24.9442 39.9382 24.9555 39.9525 24.9659C39.9623 24.973 39.9722 24.9797 39.9825 24.9861C39.9972 24.9952 40.0123 25.0032 40.0279 25.0107C40.0388 25.016 40.0495 25.0212 40.0608 25.0257C40.0788 25.0327 40.0973 25.038 40.1161 25.0428C40.1258 25.0453 40.1352 25.0486 40.1452 25.0505C40.1747 25.0562 40.2047 25.0597 40.2354 25.0597C40.2356 25.0597 40.2358 25.0596 40.236 25.0596H42.3398C42.4473 25.7867 42.505 26.5249 42.505 27.2612C42.505 27.9975 42.4473 28.7358 42.3398 29.4628H40.2395C40.2385 29.4628 40.2375 29.4628 40.2365 29.4628H40.2359C40.2332 29.4628 40.2308 29.4636 40.2281 29.4636C40.1984 29.464 40.169 29.4667 40.1405 29.4724C40.1305 29.4744 40.1213 29.4784 40.1115 29.481C40.0911 29.4865 40.0705 29.4917 40.0511 29.4998C40.0391 29.5048 40.0284 29.5118 40.017 29.5177C40.0008 29.526 39.9843 29.5335 39.9692 29.5436C39.9587 29.5506 39.9497 29.5593 39.9399 29.567C39.9253 29.5784 39.9104 29.5891 39.8972 29.6022C39.8885 29.6108 39.8815 29.6209 39.8734 29.6302C39.8612 29.6442 39.8485 29.6577 39.8379 29.6732C39.8291 29.6861 39.8227 29.7004 39.8151 29.7141C39.8077 29.7277 39.7992 29.7404 39.7931 29.7547C39.7833 29.7774 39.7766 29.8015 39.7704 29.8259C39.7687 29.8325 39.7657 29.8385 39.7642 29.8453C39.7641 29.846 39.7639 29.8467 39.7638 29.8474M39.7638 29.8474C39.7637 29.8475 39.7638 29.8472 39.7638 29.8474ZM30.7388 40.3055C32.0912 39.9789 33.3722 39.4476 34.5573 38.7215L36.0676 40.2318C36.0725 40.2367 36.0782 40.24 36.0832 40.2446C36.0932 40.2538 36.1037 40.2617 36.1143 40.27C36.1328 40.2843 36.1518 40.2972 36.1717 40.3085C36.1829 40.3149 36.194 40.321 36.2057 40.3264C36.228 40.3368 36.2507 40.3448 36.2741 40.3516C36.2845 40.3546 36.2945 40.3584 36.305 40.3608C36.3388 40.3682 36.3731 40.3728 36.4075 40.3729C36.408 40.3729 36.4084 40.373 36.4088 40.373C36.4368 40.373 36.4648 40.3698 36.4925 40.3649C36.5005 40.3635 36.5082 40.3613 36.5161 40.3595C36.5358 40.355 36.5552 40.3493 36.5745 40.3422C36.5837 40.3388 36.5927 40.3353 36.6017 40.3314C36.6202 40.3233 36.6381 40.3136 36.6557 40.303C36.6634 40.2984 36.6712 40.2945 36.6787 40.2894C36.6806 40.2881 36.6828 40.2872 36.6847 40.2859C38.2112 39.2179 39.5283 37.9014 40.5995 36.373C40.6008 36.3711 40.6015 36.369 40.6027 36.3672C40.6133 36.3517 40.6213 36.3352 40.6298 36.3188C40.6362 36.3067 40.6437 36.295 40.6489 36.2826C40.6553 36.2673 40.6592 36.2514 40.6639 36.2357C40.6683 36.2212 40.6738 36.2071 40.6767 36.1924C40.6797 36.1777 40.6802 36.1628 40.6818 36.148C40.6835 36.1321 40.6862 36.1163 40.6864 36.1004C40.6865 36.085 40.6841 36.0697 40.6827 36.0544C40.6814 36.0391 40.6811 36.0238 40.6784 36.0088C40.6755 35.9932 40.6701 35.9781 40.6656 35.9628C40.6615 35.9484 40.6584 35.9338 40.6529 35.9198C40.6475 35.9061 40.6397 35.8932 40.633 35.88C40.6255 35.8651 40.6188 35.8499 40.6097 35.8358C40.6026 35.8247 40.5934 35.8148 40.5853 35.8042C40.5739 35.7893 40.5629 35.7741 40.5496 35.7605C40.548 35.7589 40.547 35.757 40.5454 35.7554L39.0337 34.2451C39.7597 33.0601 40.291 31.7792 40.6176 30.4267H42.7532C42.7534 30.4267 42.7537 30.4268 42.7539 30.4268C42.785 30.4268 42.8154 30.4233 42.8451 30.4175C42.8551 30.4156 42.8644 30.4122 42.8741 30.4096C42.8932 30.4047 42.9121 30.3994 42.9303 30.3922C42.9418 30.3876 42.9526 30.382 42.9636 30.3766C42.9791 30.369 42.9943 30.3612 43.0088 30.3521C43.0195 30.3454 43.0296 30.3381 43.0397 30.3306C43.0534 30.3204 43.0665 30.3096 43.0791 30.298C43.0881 30.2897 43.0968 30.2813 43.1051 30.2724C43.1171 30.2595 43.128 30.2459 43.1386 30.2317C43.1458 30.2222 43.1529 30.2128 43.1594 30.2026C43.1689 30.1877 43.1769 30.1719 43.1848 30.1558C43.1902 30.1448 43.1959 30.1341 43.2005 30.1227C43.2071 30.1061 43.2118 30.0885 43.2166 30.071C43.2198 30.0589 43.2239 30.0474 43.2263 30.035C43.2267 30.0327 43.2277 30.0306 43.2281 30.0282C43.3879 29.119 43.4689 28.188 43.4689 27.2612C43.4689 26.3344 43.3879 25.4035 43.2281 24.4942C43.2277 24.492 43.2267 24.4901 43.2263 24.4878C43.2229 24.4696 43.2169 24.4524 43.2114 24.4349C43.2073 24.4217 43.2043 24.408 43.1991 24.3953C43.1932 24.3808 43.1852 24.3677 43.1779 24.354C43.1704 24.3396 43.1637 24.3248 43.1548 24.3115C43.1481 24.3014 43.1398 24.2926 43.1324 24.2831C43.1207 24.268 43.1094 24.2526 43.0961 24.2391C43.0889 24.2318 43.0804 24.226 43.0728 24.2192C43.0574 24.2054 43.0422 24.1915 43.0251 24.1799C43.0171 24.1744 43.008 24.1704 42.9996 24.1654C42.9815 24.1545 42.9634 24.1435 42.9439 24.1351C42.9352 24.1314 42.9258 24.1293 42.9169 24.1261C42.8963 24.1186 42.8758 24.1112 42.8541 24.1066C42.8447 24.1046 42.8348 24.1044 42.8251 24.1029C42.8033 24.0996 42.7815 24.0965 42.759 24.0963C42.7571 24.0962 42.7553 24.0957 42.7534 24.0957H40.6176C40.291 22.7433 39.7597 21.4624 39.0337 20.2773L40.5454 18.7671C40.547 18.7655 40.548 18.7636 40.5496 18.7621C40.5629 18.7484 40.5739 18.7332 40.5853 18.7183C40.5934 18.7078 40.6026 18.6978 40.6097 18.6868C40.6188 18.6726 40.6255 18.6574 40.633 18.6425C40.6397 18.6293 40.6475 18.6165 40.6529 18.6027C40.6584 18.5888 40.6615 18.5741 40.6656 18.5597C40.6701 18.5444 40.6755 18.5293 40.6784 18.5137C40.6811 18.4987 40.6814 18.4834 40.6827 18.4681C40.6841 18.4528 40.6865 18.4375 40.6864 18.4221C40.6862 18.4062 40.6835 18.3904 40.6818 18.3745C40.6802 18.3597 40.6797 18.3448 40.6767 18.3301C40.6738 18.3154 40.6683 18.3013 40.6639 18.2868C40.6592 18.2711 40.6553 18.2552 40.6489 18.24C40.6437 18.2275 40.6362 18.2158 40.6298 18.2037C40.6213 18.1873 40.6133 18.1708 40.6027 18.1553C40.6015 18.1535 40.6008 18.1514 40.5995 18.1495C39.5283 16.6211 38.2112 15.3046 36.6847 14.2366C36.683 14.2354 36.6811 14.2348 36.6794 14.2337C36.6637 14.223 36.647 14.2149 36.6305 14.2063C36.6184 14.1999 36.6068 14.1925 36.5944 14.1873C36.5799 14.1812 36.5647 14.1776 36.5497 14.173C36.5345 14.1683 36.5196 14.1626 36.5041 14.1595C36.4907 14.1568 36.4771 14.1564 36.4635 14.1549C36.4464 14.1529 36.4293 14.15 36.4121 14.1499C36.3976 14.1498 36.3833 14.1522 36.3689 14.1534C36.3528 14.1547 36.3366 14.155 36.3207 14.158C36.3051 14.1609 36.29 14.1663 36.2746 14.1708C36.2603 14.1749 36.2458 14.178 36.2319 14.1834C36.2175 14.1891 36.2041 14.1971 36.1903 14.2042C36.1761 14.2114 36.1616 14.2177 36.1481 14.2264C36.1361 14.2341 36.1253 14.244 36.1139 14.2528C36.1 14.2637 36.0857 14.2739 36.0728 14.2864C36.0712 14.288 36.0692 14.2891 36.0676 14.2907L34.5573 15.801C33.3722 15.0749 32.0912 14.5436 30.7388 14.217V12.0812C30.7388 12.079 30.7382 12.0769 30.7382 12.0747C30.7379 12.0557 30.735 12.0373 30.7325 12.0187C30.7308 12.0054 30.7302 11.9919 30.7274 11.9789C30.7239 11.9626 30.7179 11.9472 30.7127 11.9315C30.708 11.9173 30.7044 11.9026 30.6985 11.889C30.6925 11.8753 30.6844 11.8629 30.6772 11.8499C30.6695 11.8358 30.6626 11.8213 30.6535 11.8081C30.6448 11.7954 30.634 11.7843 30.6241 11.7724C30.6143 11.7608 30.6053 11.7484 30.5945 11.7377C30.583 11.7264 30.5697 11.717 30.557 11.7068C30.5456 11.6976 30.5349 11.6876 30.5226 11.6795C30.51 11.6711 30.4959 11.6649 30.4825 11.6577C30.4681 11.65 30.4543 11.6416 30.4391 11.6354C30.4266 11.6303 30.4129 11.6273 30.3998 11.6232C30.3822 11.6177 30.365 11.6117 30.3466 11.6082C30.3444 11.6078 30.3425 11.6068 30.3403 11.6065C28.5217 11.2869 26.6248 11.2869 24.8063 11.6065C24.8041 11.6068 24.8021 11.6078 24.7999 11.6082C24.7816 11.6117 24.7643 11.6177 24.7468 11.6232C24.7336 11.6273 24.72 11.6303 24.7074 11.6354C24.6922 11.6417 24.6784 11.6501 24.664 11.6577C24.6506 11.6649 24.6366 11.6711 24.624 11.6795C24.6117 11.6876 24.6009 11.6977 24.5894 11.7069C24.5768 11.7171 24.5636 11.7264 24.5521 11.7377C24.5412 11.7484 24.5323 11.7608 24.5225 11.7724C24.5125 11.7843 24.5018 11.7954 24.493 11.8081C24.4839 11.8213 24.4771 11.8358 24.4693 11.8499C24.4622 11.8629 24.454 11.8753 24.4481 11.889C24.4421 11.9027 24.4385 11.9174 24.4338 11.9317C24.4286 11.9473 24.4227 11.9626 24.4191 11.9789C24.4163 11.9919 24.4158 12.0055 24.414 12.0189C24.4116 12.0374 24.4086 12.0557 24.4084 12.0747C24.4084 12.0769 24.4078 12.079 24.4078 12.0812V14.217C23.0553 14.5436 21.7743 15.075 20.5892 15.801L19.079 14.2907C19.0774 14.2891 19.0754 14.2881 19.0738 14.2865C19.0606 14.2736 19.046 14.2632 19.0317 14.2521C19.0206 14.2436 19.0102 14.2339 18.9986 14.2265C18.9847 14.2175 18.9698 14.211 18.9551 14.2036C18.9417 14.1968 18.9287 14.1889 18.9148 14.1835C18.9006 14.1779 18.8858 14.1748 18.8713 14.1706C18.8561 14.1662 18.8413 14.1608 18.8258 14.158C18.8102 14.1551 18.7943 14.1548 18.7784 14.1534C18.7637 14.1522 18.7491 14.1498 18.7344 14.15C18.7177 14.1501 18.7013 14.1529 18.6846 14.1547C18.6705 14.1563 18.6563 14.1567 18.6423 14.1595C18.6273 14.1626 18.6129 14.1681 18.5982 14.1726C18.5827 14.1773 18.567 14.1811 18.552 14.1874C18.5398 14.1925 18.5285 14.1998 18.5166 14.206C18.4999 14.2147 18.483 14.2228 18.4672 14.2337C18.4654 14.2348 18.4635 14.2354 18.4618 14.2366C16.9341 15.3055 15.6175 16.6221 14.5487 18.1499C14.5475 18.1516 14.5468 18.1535 14.5457 18.1553C14.5348 18.1712 14.5265 18.1882 14.5178 18.2051C14.5117 18.2168 14.5045 18.228 14.4995 18.2399C14.4929 18.2555 14.4889 18.2718 14.4841 18.2879C14.4799 18.302 14.4745 18.3158 14.4716 18.3301C14.4686 18.3449 14.4681 18.3599 14.4665 18.3748C14.4648 18.3907 14.4621 18.4064 14.462 18.4222C14.4619 18.4375 14.4643 18.4526 14.4656 18.4678C14.467 18.4832 14.4672 18.4987 14.47 18.5139C14.4729 18.5293 14.4783 18.5442 14.4826 18.5593C14.4868 18.5739 14.49 18.5887 14.4955 18.6029C14.5009 18.6165 14.5086 18.6292 14.5153 18.6424C14.5228 18.6573 14.5295 18.6726 14.5387 18.6868C14.5458 18.6979 14.555 18.7078 14.5631 18.7184C14.5746 18.7333 14.5855 18.7484 14.5988 18.7621C14.6003 18.7636 14.6013 18.7654 14.6028 18.767L16.1131 20.2771C15.387 21.4622 14.8556 22.7433 14.529 24.0957H12.3932C12.3912 24.0957 12.3893 24.0963 12.3872 24.0963C12.3667 24.0965 12.347 24.0996 12.327 24.1024C12.3152 24.104 12.3031 24.1044 12.2916 24.1069C12.2734 24.1108 12.2562 24.1173 12.2387 24.1233C12.2264 24.1275 12.2136 24.1306 12.2017 24.1357C12.1861 24.1425 12.1719 24.1515 12.1572 24.1599C12.145 24.1668 12.1321 24.1727 12.1206 24.1806C12.1067 24.1902 12.0945 24.2018 12.0817 24.2127C12.0711 24.2217 12.0598 24.2299 12.05 24.2398C12.0383 24.2517 12.0286 24.2653 12.0181 24.2784C12.0092 24.2896 11.9995 24.2999 11.9916 24.3119C11.9832 24.3244 11.977 24.3384 11.9699 24.3519C11.9621 24.3663 11.9537 24.3802 11.9475 24.3954C11.9424 24.4079 11.9394 24.4214 11.9354 24.4344C11.9298 24.4521 11.9238 24.4694 11.9203 24.4879C11.9199 24.4901 11.9189 24.492 11.9185 24.4942C11.7588 25.4035 11.6777 26.3344 11.6777 27.2612C11.6777 28.188 11.7588 29.119 11.9185 30.0282C11.9189 30.0306 11.9199 30.0327 11.9203 30.035C11.9227 30.0474 11.9268 30.0589 11.9301 30.071C11.9348 30.0885 11.9395 30.1061 11.9461 30.1227C11.9507 30.1341 11.9564 30.1448 11.9618 30.1558C11.9697 30.1719 11.9777 30.1877 11.9873 30.2026C11.9937 30.2128 12.0008 30.2222 12.008 30.2317C12.0186 30.2459 12.0295 30.2595 12.0415 30.2724C12.0498 30.2813 12.0585 30.2897 12.0675 30.298C12.0801 30.3096 12.0932 30.3204 12.1069 30.3306C12.117 30.3381 12.1271 30.3454 12.1378 30.3521C12.1524 30.3612 12.1675 30.369 12.183 30.3766C12.194 30.382 12.2048 30.3876 12.2164 30.3922C12.2345 30.3994 12.2534 30.4047 12.2725 30.4096C12.2822 30.4122 12.2915 30.4156 12.3015 30.4175C12.3313 30.4233 12.3616 30.4268 12.3927 30.4268C12.3929 30.4268 12.3932 30.4267 12.3935 30.4267H14.529C14.8556 31.7792 15.387 33.0602 16.113 34.2453L14.6027 35.7555C14.6012 35.7571 14.6001 35.759 14.5986 35.7606C14.5857 35.7739 14.5752 35.7885 14.5641 35.8029C14.5555 35.8139 14.546 35.8243 14.5385 35.8359C14.5297 35.8496 14.5232 35.8644 14.5159 35.8789C14.509 35.8925 14.501 35.9057 14.4955 35.9198C14.4901 35.9335 14.4871 35.9479 14.4829 35.9621C14.4784 35.9776 14.4729 35.9929 14.47 36.0087C14.4672 36.0237 14.467 36.0389 14.4657 36.054C14.4643 36.0695 14.4618 36.0848 14.462 36.1003C14.4621 36.1161 14.4648 36.1317 14.4665 36.1474C14.4681 36.1625 14.4686 36.1776 14.4716 36.1924C14.4745 36.2066 14.4798 36.2203 14.484 36.2343C14.4889 36.2506 14.4929 36.2669 14.4995 36.2827C14.5044 36.2944 14.5115 36.3054 14.5174 36.3168C14.5263 36.3339 14.5347 36.3512 14.5458 36.3674C14.5469 36.3691 14.5475 36.371 14.5487 36.3727C15.6175 37.9004 16.9341 39.217 18.4618 40.2859C18.4638 40.2872 18.4659 40.2881 18.4679 40.2894C18.4753 40.2945 18.4832 40.2984 18.4909 40.303C18.5085 40.3136 18.5264 40.3233 18.5448 40.3314C18.5539 40.3353 18.5629 40.3388 18.5721 40.3422C18.5913 40.3493 18.6108 40.355 18.6305 40.3595C18.6384 40.3613 18.6461 40.3635 18.654 40.3649C18.6818 40.3698 18.7098 40.373 18.7377 40.373C18.7382 40.373 18.7386 40.3729 18.739 40.3729C18.7735 40.3728 18.8077 40.3682 18.8415 40.3608C18.8521 40.3584 18.8621 40.3546 18.8725 40.3516C18.8958 40.3448 18.9186 40.3368 18.9409 40.3264C18.9525 40.321 18.9636 40.3149 18.9749 40.3085C18.9948 40.2972 19.0137 40.2843 19.0322 40.27C19.0428 40.2617 19.0533 40.2538 19.0633 40.2446C19.0683 40.24 19.0741 40.2367 19.079 40.2318L20.5892 38.7215C21.7743 39.4476 23.0553 39.9789 24.4078 40.3055V42.4413C24.4078 42.4436 24.4084 42.4456 24.4084 42.4478C24.4086 42.4668 24.4116 42.4851 24.414 42.5037C24.4158 42.517 24.4163 42.5306 24.4191 42.5436C24.4227 42.5599 24.4286 42.5752 24.4338 42.5909C24.4385 42.6051 24.4421 42.6198 24.4481 42.6335C24.454 42.6472 24.4622 42.6596 24.4693 42.6727C24.4771 42.6867 24.4839 42.7013 24.493 42.7144C24.5018 42.7271 24.5125 42.7382 24.5225 42.7501C24.5323 42.7618 24.5412 42.7741 24.5521 42.7848C24.5636 42.7961 24.5768 42.8054 24.5894 42.8156C24.6009 42.8248 24.6117 42.8349 24.624 42.843C24.6366 42.8514 24.6506 42.8576 24.664 42.8648C24.6784 42.8724 24.6922 42.8809 24.7074 42.8871C24.72 42.8922 24.7336 42.8952 24.7468 42.8993C24.7643 42.9048 24.7816 42.9108 24.7999 42.9143C24.8021 42.9147 24.8041 42.9157 24.8063 42.9161C25.7155 43.0758 26.6465 43.1568 27.5733 43.1568C28.5001 43.1568 29.431 43.0758 30.3403 42.9161C30.3425 42.9157 30.3444 42.9147 30.3466 42.9143C30.365 42.9108 30.3822 42.9048 30.3998 42.8993C30.4129 42.8952 30.4266 42.8922 30.4391 42.8871C30.4543 42.8809 30.4681 42.8725 30.4825 42.8648C30.4959 42.8576 30.51 42.8514 30.5226 42.843C30.5349 42.8349 30.5456 42.8249 30.557 42.8157C30.5697 42.8055 30.583 42.7961 30.5945 42.7848C30.6053 42.7741 30.6143 42.7618 30.6241 42.7501C30.634 42.7382 30.6448 42.7271 30.6535 42.7144C30.6626 42.7013 30.6695 42.6867 30.6772 42.6727C30.6844 42.6596 30.6925 42.6472 30.6985 42.6335C30.7044 42.6199 30.708 42.6053 30.7127 42.591C30.7179 42.5753 30.7239 42.5599 30.7274 42.5436C30.7302 42.5307 30.7308 42.5171 30.7325 42.5038C30.735 42.4852 30.7379 42.4668 30.7382 42.4478C30.7382 42.4456 30.7388 42.4436 30.7388 42.4413V40.3055Z" stroke="#008DD2" stroke-width="0.2"/>
<path d="M11.8973 18.539C12.0645 18.4589 12.1709 18.2898 12.1709 18.1044V15.7133L14.2966 15.7134C14.5627 15.7134 14.7786 15.4977 14.7786 15.2315C14.7786 14.9654 14.5629 14.7495 14.2967 14.7495L11.7064 14.7493C11.6816 14.7484 11.6558 14.7495 11.6301 14.7527C11.3885 14.7824 11.207 14.9876 11.207 15.231V17.0989L6.86755 13.6122L11.207 10.1271V11.9933C11.207 12.0251 11.2102 12.0571 11.2164 12.0882C11.2615 12.3135 11.4593 12.4756 11.689 12.4756L21.2061 12.4763C21.4723 12.4763 21.6881 12.2605 21.6881 11.9944C21.6881 11.7282 21.4724 11.5124 21.2062 11.5124L12.1709 11.5118V9.12191C12.1709 8.93647 12.0646 8.7675 11.8973 8.68735C11.73 8.60713 11.5316 8.63006 11.3872 8.74611L5.79617 13.2364C5.68226 13.3279 5.61597 13.4661 5.61597 13.6121C5.61597 13.7582 5.6822 13.8964 5.79603 13.9879L11.3871 18.4801C11.4743 18.5502 11.5812 18.5864 11.689 18.5864C11.7598 18.5864 11.831 18.5708 11.8973 18.539Z" fill="#008DD2" stroke="#008DD2" stroke-width="0.2"/>
<path d="M48.6359 40.2129L43.0448 35.7206C42.9001 35.6044 42.7016 35.5816 42.5346 35.6617C42.3674 35.7419 42.2609 35.9109 42.2609 36.0964V38.4874L40.1352 38.4873C39.8691 38.4873 39.6532 38.7031 39.6532 38.9692C39.6532 39.2354 39.869 39.4512 40.1351 39.4512L42.7238 39.4514C42.7454 39.4522 42.7678 39.4516 42.7904 39.4494C43.037 39.425 43.2249 39.2176 43.2249 38.9698V37.1018L47.5644 40.5886L43.2249 44.0736V42.2075C43.2249 42.1757 43.2216 42.1437 43.2154 42.1126C43.1704 41.8873 42.9726 41.7252 42.7429 41.7252L33.2258 41.7245C32.9597 41.7245 32.7438 41.9403 32.7438 42.2065C32.7438 42.4726 32.9595 42.6884 33.2257 42.6884L42.2609 42.6891V45.0788C42.2609 45.2643 42.3673 45.4332 42.5345 45.5134C42.6008 45.5452 42.672 45.5608 42.7428 45.5608C42.8506 45.5608 42.9575 45.5247 43.0447 45.4546L48.6358 40.9644C48.7497 40.8729 48.816 40.7347 48.816 40.5887C48.816 40.4426 48.7497 40.3044 48.6359 40.2129Z" fill="#008DD2" stroke="#008DD2" stroke-width="0.2"/>
</svg>
