<svg width="54" height="54" viewBox="0 0 54 54" fill="none" xmlns="http://www.w3.org/2000/svg">
<path d="M44.9806 13.9827H9.38127C9.11089 13.9827 8.85159 14.0901 8.66041 14.2813C8.46922 14.4724 8.36182 14.7317 8.36182 15.0021V39.2141C8.36182 39.4845 8.46922 39.7438 8.66041 39.935C8.85159 40.1262 9.11089 40.2336 9.38127 40.2336H44.9806C45.251 40.2336 45.5103 40.1262 45.7015 39.935C45.8926 39.7438 46 39.4845 46 39.2141V15.0021C46 14.7317 45.8926 14.4724 45.7015 14.2813C45.5103 14.0901 45.251 13.9827 44.9806 13.9827ZM43.9611 38.1947H10.4007V16.0216H43.9611V38.1947Z" fill="#008DD2"/>
<path d="M15.9366 31.8995C16.0312 31.9943 16.1437 32.0695 16.2674 32.1208C16.3912 32.1721 16.5239 32.1985 16.6578 32.1985C16.7918 32.1985 16.9245 32.1721 17.0482 32.1208C17.172 32.0695 17.2844 31.9943 17.3791 31.8995L21.4569 27.8217C21.5517 27.727 21.6269 27.6146 21.6782 27.4908C21.7295 27.3671 21.7559 27.2344 21.7559 27.1004C21.7559 26.9665 21.7295 26.8338 21.6782 26.71C21.6269 26.5863 21.5517 26.4738 21.4569 26.3792L17.3791 22.3014C17.2844 22.2066 17.1719 22.1315 17.0482 22.0802C16.9244 22.029 16.7918 22.0026 16.6578 22.0026C16.5239 22.0026 16.3912 22.029 16.2675 22.0802C16.1437 22.1315 16.0313 22.2066 15.9366 22.3014C15.8418 22.3961 15.7667 22.5085 15.7154 22.6323C15.6642 22.756 15.6378 22.8887 15.6378 23.0226C15.6378 23.1566 15.6642 23.2892 15.7154 23.413C15.7667 23.5367 15.8418 23.6492 15.9366 23.7439L19.2804 27.1081L15.9315 30.457C15.837 30.552 15.7622 30.6647 15.7113 30.7886C15.6605 30.9126 15.6345 31.0453 15.635 31.1793C15.6355 31.3133 15.6624 31.4458 15.7141 31.5694C15.7658 31.693 15.8414 31.8052 15.9366 31.8995Z" fill="#008DD2"/>
<path d="M23.2973 32.2053H31.2592C31.5296 32.2053 31.7889 32.0979 31.9801 31.9067C32.1713 31.7155 32.2787 31.4562 32.2787 31.1859C32.2787 30.9155 32.1713 30.6562 31.9801 30.465C31.7889 30.2738 31.5296 30.1664 31.2592 30.1664H23.2973C23.0269 30.1664 22.7676 30.2738 22.5764 30.465C22.3852 30.6562 22.2778 30.9155 22.2778 31.1859C22.2778 31.4562 22.3852 31.7155 22.5764 31.9067C22.7676 32.0979 23.0269 32.2053 23.2973 32.2053Z" fill="#008DD2"/>
</svg>
