<svg width="54" height="54" viewBox="0 0 54 54" fill="none" xmlns="http://www.w3.org/2000/svg">
<path d="M27.0002 42.3461C30.0354 42.3461 33.0025 41.4461 35.5261 39.7598C38.0498 38.0736 40.0168 35.6768 41.1783 32.8727C42.3398 30.0685 42.6437 26.9829 42.0516 24.0061C41.4594 21.0292 39.9978 18.2948 37.8516 16.1485C35.7054 14.0023 32.971 12.5408 29.9941 11.9486C27.0173 11.3565 23.9317 11.6604 21.1275 12.8219C18.3234 13.9834 15.9266 15.9504 14.2404 18.4741C12.5541 20.9977 11.6541 23.9648 11.6541 26.9999C11.6541 31.07 13.2709 34.9734 16.1488 37.8513C19.0268 40.7293 22.9302 42.3461 27.0002 42.3461ZM27.0002 13.1153C29.7464 13.1153 32.4308 13.9296 34.7141 15.4553C36.9975 16.9809 38.7771 19.1494 39.828 21.6865C40.8789 24.2236 41.1538 27.0153 40.6181 29.7087C40.0824 32.4021 38.76 34.8761 36.8182 36.8179C34.8764 38.7597 32.4024 40.0821 29.709 40.6178C27.0156 41.1535 24.2239 40.8786 21.6868 39.8277C19.1497 38.7768 16.9812 36.9972 15.4556 34.7138C13.9299 32.4305 13.1156 29.7461 13.1156 26.9999C13.1156 23.3175 14.5784 19.7859 17.1823 17.182C19.7862 14.5781 23.3178 13.1153 27.0002 13.1153Z" fill="#008DD2"/>
<path d="M27 46.0001C30.7579 46.0001 34.4314 44.8858 37.5559 42.798C40.6804 40.7103 43.1157 37.7429 44.5538 34.271C45.9919 30.7992 46.3681 26.979 45.635 23.2933C44.9019 19.6077 43.0923 16.2222 40.4351 13.565C37.7779 10.9078 34.3924 9.09821 30.7068 8.36509C27.0211 7.63197 23.2008 8.00823 19.729 9.4463C16.2572 10.8844 13.2898 13.3197 11.2021 16.4442C9.11433 19.5687 8 23.2422 8 27C8 32.0392 10.0018 36.8719 13.565 40.4351C17.1282 43.9983 21.9609 46.0001 27 46.0001ZM27 9.46155C30.4688 9.46155 33.8597 10.4902 36.7439 12.4173C39.6281 14.3445 41.8761 17.0836 43.2035 20.2884C44.5309 23.4931 44.8783 27.0195 44.2015 30.4216C43.5248 33.8238 41.8544 36.9488 39.4016 39.4016C36.9488 41.8544 33.8238 43.5248 30.4216 44.2015C27.0195 44.8783 23.4931 44.531 20.2883 43.2035C17.0836 41.8761 14.3445 39.6281 12.4173 36.7439C10.4902 33.8597 9.46154 30.4688 9.46154 27C9.46154 22.3486 11.3093 17.8876 14.5984 14.5985C17.8876 11.3094 22.3485 9.46155 27 9.46155Z" fill="#008DD2"/>
<path d="M18.728 35.9958C18.8306 35.9947 18.9322 35.9749 19.0276 35.9373L29.7334 31.2238C30.3824 30.9309 30.902 30.4112 31.195 29.7623L35.9085 19.0565C35.9727 18.9212 35.9939 18.7695 35.969 18.6218C35.9442 18.4741 35.8746 18.3376 35.7696 18.2307C35.6656 18.1264 35.5325 18.0559 35.3878 18.0285C35.243 18.0011 35.0934 18.0181 34.9584 18.0773L24.2819 22.7688C23.6046 23.0638 23.0642 23.6043 22.7692 24.2815L18.063 34.9727C18.0089 35.1072 17.9959 35.2547 18.0259 35.3965C18.0558 35.5384 18.1272 35.6681 18.2311 35.7692C18.3612 35.9061 18.5393 35.9873 18.728 35.9958ZM24.0773 24.8734C24.2303 24.5153 24.5157 24.23 24.8738 24.0769L33.8404 20.1307L29.9234 29.1411C29.777 29.4656 29.5171 29.7254 29.1927 29.8719L20.1603 33.84L24.0773 24.8734Z" fill="#008DD2"/>
<path d="M28.5495 25.4507C28.1313 25.0539 27.5768 24.8326 27.0003 24.8326C26.4238 24.8326 25.8693 25.0539 25.4511 25.4507C25.2357 25.6514 25.0629 25.8934 24.9431 26.1623C24.8233 26.4313 24.7588 26.7216 24.7536 27.0159C24.7484 27.3103 24.8026 27.6027 24.9129 27.8757C25.0231 28.1486 25.1872 28.3966 25.3954 28.6048C25.6036 28.813 25.8516 28.9771 26.1245 29.0873C26.3975 29.1976 26.6899 29.2518 26.9843 29.2466C27.2786 29.2414 27.5689 29.1769 27.8379 29.0571C28.1068 28.9373 28.3488 28.7645 28.5495 28.5491C28.9601 28.1381 29.1907 27.5809 29.1907 26.9999C29.1907 26.4189 28.9601 25.8617 28.5495 25.4507ZM27.5191 27.5188C27.4512 27.5872 27.3704 27.6416 27.2813 27.6787C27.1923 27.7158 27.0968 27.7349 27.0003 27.7349C26.9038 27.7349 26.8083 27.7158 26.7193 27.6787C26.6302 27.6416 26.5494 27.5872 26.4814 27.5188C26.3798 27.4163 26.3108 27.2861 26.2831 27.1445C26.2554 27.0029 26.2702 26.8563 26.3257 26.7231C26.3812 26.5899 26.4749 26.4761 26.5949 26.3961C26.715 26.3161 26.856 26.2734 27.0003 26.2734C27.1446 26.2734 27.2856 26.3161 27.4057 26.3961C27.5257 26.4761 27.6194 26.5899 27.6749 26.7231C27.7303 26.8563 27.7452 27.0029 27.7175 27.1445C27.6897 27.2861 27.6207 27.4163 27.5191 27.5188Z" fill="#008DD2"/>
</svg>
