<svg width="54" height="54" viewBox="0 0 54 54" fill="none" xmlns="http://www.w3.org/2000/svg">
<path d="M41.7917 29.9922H38.6604C38.2878 29.9922 37.9854 29.6905 37.9854 29.3172V25.2369C37.9854 24.8636 38.2878 24.5619 38.6604 24.5619C39.033 24.5619 39.3354 24.8636 39.3354 25.2369V28.6422H41.7917C42.1643 28.6422 42.4667 28.944 42.4667 29.3172C42.4667 29.6905 42.1643 29.9922 41.7917 29.9922Z" fill="#008DD2"/>
<path d="M46.575 43.2004H7.425C7.0524 43.2004 6.75 42.8987 6.75 42.5254C6.75 42.1521 7.0524 41.8504 7.425 41.8504H46.575C46.9476 41.8504 47.25 42.1521 47.25 42.5254C47.25 42.8987 46.9476 43.2004 46.575 43.2004Z" fill="#008DD2"/>
<path d="M47.0529 27.0439L41.3883 21.3712C41.2614 21.2443 41.09 21.1734 40.9104 21.1734H36.2111V17.1031C36.2111 16.7299 35.9087 16.4281 35.5361 16.4281H30.4324C28.8913 13.1119 25.5163 10.8 21.6 10.8C17.6837 10.8 14.3087 13.1119 12.7676 16.4281H7.425C7.0524 16.4281 6.75 16.7299 6.75 17.1031V35.7392C6.75 36.1125 7.0524 36.4142 7.425 36.4142H10.3045C10.6265 38.2509 12.2344 39.6535 14.1676 39.6535C16.1008 39.6535 17.708 38.2516 18.0306 36.4142H31.6737C32.0044 38.3015 33.719 39.6967 35.6312 39.6515C37.5037 39.607 39.1277 38.1868 39.4126 36.3325H46.575C46.9476 36.3325 47.25 36.0308 47.25 35.6575V27.5211C47.25 27.3429 47.1791 27.1708 47.0529 27.0439ZM21.6 12.15C26.2197 12.15 29.9781 15.8726 29.9781 20.4478C29.9781 25.0229 26.2197 28.7455 21.6 28.7455C16.9803 28.7455 13.2219 25.0229 13.2219 20.4478C13.2219 15.8726 16.9803 12.15 21.6 12.15ZM14.1669 38.3035C12.7467 38.3035 11.5918 37.1533 11.5918 35.7392C11.5918 34.3244 12.7467 33.1742 14.1669 33.1742C15.5871 33.1742 16.742 34.3244 16.742 35.7392C16.7427 37.1533 15.5871 38.3035 14.1669 38.3035ZM31.673 35.0642H18.0299C17.708 33.2269 16.1001 31.8242 14.1669 31.8242C12.2337 31.8242 10.6258 33.2262 10.3039 35.0642H8.1V17.7781H12.2587C10.4787 23.893 15.2793 30.0955 21.6 30.0955C27.9207 30.0955 32.7213 23.8936 30.9413 17.7781H34.861V21.8484V31.8863C33.2383 32.1691 31.9572 33.4462 31.673 35.0642ZM35.5361 38.3035C34.1159 38.3035 32.9609 37.1533 32.9609 35.7392C32.9609 34.3244 34.1159 33.1742 35.5361 33.1742C36.9563 33.1742 38.1112 34.3244 38.1112 35.7392C38.1112 37.1533 36.9563 38.3035 35.5361 38.3035ZM45.9 34.9825H39.3862C39.0744 33.4024 37.8068 32.1637 36.2111 31.8863V22.5234H40.631L45.9 27.8012V34.9825Z" fill="#008DD2"/>
<path d="M24.3988 23.0749C24.2659 23.0749 24.1309 23.0351 24.0134 22.9534L21.2149 21.0013C21.0333 20.8751 20.9253 20.6685 20.9253 20.4478V15.2253C20.9253 14.8521 21.2277 14.5503 21.6003 14.5503C21.9729 14.5503 22.2753 14.8521 22.2753 15.2253V20.0961L24.7849 21.8464C25.3135 22.215 25.0408 23.0749 24.3988 23.0749Z" fill="#008DD2"/>
</svg>
