<svg width="80" height="80" viewBox="0 0 80 80" fill="none" xmlns="http://www.w3.org/2000/svg">
<path fill-rule="evenodd" clip-rule="evenodd" d="M51.6295 18.085C51.94 17.8143 52.1816 17.4711 52.3338 17.0846H46.3881C46.5457 17.4682 46.7912 17.8076 47.1041 18.0746C47.7459 18.614 48.5552 18.9031 49.387 18.89C50.2052 18.9052 51.0014 18.6194 51.6295 18.085ZM59.5327 18.085C59.8426 17.8155 60.0838 17.4734 60.2356 17.0881H54.2927C54.4507 17.47 54.6957 17.8081 55.0073 18.0746C55.6493 18.614 56.4588 18.9031 57.2909 18.89C58.1089 18.9052 58.9048 18.6195 59.5327 18.085ZM67.4804 18.0746C67.7918 17.8081 68.0365 17.47 68.1943 17.0881H62.1993C62.3573 17.47 62.6023 17.8081 62.9139 18.0746C63.5621 18.6024 64.3673 18.89 65.1971 18.89C66.027 18.89 66.8321 18.6024 67.4804 18.0746ZM52.5805 15.4217L52.9991 11.6741H47.6139L46.5074 15.4189L52.5805 15.4217ZM61.5765 11.6741L61.954 15.4182H68.0758L66.9672 11.6713L61.5765 11.6741ZM60.3083 15.4182L59.9308 11.6741H54.649L54.2303 15.4182H60.3083ZM55.8281 32.1111V23.8634H52.0529V32.1111H55.8281ZM50.412 32.1111H48.3723C48.3644 32.112 48.3563 32.112 48.3483 32.1111V20.4608C48.6906 20.5284 49.0384 20.5623 49.387 20.562C50.5989 20.5762 51.7752 20.1444 52.6997 19.3459C52.9277 19.1446 53.1344 18.9195 53.3163 18.6742C53.5018 18.9182 53.7114 19.1421 53.9419 19.3424C54.8804 20.1408 56.067 20.5731 57.2895 20.562C58.5014 20.576 59.6776 20.1442 60.6022 19.3459C60.83 19.1444 61.0367 18.9193 61.2188 18.6742C61.4042 18.9181 61.6136 19.1419 61.8437 19.3424C62.7822 20.1407 63.9688 20.573 65.1913 20.562C65.7404 20.5628 66.2864 20.4781 66.8103 20.3107V32.109C66.8021 32.1099 66.7939 32.1099 66.7857 32.109H57.4677V23.0271C57.4677 22.8049 57.381 22.5918 57.2268 22.4347C57.0727 22.2776 56.8635 22.1893 56.6455 22.1893H51.2328C51.0148 22.1893 50.8056 22.2776 50.6515 22.4347C50.4973 22.5918 50.4106 22.8049 50.4106 23.0271V32.1111H50.412ZM63.6429 23.8634H60.7379V26.0151H63.6429V23.8634ZM59.9171 22.1914C59.699 22.1914 59.4899 22.2797 59.3357 22.4368C59.1815 22.5939 59.0949 22.807 59.0949 23.0292V26.8528C59.0949 26.9628 59.1161 27.0718 59.1575 27.1734C59.1988 27.2751 59.2593 27.3674 59.3357 27.4452C59.412 27.523 59.5027 27.5847 59.6024 27.6268C59.7022 27.6689 59.8091 27.6906 59.9171 27.6906H64.463C64.6811 27.6906 64.8902 27.6023 65.0444 27.4452C65.1986 27.2881 65.2852 27.075 65.2852 26.8528V23.0271C65.2852 22.8049 65.1986 22.5918 65.0444 22.4347C64.8902 22.2776 64.6811 22.1893 64.463 22.1893L59.9171 22.1914ZM31.3649 51.4549C31.6245 52.3394 31.9333 53.2081 32.2899 54.0568C33.691 57.3618 35.5484 59.4059 37.5299 59.4059C39.5106 59.4059 41.3667 57.3618 42.7692 54.0568C43.1258 53.2081 43.4346 52.3394 43.6941 51.4549C41.7627 51.2657 39.6901 51.1631 37.5278 51.1631C35.3655 51.1631 33.2943 51.2657 31.3615 51.4549H31.3649ZM33.3395 58.9249C29.8913 58.1223 26.736 56.343 24.2373 53.7922C23.9674 53.5172 23.7057 53.234 23.4522 52.9426C25.2828 52.3913 27.1527 51.9859 29.045 51.73C29.2643 51.6983 29.4858 51.6683 29.7096 51.6399C30.0048 52.6854 30.3634 53.7113 30.7832 54.7117C31.3996 56.2525 32.264 57.6776 33.3409 58.9284L33.3395 58.9249ZM45.3495 51.6434C45.5733 51.6718 45.7948 51.7018 46.0141 51.7334C47.9064 51.9893 49.7763 52.3947 51.6069 52.9461C51.3534 53.2374 51.0919 53.5207 50.8224 53.7957C48.3233 56.3462 45.1678 58.1255 41.7196 58.9284C42.7955 57.679 43.6595 56.2555 44.2758 54.7165C44.696 53.7164 45.0546 52.6904 45.3495 51.6448V51.6434ZM37.5299 19.4247C40.7165 19.4236 43.8591 20.1819 46.7067 21.6392V19.8283C46.4711 19.6849 46.2478 19.5215 46.0394 19.3396C45.5906 18.9635 45.2279 18.492 44.9767 17.9582C44.7254 17.4243 44.5917 16.841 44.5848 16.249C44.5849 16.1511 44.6019 16.054 44.6349 15.962L46.2217 10.5969C46.2724 10.4246 46.3762 10.2736 46.5177 10.1661C46.6593 10.0586 46.831 10.0004 47.0075 10H67.5763C67.7605 10.0004 67.9392 10.0637 68.0838 10.18C68.2284 10.2962 68.3305 10.4585 68.3738 10.6409L69.9497 15.9655C69.9827 16.0577 69.9997 16.155 69.9997 16.2531C69.993 16.8452 69.8593 17.4286 69.6081 17.9625C69.3568 18.4964 68.994 18.9678 68.5451 19.3438C68.5163 19.3689 68.4869 19.3933 68.4574 19.4178V32.1377C68.4567 32.359 68.4113 32.5778 68.324 32.7804C68.2366 32.9831 68.1092 33.1652 67.9497 33.3154C67.6358 33.6149 67.2218 33.7814 66.7918 33.7811H56.9613C57.2332 34.6294 57.4508 35.4948 57.6129 36.3718C58.1728 39.382 58.074 42.481 57.3236 45.4478C56.5732 48.4146 55.1897 51.1763 53.2717 53.5358C51.3537 55.8953 48.9485 57.7946 46.2275 59.0982C43.5064 60.4019 40.5367 61.0779 37.5299 61.0779C32.109 61.0785 26.91 58.8849 23.0764 54.9797C19.2428 51.0744 17.0888 45.7773 17.0882 40.2538C17.0875 34.7302 19.2403 29.4326 23.073 25.5264C26.9057 21.6202 32.1042 19.4254 37.5251 19.4247H37.5299ZM45.3495 28.8586C45.8117 28.7985 46.2641 28.7336 46.7067 28.6638V23.5283C45.3812 22.7705 43.9699 22.1804 42.504 21.7711C42.2437 21.6985 41.9808 21.6315 41.7154 21.5701C42.7934 22.8203 43.6588 24.2453 44.2758 25.7861C44.6958 26.7864 45.0544 27.813 45.3495 28.8586ZM31.3649 29.0477C33.2964 29.2369 35.3689 29.3396 37.5312 29.3396C39.3126 29.3396 41.0296 29.2698 42.6561 29.1392C43.0069 29.1113 43.3534 29.0803 43.6955 29.0464C43.4359 28.1623 43.127 27.2941 42.7706 26.4458C41.3701 23.1423 39.5134 21.0982 37.5333 21.0968H37.5271C35.5477 21.0968 33.6903 23.143 32.2912 26.4458C31.9347 27.2945 31.6258 28.1632 31.3663 29.0477H31.3649ZM23.4522 27.5565C25.2827 28.1079 27.1527 28.5131 29.045 28.7685C29.2643 28.7999 29.4856 28.8306 29.7096 28.8593C30.0048 27.8137 30.3634 26.7878 30.7832 25.7875C31.3999 24.2479 32.2643 22.824 33.3409 21.5743C29.8927 22.3768 26.7374 24.1561 24.2387 26.7069C23.9688 26.982 23.707 27.2652 23.4535 27.5565H23.4522ZM28.2407 41.0877H18.7473C18.9034 44.8632 20.1578 48.5061 22.3511 51.5533C24.4591 50.8647 26.6238 50.3719 28.8189 50.081C28.9738 50.0586 29.1307 50.037 29.2876 50.016C28.6286 47.0862 28.277 44.0933 28.2386 41.0877H28.2407ZM45.1768 41.0877H29.8823C29.9194 44.0292 30.2704 46.9578 30.9292 49.822C35.3187 49.3798 39.7404 49.3798 44.1299 49.822C44.7886 46.9578 45.1397 44.0292 45.1768 41.0877ZM56.3104 41.0877H46.8184C46.78 44.0933 46.4284 47.0862 45.7695 50.016C45.927 50.037 46.0833 50.0586 46.2381 50.081C48.4339 50.3718 50.5993 50.8646 52.7079 51.5533C54.9004 48.5058 56.1543 44.863 56.3104 41.0877ZM46.8184 39.4122C46.7798 36.4078 46.4281 33.416 45.7695 30.4873C46.0869 30.4445 46.3993 30.3998 46.7067 30.3532V32.1377C46.7074 32.359 46.7528 32.5778 46.8402 32.7804C46.9275 32.9831 47.0549 33.1652 47.2144 33.3154C47.5284 33.6148 47.9423 33.7812 48.3723 33.7811H55.2306C55.8683 35.5925 56.2324 37.4921 56.3104 39.415L46.8184 39.4122ZM29.8823 39.4122H45.1768C45.1397 36.4711 44.7887 33.5429 44.1299 30.6793C43.6873 30.7258 43.2383 30.767 42.7829 30.8028C41.1029 30.9376 39.3414 31.0123 37.5299 31.0123C35.3256 31.0151 33.1225 30.9044 30.9292 30.6807C30.2704 33.5448 29.9194 36.4735 29.8823 39.415V39.4122ZM18.7493 39.4122H28.2407C28.2791 36.4066 28.6307 33.4137 29.2896 30.4838C29.132 30.4629 28.9758 30.4412 28.821 30.4189C26.6252 30.128 24.4597 29.6352 22.3511 28.9465C20.1573 31.9945 18.9029 35.6385 18.7473 39.415L18.7493 39.4122ZM63.8731 40.9802C63.7957 41.0561 63.7043 41.1157 63.6043 41.1556C63.5042 41.1956 63.3975 41.2151 63.29 41.213C63.1826 41.2108 63.0767 41.1872 62.9782 41.1434C62.8797 41.0995 62.7907 41.0364 62.7162 40.9575C62.6417 40.8786 62.5832 40.7855 62.544 40.6836C62.5048 40.5816 62.4857 40.4728 62.4878 40.3634C62.4898 40.2539 62.513 40.1459 62.5561 40.0456C62.5991 39.9453 62.6611 39.8546 62.7385 39.7787L65.2132 37.3583C65.2922 37.2718 65.3882 37.2033 65.4949 37.1573C65.6017 37.1113 65.7168 37.0888 65.8326 37.0914C65.9485 37.0939 66.0625 37.1213 66.1673 37.1719C66.272 37.2224 66.3651 37.295 66.4403 37.3848L68.813 39.9043C68.9635 40.0637 69.0456 40.2774 69.0415 40.4984C69.0373 40.7195 68.9471 40.9298 68.7907 41.0831C68.7133 41.159 68.622 41.2187 68.5219 41.2586C68.4219 41.2986 68.3151 41.318 68.2077 41.3159C67.9907 41.3117 67.7843 41.2198 67.6339 41.0604L66.7254 40.0963C66.7254 40.148 66.7254 40.199 66.7254 40.2485C66.7258 46.1325 65.0138 51.8845 61.8059 56.777C58.598 61.6696 54.0383 65.483 48.7034 67.7349C43.3684 69.9869 37.498 70.5763 31.8343 69.4286C26.1707 68.2809 20.9682 65.4476 16.8849 61.2871C12.8015 57.1266 10.0207 51.8257 8.89408 46.0548C7.76745 40.2839 8.34561 34.3021 10.5554 28.866C12.7653 23.4299 16.5075 18.7836 21.309 15.5147C26.1104 12.2458 31.7553 10.5011 37.5299 10.5013C37.7479 10.5013 37.9571 10.5895 38.1112 10.7466C38.2654 10.9037 38.3521 11.1168 38.3521 11.339C38.3521 11.5612 38.2654 11.7743 38.1112 11.9314C37.9571 12.0885 37.7479 12.1768 37.5299 12.1768C32.0798 12.1768 26.7522 13.8235 22.2207 16.9088C17.6892 19.9941 14.1574 24.3794 12.0719 29.51C9.98638 34.6406 9.44085 40.2862 10.5043 45.7328C11.5677 51.1793 14.1924 56.1822 18.0463 60.1088C21.9003 64.0354 26.8104 66.7092 32.1558 67.7923C37.5012 68.8754 43.0417 68.3189 48.0767 66.1934C53.1117 64.0679 57.4151 60.4687 60.4426 55.851C63.47 51.2334 65.0857 45.8046 65.0851 40.2513C65.0851 40.0949 65.0851 39.9448 65.0851 39.801L63.8731 40.9802Z" fill="#008DD2" stroke="#008DD2" stroke-width="0.333333"/>
</svg>
