<svg width="80" height="80" viewBox="0 0 80 80" fill="none" xmlns="http://www.w3.org/2000/svg">
<path d="M37.329 66.6669C31.7667 66.6663 26.3192 65.0841 21.6219 62.105C16.9246 59.1259 13.1711 54.8726 10.7994 49.8413C8.42757 44.81 7.53521 39.208 8.22637 33.6887C8.91753 28.1695 11.1637 22.9605 14.7029 18.6694C18.2421 14.3783 22.9285 11.1819 28.2153 9.45305C33.5022 7.72423 39.1716 7.53423 44.5624 8.90522C49.9531 10.2762 54.8429 13.1517 58.6615 17.1962C62.48 21.2408 65.0699 26.2877 66.129 31.7482L63.5117 32.2522C62.4923 27.0278 59.9314 22.2284 56.1591 18.4727C52.3869 14.7171 47.5762 12.1774 42.3473 11.181C37.1184 10.1845 31.7108 10.7771 26.8218 12.8823C21.9327 14.9875 17.7863 18.5088 14.9169 22.9922C12.0475 27.4757 10.5868 32.7158 10.723 38.0371C10.8592 43.3583 12.5861 48.5169 15.681 52.8477C18.776 57.1785 23.0972 60.483 28.0875 62.3353C33.0778 64.1877 38.5086 64.5028 43.6797 63.2402L44.3117 65.8309C42.0259 66.3874 39.6816 66.6681 37.329 66.6669Z" fill="#008DD2"/>
<path d="M55.9941 72C55.6444 71.9985 55.3092 71.8597 55.0608 71.6133C54.4395 71.0027 39.9941 56.5573 39.9941 48C39.9941 43.7565 41.6799 39.6869 44.6804 36.6863C47.681 33.6857 51.7507 32 55.9941 32C60.2376 32 64.3073 33.6857 67.3079 36.6863C70.3084 39.6869 71.9941 43.7565 71.9941 48C71.9941 56.5573 57.5488 71.0027 56.9275 71.6133C56.6791 71.8597 56.3439 71.9985 55.9941 72ZM55.9941 34.6667C52.4591 34.6705 49.07 36.0766 46.5703 38.5762C44.0707 41.0758 42.6647 44.465 42.6608 48C42.6608 53.744 51.5475 64.1507 55.9941 68.7653C60.4408 64.1507 69.3275 53.744 69.3275 48C69.3236 44.465 67.9176 41.0758 65.4179 38.5762C62.9183 36.0766 59.5292 34.6705 55.9941 34.6667Z" fill="#008DD2"/>
<path d="M55.9961 56.0002C54.4138 56.0002 52.8671 55.5311 51.5515 54.652C50.2359 53.773 49.2106 52.5235 48.6051 51.0617C47.9996 49.5999 47.8411 47.9914 48.1498 46.4395C48.4585 44.8877 49.2204 43.4622 50.3392 42.3434C51.4581 41.2246 52.8835 40.4626 54.4354 40.154C55.9872 39.8453 57.5958 40.0037 59.0576 40.6092C60.5194 41.2147 61.7688 42.2401 62.6479 43.5557C63.5269 44.8713 63.9961 46.418 63.9961 48.0002C63.994 50.1213 63.1504 52.1549 61.6506 53.6548C60.1508 55.1546 58.1172 55.9981 55.9961 56.0002ZM55.9961 42.6669C54.9413 42.6669 53.9101 42.9797 53.0331 43.5657C52.156 44.1518 51.4724 44.9847 51.0687 45.9593C50.6651 46.9338 50.5595 48.0062 50.7652 49.0407C50.971 50.0753 51.479 51.0256 52.2249 51.7715C52.9707 52.5174 53.9211 53.0253 54.9556 53.2311C55.9902 53.4369 57.0625 53.3313 58.0371 52.9276C59.0116 52.5239 59.8446 51.8404 60.4306 50.9633C61.0166 50.0862 61.3294 49.0551 61.3294 48.0002C61.3294 46.5858 60.7675 45.2292 59.7673 44.229C58.7671 43.2288 57.4106 42.6669 55.9961 42.6669Z" fill="#008DD2"/>
<path d="M24.6624 38.6671H9.3291V36.0004H24.6624C25.1929 36.0004 25.7016 35.7897 26.0766 35.4146C26.4517 35.0395 26.6624 34.5308 26.6624 34.0004C26.6624 32.7627 27.1541 31.5757 28.0293 30.7006C28.9044 29.8254 30.0914 29.3337 31.3291 29.3337H38.6624V32.0004H31.3291C30.7987 32.0004 30.29 32.2111 29.9149 32.5862C29.5398 32.9613 29.3291 33.47 29.3291 34.0004C29.3291 35.2381 28.8374 36.4251 27.9623 37.3002C27.0871 38.1754 25.9001 38.6671 24.6624 38.6671Z" fill="#008DD2"/>
<path d="M43.3281 32.0002H41.3281V29.3336H43.3281C43.8586 29.3336 44.3673 29.1229 44.7423 28.7478C45.1174 28.3727 45.3281 27.864 45.3281 27.3336C45.3281 26.8031 45.1174 26.2944 44.7423 25.9194C44.3673 25.5443 43.8586 25.3336 43.3281 25.3336H37.9948C36.7571 25.3336 35.5701 24.8419 34.695 23.9667C33.8198 23.0916 33.3281 21.9046 33.3281 20.6669C33.3281 20.1365 33.1174 19.6278 32.7423 19.2527C32.3673 18.8776 31.8586 18.6669 31.3281 18.6669H17.3281V16.0002H31.3281C32.5658 16.0002 33.7528 16.4919 34.628 17.3671C35.5031 18.2422 35.9948 19.4292 35.9948 20.6669C35.9948 21.1973 36.2055 21.7061 36.5806 22.0811C36.9557 22.4562 37.4644 22.6669 37.9948 22.6669H43.3281C44.5658 22.6669 45.7528 23.1586 46.628 24.0337C47.5031 24.9089 47.9948 26.0959 47.9948 27.3336C47.9948 28.5713 47.5031 29.7582 46.628 30.6334C45.7528 31.5086 44.5658 32.0002 43.3281 32.0002Z" fill="#008DD2"/>
<path d="M27.9945 64.0002H25.3278V59.3336C25.3278 58.0959 25.8195 56.9089 26.6946 56.0337C27.5698 55.1586 28.7568 54.6669 29.9945 54.6669C30.5249 54.6669 31.0336 54.4562 31.4087 54.0811C31.7838 53.7061 31.9945 53.1973 31.9945 52.6669C31.9945 52.1365 31.7838 51.6278 31.4087 51.2527C31.0336 50.8776 30.5249 50.6669 29.9945 50.6669H18.6611V48.0002H29.9945C31.2321 48.0002 32.4191 48.4919 33.2943 49.3671C34.1695 50.2422 34.6611 51.4292 34.6611 52.6669C34.6611 53.9046 34.1695 55.0916 33.2943 55.9667C32.4191 56.8419 31.2321 57.3336 29.9945 57.3336C29.464 57.3336 28.9553 57.5443 28.5803 57.9194C28.2052 58.2944 27.9945 58.8031 27.9945 59.3336V64.0002Z" fill="#008DD2"/>
<path d="M15.9951 48.0002H11.9951V50.6669H15.9951V48.0002Z" fill="#008DD2"/>
</svg>
