<svg width="55" height="55" viewBox="0 0 55 55" fill="none" xmlns="http://www.w3.org/2000/svg">
<path d="M17.0681 35.383C17.2063 35.2067 17.3585 35.0418 17.5232 34.8898C17.6747 34.7485 17.7639 34.5527 17.7711 34.3456C17.7784 34.1385 17.703 33.937 17.5617 33.7854C17.4203 33.6339 17.2246 33.5447 17.0175 33.5375C16.8104 33.5302 16.6089 33.6056 16.4573 33.7469C16.2321 33.9558 16.0238 34.1822 15.8344 34.424C15.7072 34.5876 15.6502 34.795 15.676 35.0006C15.7017 35.2063 15.8081 35.3932 15.9717 35.5204C16.1353 35.6476 16.3427 35.7045 16.5483 35.6788C16.7539 35.653 16.9409 35.5466 17.0681 35.383Z" fill="#008DD2"/>
<path d="M19.6362 39.9741C19.5428 39.9315 19.4419 39.9078 19.3394 39.9043C19.2368 39.9007 19.1346 39.9174 19.0385 39.9534C18.9424 39.9894 18.8544 40.044 18.7793 40.114C18.7043 40.184 18.6439 40.2681 18.6014 40.3615C18.5589 40.4549 18.5352 40.5558 18.5317 40.6583C18.5282 40.7609 18.5449 40.8631 18.5809 40.9592C18.617 41.0553 18.6716 41.1433 18.7416 41.2183C18.8117 41.2933 18.8958 41.3537 18.9892 41.3962C19.2394 41.5098 19.4995 41.6184 19.7693 41.722C19.8651 41.7586 19.9672 41.776 20.0698 41.7731C20.1724 41.7703 20.2733 41.7473 20.367 41.7054C20.4607 41.6635 20.5451 41.6036 20.6157 41.5291C20.6862 41.4546 20.7413 41.3669 20.7779 41.2711C20.8145 41.1752 20.8319 41.0731 20.8291 40.9706C20.8262 40.868 20.8032 40.767 20.7614 40.6734C20.7195 40.5797 20.6596 40.4952 20.5851 40.4247C20.5105 40.3542 20.4229 40.2991 20.327 40.2624C20.0882 40.1709 19.8579 40.0748 19.6362 39.9741Z" fill="#008DD2"/>
<path d="M15.766 35.9671C15.5569 35.9712 15.3577 36.0573 15.2115 36.2068C15.0653 36.3564 14.9837 36.5575 14.9844 36.7666C14.9848 37.1097 15.0365 37.4509 15.1377 37.7787C15.1869 37.9384 15.2859 38.0781 15.4202 38.1775C15.5545 38.2768 15.7172 38.3305 15.8843 38.3307C15.9622 38.3305 16.0398 38.3188 16.1143 38.296C16.3123 38.235 16.478 38.0978 16.575 37.9147C16.672 37.7316 16.6924 37.5175 16.6316 37.3194C16.578 37.1485 16.5493 36.9709 16.5465 36.7918C16.5469 36.7834 16.5473 36.738 16.5473 36.7296C16.5469 36.628 16.5263 36.5275 16.4867 36.4339C16.447 36.3403 16.3892 36.2556 16.3165 36.1846C16.2437 36.1136 16.1576 36.0579 16.0631 36.0205C15.9686 35.9832 15.8676 35.965 15.766 35.9671Z" fill="#008DD2"/>
<path d="M37.8536 33.22C37.6868 33.0971 37.478 33.0456 37.2732 33.0767C37.0683 33.1079 36.8843 33.2191 36.7615 33.3859C36.6386 33.5527 36.5871 33.7615 36.6182 33.9663C36.6494 34.1712 36.7606 34.3552 36.9274 34.478C37.1151 34.6159 37.2942 34.7651 37.4637 34.9247C37.6139 35.0675 37.8146 35.1448 38.0217 35.1395C38.2288 35.1343 38.4253 35.047 38.5681 34.8969C38.7108 34.7468 38.7881 34.5461 38.7829 34.339C38.7777 34.1318 38.6904 33.9353 38.5402 33.7925C38.3236 33.5874 38.0943 33.3962 37.8536 33.22Z" fill="#008DD2"/>
<path d="M33.7957 32.1404C33.8412 31.9578 33.8192 31.7649 33.7335 31.5973C33.6479 31.4297 33.5045 31.2987 33.3298 31.2286L33.3281 32.6691C33.4423 32.6242 33.5442 32.5529 33.6255 32.461C33.7068 32.3691 33.7651 32.2593 33.7957 32.1404Z" fill="#008DD2"/>
<path d="M20.8401 32.823V31.4585C20.6823 31.5436 20.5586 31.6804 20.4897 31.8459C20.4208 32.0115 20.4109 32.1957 20.4617 32.3676C20.4916 32.4647 20.5404 32.555 20.6054 32.6332C20.6703 32.7113 20.7501 32.7759 20.8401 32.823Z" fill="#008DD2"/>
<path d="M22.5574 42.5286C22.7604 42.5705 22.9716 42.53 23.1448 42.4161C23.3179 42.3022 23.4387 42.1242 23.4806 41.9213C23.5224 41.7183 23.482 41.507 23.3681 41.3339C23.2542 41.1608 23.0762 41.04 22.8733 40.9981C22.62 40.9458 22.3717 40.8891 22.1286 40.828C21.9278 40.7778 21.7153 40.8094 21.5378 40.9158C21.3602 41.0222 21.2322 41.1947 21.1818 41.3955C21.1313 41.5962 21.1626 41.8088 21.2688 41.9865C21.3749 42.1641 21.5472 42.2924 21.7479 42.3432C22.0123 42.4095 22.2821 42.4714 22.5574 42.5286Z" fill="#008DD2"/>
<path d="M35.9782 39.6533C35.7665 39.7673 35.5429 39.8776 35.3129 39.9817C35.2192 40.0238 35.1346 40.0839 35.0642 40.1587C34.9937 40.2335 34.9387 40.3214 34.9023 40.4175C34.8659 40.5135 34.8488 40.6159 34.8519 40.7186C34.8551 40.8212 34.8785 40.9223 34.9208 41.0159C34.9631 41.1096 35.0235 41.1939 35.0984 41.2642C35.1734 41.3345 35.2615 41.3893 35.3576 41.4254C35.4538 41.4616 35.5562 41.4785 35.6589 41.475C35.7615 41.4716 35.8625 41.4479 35.9561 41.4054C36.2193 41.2867 36.4764 41.1597 36.7198 41.0281C36.8102 40.9795 36.8902 40.9135 36.9551 40.834C37.02 40.7544 37.0686 40.6629 37.0981 40.5646C37.1276 40.4662 37.1374 40.363 37.127 40.2609C37.1166 40.1588 37.0861 40.0597 37.0374 39.9693C36.9887 39.879 36.9226 39.7991 36.843 39.7343C36.7633 39.6695 36.6717 39.621 36.5733 39.5917C36.475 39.5623 36.3717 39.5527 36.2696 39.5632C36.1675 39.5738 36.0685 39.6044 35.9782 39.6533Z" fill="#008DD2"/>
<path d="M34.2141 32.2648C34.1398 32.4582 34.1453 32.6732 34.2295 32.8626C34.3137 33.0519 34.4697 33.2001 34.6631 33.2745C34.9019 33.3661 35.132 33.4626 35.3535 33.5641C35.4681 33.6174 35.5941 33.6419 35.7203 33.6355C35.8466 33.6291 35.9694 33.5919 36.078 33.5272C36.1866 33.4624 36.2777 33.3722 36.3435 33.2642C36.4093 33.1562 36.4476 33.0338 36.4553 32.9076L44.4302 27.8327V28.2723C44.4302 28.4795 44.5125 28.6782 44.6591 28.8247C44.8056 28.9713 45.0043 29.0536 45.2115 29.0536C45.4187 29.0536 45.6174 28.9713 45.7639 28.8247C45.9104 28.6782 45.9927 28.4795 45.9927 28.2723V26.2208C46.0255 26.088 46.0235 25.949 45.9868 25.8172C45.9502 25.6854 45.8801 25.5653 45.7835 25.4685C45.6868 25.3717 45.5668 25.3015 45.4351 25.2647C45.3033 25.2279 45.1643 25.2257 45.0314 25.2583H42.9791C42.7719 25.2583 42.5732 25.3406 42.4267 25.4871C42.2802 25.6336 42.1978 25.8323 42.1978 26.0395C42.1978 26.2467 42.2802 26.4455 42.4267 26.592C42.5732 26.7385 42.7719 26.8208 42.9791 26.8208H43.1093L35.2715 31.8085C35.2632 31.8138 35.2569 31.8208 35.2489 31.8263C35.2403 31.823 35.2324 31.8191 35.2238 31.8158C35.0304 31.7415 34.8153 31.747 34.626 31.8312C34.4366 31.9154 34.2885 32.0714 34.2141 32.2648Z" fill="#008DD2"/>
<path d="M39.214 37.5577C39.4222 37.5555 39.6211 37.4712 39.7674 37.3231C39.9137 37.175 39.9956 36.9751 39.9952 36.7669C39.9947 36.4321 39.9453 36.0991 39.8488 35.7785C39.8197 35.6799 39.7715 35.588 39.7068 35.508C39.6421 35.4281 39.5623 35.3617 39.4719 35.3127C39.3815 35.2636 39.2824 35.2329 39.1801 35.2223C39.0778 35.2117 38.9745 35.2214 38.8759 35.2508C38.7774 35.2802 38.6857 35.3288 38.606 35.3938C38.5263 35.4588 38.4602 35.5388 38.4115 35.6294C38.3628 35.72 38.3325 35.8192 38.3222 35.9216C38.312 36.0239 38.3221 36.1272 38.3519 36.2256C38.4049 36.4012 38.4322 36.5835 38.4327 36.7669V36.7856C38.4329 36.8877 38.4533 36.9888 38.4928 37.083C38.5322 37.1772 38.5899 37.2626 38.6625 37.3344C38.7352 37.4062 38.8213 37.4629 38.9159 37.5012C39.0106 37.5395 39.1119 37.5587 39.214 37.5577Z" fill="#008DD2"/>
<path d="M34.5271 41.1595C34.498 41.0611 34.4498 40.9693 34.3853 40.8896C34.3208 40.8098 34.2412 40.7435 34.151 40.6945C34.0608 40.6455 33.9619 40.6148 33.8599 40.604C33.7578 40.5933 33.6547 40.6027 33.5563 40.6319C33.3167 40.7028 33.071 40.7698 32.8193 40.8329C32.6185 40.8834 32.4459 41.0116 32.3396 41.1892C32.2332 41.3668 32.2016 41.5794 32.2519 41.7802C32.3021 41.9811 32.43 42.1538 32.6075 42.2604C32.785 42.367 32.9975 42.3989 33.1985 42.3489C33.4716 42.2806 33.7386 42.2077 33.9995 42.1303C34.1982 42.0715 34.3654 41.9362 34.4643 41.7541C34.5633 41.5721 34.5859 41.3582 34.5271 41.1595Z" fill="#008DD2"/>
<path d="M25.5408 41.3754C25.2814 41.3545 25.0255 41.3295 24.7729 41.3007C24.5672 41.2775 24.3607 41.337 24.1988 41.466C24.0369 41.595 23.9328 41.7829 23.9093 41.9886C23.8859 42.1943 23.945 42.4009 24.0737 42.563C24.2025 42.7251 24.3903 42.8295 24.5959 42.8533C24.8652 42.8838 25.138 42.9102 25.4142 42.9326C25.4359 42.9345 25.4573 42.9353 25.4783 42.9353C25.6799 42.9351 25.8736 42.8569 26.0189 42.7171C26.1643 42.5774 26.2499 42.3868 26.258 42.1854C26.2661 41.9839 26.196 41.7871 26.0623 41.6362C25.9286 41.4852 25.7418 41.3918 25.5408 41.3754Z" fill="#008DD2"/>
<path d="M30.2624 42.8604C30.2921 42.8605 30.3218 42.8588 30.3513 42.8555C30.6278 42.8242 30.9006 42.7883 31.1695 42.7479C31.271 42.7327 31.3684 42.6977 31.4563 42.6449C31.5442 42.592 31.6209 42.5224 31.6819 42.4399C31.7429 42.3574 31.787 42.2638 31.8118 42.1642C31.8366 42.0647 31.8416 41.9613 31.8264 41.8598C31.8112 41.7584 31.7762 41.6609 31.7234 41.573C31.6705 41.4851 31.6009 41.4085 31.5184 41.3475C31.436 41.2865 31.3423 41.2423 31.2428 41.2175C31.1432 41.1927 31.0398 41.1878 30.9383 41.2029C30.6877 41.2403 30.4335 41.2736 30.1758 41.3029C29.9776 41.3253 29.7955 41.4227 29.6668 41.5751C29.5381 41.7275 29.4726 41.9234 29.4836 42.1225C29.4947 42.3217 29.5815 42.5091 29.7263 42.6463C29.8711 42.7835 30.0629 42.8601 30.2624 42.8604Z" fill="#008DD2"/>
<path d="M27.0938 10.5938C27.9436 10.5938 28.7744 10.3418 29.481 9.86961C30.1876 9.39747 30.7383 8.72638 31.0636 7.94123C31.3888 7.15608 31.4739 6.29212 31.3081 5.45861C31.1423 4.62509 30.733 3.85946 30.1321 3.25853C29.5312 2.6576 28.7656 2.24836 27.932 2.08257C27.0985 1.91677 26.2346 2.00186 25.4494 2.32708C24.6643 2.6523 23.9932 3.20305 23.521 3.90966C23.0489 4.61628 22.7969 5.44704 22.7969 6.29689C22.7982 7.4361 23.2513 8.52828 24.0568 9.33382C24.8624 10.1394 25.9545 10.5925 27.0938 10.5938ZM27.0938 3.56251C27.6346 3.56251 28.1632 3.72287 28.6129 4.02333C29.0626 4.32379 29.413 4.75084 29.62 5.25048C29.827 5.75013 29.8811 6.29992 29.7756 6.83034C29.6701 7.36075 29.4097 7.84797 29.0273 8.23038C28.6448 8.61279 28.1576 8.87322 27.6272 8.97873C27.0968 9.08423 26.547 9.03008 26.0474 8.82312C25.5477 8.61617 25.1207 8.26569 24.8202 7.81603C24.5197 7.36636 24.3594 6.8377 24.3594 6.29689C24.3602 5.57194 24.6486 4.87693 25.1612 4.36432C25.6738 3.85171 26.3688 3.56335 27.0938 3.56251Z" fill="#008DD2"/>
<path d="M21.505 21.6642C21.7848 21.865 22.0874 22.0321 22.4064 22.1621V35.4839C22.4031 35.9235 22.5742 36.3464 22.8823 36.66C23.1903 36.9736 23.6102 37.1522 24.0498 37.1567H30.1209C30.5602 37.1522 30.9798 36.9738 31.2879 36.6606C31.5959 36.3473 31.7672 35.9247 31.7642 35.4854L31.7793 22.1614C32.0992 22.0312 32.4026 21.8636 32.6832 21.6623C34.0622 20.6745 34.8931 18.881 34.9064 16.8647C34.9201 14.7661 33.9915 12.2834 31.3829 11.4552C31.2665 11.3878 31.1346 11.3519 31.0002 11.3511H23.6755C23.2514 11.3468 22.8303 11.4246 22.4358 11.5804C20.0912 12.5299 19.2692 14.9326 19.2814 16.8647C19.2947 18.8827 20.126 20.6769 21.505 21.6642ZM30.2017 35.4839C30.2045 35.5091 30.1977 35.5343 30.1827 35.5547C30.1677 35.5751 30.1457 35.5892 30.1209 35.5941H27.8752V25.695C27.8752 25.4878 27.7929 25.2891 27.6463 25.1426C27.4998 24.996 27.3011 24.9137 27.0939 24.9137C26.8867 24.9137 26.688 24.996 26.5415 25.1426C26.395 25.2891 26.3127 25.4878 26.3127 25.695V35.5941H24.0498C24.025 35.5892 24.0029 35.5751 23.9879 35.5547C23.973 35.5343 23.9662 35.5091 23.9689 35.4839V22.4814C24.0098 22.4824 24.0502 22.4859 24.0914 22.4859C24.6649 22.4823 25.2341 22.3863 25.7771 22.2015C26.2061 22.0575 26.6446 21.9432 27.0893 21.8596C27.5347 21.9433 27.9738 22.0576 28.4035 22.2017C28.9471 22.3865 29.517 22.4825 30.0911 22.4859C30.1332 22.4859 30.1746 22.4823 30.2165 22.4812L30.2017 35.4839ZM23.0229 13.0284C23.231 12.9485 23.4526 12.9095 23.6755 12.9136H30.8188C32.692 13.4608 33.3541 15.2981 33.3439 16.8544C33.334 18.3721 32.7469 19.6946 31.7734 20.392C31.3572 20.6775 30.8773 20.8566 30.3758 20.9136C29.8743 20.9706 29.3664 20.9037 28.8967 20.7189C27.9121 20.3793 26.8812 20.1929 25.84 20.166L25.6809 20.1646C25.4253 20.181 25.1687 20.1539 24.9222 20.0843C24.8517 20.0398 24.7977 19.9734 24.7685 19.8952C24.7394 19.8171 24.7367 19.7316 24.7608 19.6517C24.8539 19.194 25.5798 18.8485 26.1234 18.8596C27.3165 18.9286 28.4961 19.1483 29.634 19.5135C29.7249 19.5959 29.8341 19.6555 29.9526 19.6872C30.0711 19.7189 30.1955 19.7218 30.3154 19.6958C30.6494 19.6102 30.9598 19.4501 31.2232 19.2276C31.4867 19.0052 31.6964 18.726 31.8367 18.411C32.0049 18.0984 32.1013 17.7522 32.1189 17.3977C32.1365 17.0431 32.0749 16.6891 31.9386 16.3614C31.8949 16.2684 31.8334 16.185 31.7575 16.1158C31.6815 16.0467 31.5927 15.9932 31.4961 15.9584C31.3995 15.9236 31.2969 15.9082 31.1944 15.9131C31.0918 15.918 30.9912 15.943 30.8983 15.9868C30.8054 16.0307 30.7221 16.0924 30.6531 16.1684C30.584 16.2444 30.5307 16.3334 30.4961 16.43C30.4615 16.5267 30.4463 16.6293 30.4513 16.7319C30.4564 16.8344 30.4816 16.935 30.5256 17.0278C30.5581 17.1428 30.5669 17.2633 30.5517 17.3818C30.5364 17.5004 30.4973 17.6146 30.4367 17.7177C30.3762 17.8443 30.2914 17.9579 30.1873 18.052C30.1601 18.0428 30.1352 18.0333 30.1075 18.0242C29.5142 17.5444 28.7716 17.2874 28.0087 17.2979C27.7282 17.306 27.4152 17.3331 27.0892 17.3716C26.7628 17.3331 26.4493 17.306 26.1684 17.2979C25.3977 17.2865 24.6476 17.5467 24.0495 18.033C23.9739 18.0579 23.9025 18.0835 23.8306 18.1091C23.7345 18.007 23.6601 17.8866 23.6118 17.7551C23.5236 17.56 23.492 17.344 23.5207 17.1317C23.5784 17.0467 23.6189 16.9512 23.6397 16.8505C23.6604 16.7499 23.6611 16.6461 23.6418 16.5452C23.6224 16.4442 23.5832 16.3481 23.5266 16.2623C23.47 16.1765 23.397 16.1028 23.3118 16.0452C23.2267 15.9877 23.131 15.9476 23.0302 15.9271C22.9295 15.9066 22.8257 15.9062 22.7249 15.9259C22.624 15.9456 22.528 15.9851 22.4424 16.0419C22.3568 16.0988 22.2832 16.172 22.226 16.2574C21.7636 16.9418 21.9464 17.9053 22.2435 18.5226C22.4385 18.9653 22.777 19.3295 23.2042 19.5564C23.1561 20.0188 23.2711 20.4835 23.5295 20.87C23.1273 20.7954 22.7465 20.6327 22.4144 20.3937C21.4409 19.6967 20.8538 18.3736 20.8439 16.8546C20.8347 15.4351 21.4024 13.6846 23.0229 13.0284Z" fill="#008DD2"/>
<path d="M39.2773 38.7506C39.3092 38.5785 39.2821 38.4007 39.2006 38.2459C39.1191 38.0911 38.9877 37.9682 38.8278 37.8971C38.6679 37.826 38.4888 37.8109 38.3192 37.8541C38.1496 37.8973 37.9995 37.9963 37.8931 38.1352C37.7559 38.3118 37.6046 38.477 37.4407 38.6292C37.3088 38.7517 37.2233 38.916 37.1987 39.0943C37.1741 39.2726 37.212 39.4539 37.3059 39.6075C37.3998 39.761 37.544 39.8774 37.7139 39.9367C37.8838 39.9961 38.069 39.9949 38.2381 39.9332L46.1603 45.3347H45.8376C45.6304 45.3347 45.4317 45.417 45.2852 45.5635C45.1387 45.71 45.0564 45.9088 45.0564 46.116C45.0564 46.3232 45.1387 46.5219 45.2852 46.6684C45.4317 46.8149 45.6304 46.8972 45.8376 46.8972H47.9736C48.107 46.9308 48.2467 46.9293 48.3793 46.8927C48.5119 46.8561 48.6327 46.7857 48.7299 46.6885C48.8271 46.5913 48.8975 46.4705 48.9341 46.3379C48.9706 46.2054 48.9722 46.0656 48.9386 45.9322V43.7962C48.9386 43.589 48.8563 43.3903 48.7098 43.2438C48.5633 43.0973 48.3645 43.015 48.1573 43.015C47.9501 43.015 47.7514 43.0973 47.6049 43.2438C47.4584 43.3903 47.3761 43.589 47.3761 43.7962V44.2725L39.2773 38.7506Z" fill="#008DD2"/>
<path d="M26.8286 49.071C26.682 48.925 26.4834 48.8431 26.2765 48.8433C26.0696 48.8435 25.8712 48.9258 25.7249 49.0721C25.5786 49.2184 25.4963 49.4168 25.4961 49.6237C25.4959 49.8307 25.5778 50.0292 25.7238 50.1758L27.1751 51.627C27.2437 51.7415 27.3411 51.8361 27.4574 51.9014C27.5738 51.9668 27.7053 52.0006 27.8387 51.9996C27.8442 51.9996 27.8495 51.9982 27.8549 51.998C27.8604 51.9982 27.8657 51.9996 27.8711 51.9996C27.9225 51.9995 27.9737 51.9943 28.0241 51.9842C28.0475 51.9795 28.0692 51.9708 28.0918 51.9641C28.1468 51.9523 28.1992 51.9304 28.2462 51.8996C28.2656 51.889 28.2857 51.8806 28.3042 51.8682C28.39 51.8109 28.4637 51.7372 28.521 51.6515C28.5262 51.6436 28.5298 51.6351 28.5348 51.6271L29.986 50.1758C30.1319 50.0292 30.2136 49.8307 30.2133 49.6239C30.2131 49.417 30.1308 49.2188 29.9845 49.0725C29.8383 48.9263 29.64 48.844 29.4332 48.8437C29.2264 48.8435 29.0279 48.9252 28.8813 49.0711L28.6524 49.2999V42.8979C28.8044 42.8123 28.9232 42.6781 28.9899 42.517C29.0566 42.3558 29.0672 42.1769 29.0201 42.009C28.973 41.841 28.8709 41.6938 28.7302 41.5908C28.5894 41.4877 28.4182 41.435 28.2438 41.4409C27.9963 41.4485 27.7465 41.4524 27.4946 41.4527C27.4862 41.4523 27.4782 41.4523 27.471 41.4523C27.2983 41.4519 27.1304 41.5088 26.9936 41.6142C26.8568 41.7195 26.7589 41.8674 26.7153 42.0344C26.6717 42.2015 26.6848 42.3783 26.7526 42.5371C26.8204 42.6959 26.9391 42.8276 27.0899 42.9117V49.3324L26.8286 49.071Z" fill="#008DD2"/>
<path d="M6.24202 46.6797C6.33547 46.7797 6.45416 46.8528 6.58561 46.8912C6.71706 46.9295 6.85642 46.9318 6.98904 46.8976H9.12503C9.33223 46.8976 9.53095 46.8153 9.67746 46.6688C9.82397 46.5223 9.90628 46.3236 9.90628 46.1164C9.90628 45.9092 9.82397 45.7105 9.67746 45.5639C9.53095 45.4174 9.33223 45.3351 9.12503 45.3351H8.85326L17.1076 40.3107C17.1135 40.3151 17.1189 40.3198 17.1248 40.3241C17.2076 40.3848 17.3015 40.4286 17.4012 40.4529C17.5008 40.4773 17.6044 40.4818 17.7058 40.4662C17.8072 40.4506 17.9045 40.4151 17.9922 40.3619C18.08 40.3086 18.1563 40.2386 18.217 40.1559C18.2777 40.0731 18.3214 39.9792 18.3458 39.8796C18.3702 39.7799 18.3747 39.6764 18.3591 39.575C18.3435 39.4736 18.308 39.3762 18.2548 39.2885C18.2015 39.2008 18.1315 39.1244 18.0488 39.0637C17.8601 38.9263 17.6801 38.7774 17.5098 38.6178C17.4091 38.522 17.2845 38.4549 17.1491 38.4235C17.0137 38.3921 16.8723 38.3976 16.7397 38.4395C16.6072 38.4813 16.4882 38.5578 16.3953 38.6612C16.3024 38.7646 16.2389 38.891 16.2114 39.0273L7.58656 44.2772V43.7966C7.58656 43.5894 7.50425 43.3907 7.35774 43.2442C7.21122 43.0977 7.01251 43.0154 6.80531 43.0154C6.59811 43.0154 6.39939 43.0977 6.25288 43.2442C6.10637 43.3907 6.02406 43.5894 6.02406 43.7966V45.9326C5.98992 46.0653 5.99215 46.2046 6.03051 46.3361C6.06886 46.4675 6.14193 46.5862 6.24202 46.6797Z" fill="#008DD2"/>
<path d="M9.02099 28.2723C9.02099 28.4795 9.1033 28.6782 9.24982 28.8247C9.39633 28.9712 9.59504 29.0535 9.80224 29.0535C10.0094 29.0535 10.2082 28.9712 10.3547 28.8247C10.5012 28.6782 10.5835 28.4795 10.5835 28.2723V27.8798L17.8651 33.081C17.8462 33.2233 17.8671 33.3681 17.9253 33.4994C17.9835 33.6307 18.0768 33.7433 18.195 33.8249C18.3131 33.9065 18.4515 33.9539 18.5949 33.9619C18.7383 33.9698 18.8811 33.938 19.0075 33.87C19.22 33.7559 19.4443 33.6457 19.6736 33.5423C19.8527 33.462 19.9949 33.3171 20.0719 33.1366C20.1488 32.956 20.1549 32.753 20.0888 32.5682C20.0227 32.3834 19.8893 32.2303 19.7153 32.1395C19.5412 32.0487 19.3394 32.0269 19.15 32.0784L11.7891 26.8208H12.035C12.2422 26.8208 12.4409 26.7385 12.5874 26.592C12.7339 26.4455 12.8162 26.2467 12.8162 26.0395C12.8162 25.8323 12.7339 25.6336 12.5874 25.4871C12.4409 25.3406 12.2422 25.2583 12.035 25.2583H9.98228C9.84955 25.2257 9.71065 25.2279 9.57901 25.2646C9.44737 25.3014 9.32744 25.3715 9.23079 25.4681C9.13415 25.5647 9.06407 25.6847 9.02731 25.8163C8.99056 25.948 8.98839 26.0869 9.02099 26.2196V28.2723Z" fill="#008DD2"/>
</svg>
