<svg width="70" height="70" viewBox="0 0 70 70" fill="none" xmlns="http://www.w3.org/2000/svg">
<rect x="-6.10352e-05" width="70" height="70" rx="5" fill="#008DD2"/>
<path fill-rule="evenodd" clip-rule="evenodd" d="M27.1041 17.2576V14.6515C27.1041 14.2917 27.3933 14 27.7499 14C28.1066 14 28.3958 14.2917 28.3958 14.6515V17.2576H34.8541V14.6515C34.8541 14.2917 35.1433 14 35.4999 14C35.8566 14 36.1458 14.2917 36.1458 14.6515V17.2576H42.6041V14.6515C42.6041 14.2917 42.8933 14 43.2499 14C43.6066 14 43.8958 14.2917 43.8958 14.6515V17.2576H46.4855C48.9796 17.2576 50.9999 19.3017 50.9999 21.8243V52.4333C50.9999 54.9535 48.9761 57 46.4855 57H24.5144C22.0202 57 19.9999 54.9559 19.9999 52.4333V21.8243C19.9999 19.3041 22.0237 17.2576 24.5144 17.2576H27.1041ZM27.1041 18.5606H24.5144C22.7378 18.5606 21.2916 20.023 21.2916 21.8243V52.4333C21.2916 54.2371 22.7345 55.697 24.5144 55.697H46.4855C48.2621 55.697 49.7083 54.2346 49.7083 52.4333V21.8243C49.7083 20.0205 48.2654 18.5606 46.4855 18.5606H43.8958V21.1667C43.8958 21.5265 43.6066 21.8182 43.2499 21.8182C42.8933 21.8182 42.6041 21.5265 42.6041 21.1667V18.5606H36.1458V21.1667C36.1458 21.5265 35.8566 21.8182 35.4999 21.8182C35.1433 21.8182 34.8541 21.5265 34.8541 21.1667V18.5606H28.3958V21.1667C28.3958 21.5265 28.1066 21.8182 27.7499 21.8182C27.3933 21.8182 27.1041 21.5265 27.1041 21.1667V18.5606ZM45.1874 43.9697H25.8124C25.3072 43.9697 24.9976 43.4108 25.2624 42.9767L30.4291 34.507C30.6812 34.0936 31.277 34.0936 31.5292 34.507L32.9656 36.8619L36.8914 30.5915C37.1449 30.1867 37.73 30.1867 37.9835 30.5915L45.7335 42.9703C46.0051 43.4041 45.6961 43.9697 45.1874 43.9697ZM30.9791 36.0916L26.9682 42.6667H34.99L30.9791 36.0916ZM44.0157 42.6667L37.4374 32.1595L33.7196 38.0978L36.5066 42.6667H44.0157Z" fill="white"/>
</svg>
